<svg id="Layer_1_1_" enable-background="new 0 0 256 256" height="512" viewBox="0 0 256 256" width="512" xmlns="http://www.w3.org/2000/svg"><path d="m201.804 21.95-.611-5.873c-.11-1.055-.999-1.857-2.06-1.857-1.102 0-2.011.863-2.068 1.964l-.109 2.105c-.079 1.532-.712 2.984-1.781 4.084l-15.009 15.459-35.96 18.318c-.343.175-.739.41-1.177.694l7.154 11.352 7.493-3.227c6.606-2.845 12.643-6.862 17.818-11.857l9.506-9.174 4.219.187c.63.028 1.26-.022 1.877-.149 3.307-.678 5.78-3.444 6.086-6.806l.485-5.337 3.432-6.335c.587-1.084.833-2.321.705-3.548z" fill="#f5d3a6"/><path d="m119.018 77.74s-8.518 8.927-12.018 18.427c0 0-3.5 8.333-7.333 13.333s-24.5 10.095-24.5 10.095l2.633 11.079 9.612 48.075.485 10.089.01.198c3.799.689 8.424.274 11.849-1.23l1.52-.398-1.115-7.232 2.854-47.024.299-7.786c3.361-2.11 14.158-9.187 19.188-16.033 6-8.167 9.607-21.504 9.607-21.504l7.298-10.816 5.428-6.513 5.349-2.304-7.154-11.352c-6.781 4.391-24.012 20.896-24.012 20.896z" fill="#514654"/><path d="m122.5 109.333c.486-.661.954-1.359 1.408-2.078-2.728 2.362-6.75 5.688-9.551 7.317-4.607 2.679-11.045 4.821-11.045 4.821v5.973c3.362-2.11 14.158-9.187 19.188-16.033z" fill="#403742"/><path d="m133.363 64.586c-6.99 6.109-14.345 13.154-14.345 13.154s-.822.862-2.057 2.331l4.852 3.363c3.39 2.349 5.557 6.086 5.912 10.195l.458 5.295c2.517-5.895 3.924-11.095 3.924-11.095l7.298-10.816 2.677-3.212c-1.997-2.302-5.87-6.308-8.719-9.215z" fill="#403742"/><path d="m60.833 53.563c-2.833 1.115-4.975 3.498-5.782 6.434-.363 1.321-.442 2.704-.23 4.057l.872 5.579c.873 5.587 3.326 10.808 7.068 15.047l3.433 3.889 3.414-37.532z" fill="#f5d3a6"/><path d="m62.761 84.679 3.433 3.889 3.414-37.532-3.839 1.105c-2.516 4.968-4.125 10.356-4.704 15.917l-1.305 12.54c.883 1.435 1.876 2.807 3.001 4.081z" fill="#f0c792"/><path d="m86.896 188.838c.325.08.669.136 1.01.198l-.01-.198z" fill="none"/><path d="m87.905 189.036.447 9.307c.249 5.19 1.149 10.328 2.677 15.294l6.751 21.94-1.427 6.184-2.005 4.583c-.697 1.593.189 3.433 1.869 3.881l3.582.955c.239.064 5.571.096 5.571.096 1.754 0 3.089-1.575 2.8-3.306l-1.352-8.112-3.33-12.369.331-17.563c.067-3.562-.172-7.123-.715-10.644l-1.831-11.876-1.52.398c-3.424 1.507-8.048 1.922-11.848 1.232z" fill="#f5d3a6"/><path d="m107.295 87.559c-1.995 3.328-7.586 12.279-11.628 15.108-4.05 2.835-17.766 6.008-22.833 7.112l2.333 9.817s20.667-5.095 24.5-10.095 7.333-13.333 7.333-13.333c.756-2.052 1.752-4.071 2.84-5.985z" fill="#f5d3a6"/><path d="m142.113 80.499c-3.273-4.631-7.323-8.66-11.972-11.906l-3.474-2.426-11.917-7.991c-1.496-1.003-3.094-1.845-4.766-2.512l-5.451-2.172-1.146-.457 2.539 17.619 4.796 1.05c1.38.302 2.654.957 3.701 1.905 2.842 2.573 8.719 7.861 11.078 9.724 1.825 1.441 4.544 3.205 6.607 4.496l-4.943 13.381s3.836-1.043 8.003-3.21c4.165-2.167 10.832-12 10.832-12z" fill="#f5d3a6"/><path d="m132.107 87.829-4.943 13.381s.474-.13 1.257-.387l8.061-10.868z" fill="#f0c792"/><path d="m107.295 87.559-1.125-1.159c-1.157-1.192-1.692-2.857-1.444-4.5l1.194-7.921c.164-1.091.168-2.2.011-3.292l-.005-.033-1.392-17.162-11.274-4.492h-10.941l-11.191 1.606c-2.602.373-4.655 2.401-5.061 4.998l-2.359 15.077c-.951 6.077-.086 12.3 2.486 17.887l3.306 7.182 3.334 14.029c5.067-1.104 18.783-4.277 22.833-7.112 4.042-2.83 9.633-11.781 11.628-15.108z" fill="#7f8b4b"/><path d="m87.793 10.127c-7.544 0-13.66 7.179-13.66 16.035 0 1.134.102 2.31.293 3.496 1.382-7.138 6.868-12.405 13.367-12.405 6.497 0 12.043 4.862 13.427 11.997.15-1.048.233-2.084.233-3.088-.001-8.856-6.116-16.035-13.66-16.035z" fill="#704c0f"/><path d="m81.417 42.511v12.185c0 3.521 2.854 6.376 6.376 6.376 3.521 0 6.376-2.854 6.376-6.376v-12.185z" fill="#f0c792"/><path d="m79.853 13.118c2.238-1.881 4.977-2.991 7.94-2.991 2.979 0 5.733 1.123 7.978 3.023h.006c.127-.575.33-1.223.33-1.835 0-4.592-3.722-8.315-8.314-8.315s-8.314 3.723-8.314 8.314c0 .663.222 1.185.368 1.803h.006z" fill="#704c0f"/><path d="m87.793 17.253c-6.499 0-11.985 5.266-13.367 12.405 1.299 8.078 6.789 16.696 13.367 16.696 6.689 0 12.251-8.911 13.427-17.104-1.385-7.135-6.93-11.997-13.427-11.997z" fill="#f5d3a6"/><g fill="#5e400d"><path d="m82.455 11.398c-.138.069-.273.143-.409.217-1.567 3.155-1.838 6.287-1.805 8.275.087-.067.174-.133.263-.198-.013-2.035.307-5.173 1.951-8.294z"/><path d="m83.573 10.91c-.1.038-.198.077-.297.118-.627 2.9-.445 5.52-.183 7.188.084-.035.168-.068.252-.102-.258-1.678-.43-4.305.228-7.204z"/><path d="m93.256 11.465c1.587 2.528 3.434 6.151 3.66 9.589.076.074.154.145.228.221.029-.026.05-.06.047-.102-.179-3.357-1.906-6.896-3.473-9.462-.151-.087-.306-.167-.462-.246z"/><path d="m93.538 18.616c.104.052.203.115.306.17-.008-.041-.015-.079-.023-.12-.573-2.885-2.651-6.365-3.968-8.358-.117-.021-.235-.035-.353-.053 1.278 1.913 3.424 5.437 4.038 8.361z"/><path d="m95.771 13.15h.006c.077-.35.178-.727.249-1.107-2.29-2.034-5.141-3.242-8.233-3.242-3.089 0-5.938 1.205-8.226 3.235.078.36.19.704.28 1.081h.007c2.238-1.881 4.977-2.991 7.94-2.991 2.978.001 5.732 1.124 7.977 3.024z"/></g><path d="m99.036 89.178c3.298-.702 6.14-1.421 7.977-1.91l-.844-.869c-1.157-1.192-1.692-2.857-1.444-4.5l.773-5.132c-3.804 3.761-12.188 5.444-12.516 8.072-.375 3 .268 5.572 6.054 4.339z" fill="#727d43"/></svg>