<svg id="Layer_1_1_" enable-background="new 0 0 256 256" height="512" viewBox="0 0 256 256" width="512" xmlns="http://www.w3.org/2000/svg"><path d="m198.271 224.543-.729-1.459-1.77-16.591c-.226-2.49-.354-4.614-.402-7.112l-49.677-6.637c-1.991-16.415-11.823-55.396-11.823-55.396l-28.974 22.609v33.269l2.316 10.061c1.843 7.74 5.117 15.067 9.655 21.603l2.998 4.318 44.885 19.792h6.233c6.607 0 13.142-1.367 19.195-4.015l.823-.36c3.819-1.671 6.751-4.882 8.07-8.837 1.235-3.706.948-7.751-.8-11.245z" fill="#514654"/><path d="m196.917 146.392-2.917-25.892-33.452-19.947-3.541 6.736-16.777 10.286-13.218 10.7 5.002 32.291 1.211 2.883s3.497 10.302 5.668 21.025c4.183 1.062 20.098 4.907 32.442 5.194 11.783.274 21.414-2.075 24.47-2.92l1.507-21.102c.457-6.418.326-12.862-.395-19.254z" fill="#7f8b4b"/><path d="m194 120.5-33.452-19.947-3.541 6.736-16.777 10.286-13.218 10.7 5.002 32.291 1.211 2.883s3.497 10.302 5.668 21.025c2.077.527-3.635-31.117 9.531-47.125 13.354-16.24 45.576-16.849 45.576-16.849z" fill="#727d43"/><path d="m102.434 105.568-14.058 18.245 5.624 7.187 7.437 28.094 20.797-27.6z" fill="#514654"/><path d="m171.333 189.667c-12.344-.287-28.258-4.131-32.442-5.194.512 2.53.951 5.083 1.252 7.53l18.139 5.411c3.881 1.136 7.884 1.801 11.924 1.978l25.163-.011c-.061-3.173.011-6.721.238-9.888l.196-2.746c-3.056.845-12.687 3.194-24.47 2.92z" fill="#f5d3a6"/><path d="m133.224 163.448-1.211-2.883-3.008-19.422-24.109 18.813v33.269l1.251 5.436 1.869-4.037s15.19-18.01 25.512-30.258c-.193-.59-.304-.918-.304-.918z" fill="#403742"/><path d="m119.426 127.817c-.401.493-.792.973-1.166 1.426-6.961 8.43-12.949 17.665-17.412 27.627l.589 2.223 20.797-27.599z" fill="#403742"/><path d="m102 105-25.096-49.295c-1.922-3.776-3.19-7.85-3.75-12.05l-1.154-8.655 13-13h8.086c1.768 0 3.366-1.054 4.062-2.679 1.004-2.342-.176-5.046-2.576-5.903l-6.372-2.275c-2.02-.721-4.26-.474-6.074.672l-16.126 10.185-9.751 3.75c-2.046.787-3.603 2.489-4.205 4.596-.651 2.278-.102 4.73 1.458 6.513l3.313 3.786c.777.888 1.317 1.959 1.567 3.113l8.849 40.704c.512 2.354 1.219 4.662 2.114 6.899l4.355 10.888c1.526 3.815 3.586 7.393 6.118 10.629l8.558 10.935 14.058-18.245z" fill="#f5d3a6"/><path d="m87.153 22h5.932c1.768 0 3.366-1.054 4.062-2.679 1.004-2.342-.176-5.046-2.576-5.903l-6.371-2.275c-2.02-.721-4.26-.474-6.074.672l-16.126 10.185-5.655 2.175c.458.185.923.353 1.4.491l.817.236c3.984 1.153 8.27.561 11.793-1.628 3.847-2.391 8.569-2.84 12.798-1.274z" fill="#f0c792"/><path d="m157.398 93.958 3.602 7.542 7.89 13.036c2.323 3.837 5.993 6.67 10.294 7.944 4.38 1.298 9.089.883 13.174-1.16l1.642-.82-24.257-48.072c-2.16-4.281-4.577-8.428-7.237-12.418l-16.006-24.01-53-23.5-12.284-7.458c-1.08-.656-2.406-.763-3.577-.289l-16.54 6.695c-1.571.636-2.599 2.161-2.599 3.856v.401c0 1.931 1.328 3.608 3.207 4.05 3.357.79 6.892.063 9.665-1.986l7.128-5.269 1.905.402 11.095 9.098 23.811 15.852c1.124.764 2.311 1.431 3.548 1.993l20.141 9.155 3.49 11.05c.633 2.005 1.336 3.987 2.075 5.955z" fill="#f5d3a6"/><path d="m153.648 69.097-.395-7.462-10.456-.664c.553 1.691 1.143 3.369 1.767 5.034l12.834 27.952 3.386 7.089c1.603-2.14 2.765-4.57 3.212-7.387.717-4.519 1.278-12.172-1.157-16.363-2.135-3.673-9.191-8.199-9.191-8.199z" fill="#f0c792"/><path d="m159.828 114.214-6.172-15.148-17.36 8.676 5.5 13.751c2.211 5.527 8.825 7.788 13.956 4.769 4.163-2.447 5.897-7.577 4.076-12.048z" fill="#f0c792"/><path d="m104.229 83.618 10.002 18.417c-2.242 3.437-6.576 5.052-10.962 4.763-6.468-.427-11.365-6.017-10.937-12.485.407-6.178 5.802-10.655 11.897-10.695z" fill="#704c0f"/><path d="m103.609 101.877c.014.001.029.002.043.003 1.757.111 2.834-1.899 1.864-3.368-2.586-3.918-4.219-8.413-4.279-12.636-.009-.626.02-1.252.065-1.878.945-.234 1.925-.372 2.927-.378l10.002 18.417c-.24.368-.513.705-.8 1.029-.116.132-.237.257-.359.383-.162.163-.331.318-.504.47-.41.364-.846.696-1.313.992-.003.002-.005.004-.008.006-2.256 1.426-5.097 2.072-7.973 1.883-4.293-.282-8.061-3.073-9.854-6.984-1.36-2.966-1.338-5.606-.644-7.93.787 5.352 5.215 9.62 10.833 9.991z" fill="#5e400d"/><path d="m131.7 59.029c5.37 1.982 10.281 6.102 10.281 6.102l8.876.563.328 6.198s5.86 3.759 7.633 6.81c2.022 3.481 1.557 9.836.961 13.59-.484 3.048-1.969 5.555-3.97 7.688-2.591 2.762-6.048 4.898-9.321 6.773-3.487 1.998-8.161 1.83-12.03 1.598-1.26-.076-2.547-.2-3.839-.366-3.88-8.107 1.081-48.956 1.081-48.956z" fill="#f5d3a6"/><path d="m114.292 62.006c3.768-3.2 10.251-4.789 15.091-3.677.773.178 1.549.417 2.317.7 0 .001-4.961 40.849-1.081 48.956-3.501-.45-7.05-1.235-10.268-2.395-8.572-3.09-16.015-13.492-16.143-22.607-.112-7.891 4.195-15.975 10.084-20.977z" fill="#704c0f"/><path d="m114.397 71.822c4.954-3.555 11.322-4.269 16.374-4.126-.044.453-.089.913-.134 1.39-4.833-.119-10.868.565-15.443 3.847-4.283 3.073-8.031 7.948-10.803 12.254-.1-.739-.173-1.476-.183-2.203 0-.013.001-.026.001-.039 2.713-4.001 6.2-8.262 10.188-11.123z" fill="#5e400d"/><path d="m119.806 90.953c3.414-.71 6.703-2.36 9.539-4.188-.026.563-.048 1.123-.069 1.682-2.757 1.684-5.898 3.161-9.19 3.846-4.153.864-8.693 1.392-12.579 1.717-.247-.433-.482-.87-.705-1.313 3.962-.316 8.701-.848 13.004-1.744z" fill="#5e400d"/><path d="m108.9 96.226c3.617 1.091 7.893 2.127 11.597 2.329 2.981.163 6.006-.588 8.655-1.606.008.498.022.981.037 1.46-2.683.98-5.72 1.678-8.768 1.511-3.26-.178-6.886-.958-10.154-1.865-.48-.588-.932-1.203-1.367-1.829z" fill="#5e400d"/><g fill="#403742"><path d="m140.143 192.003 2.286 12.997 1.285-8.143 10.567-.636z"/><path d="m119.864 229.209.018.008c1.533-.405 3.178-.301 4.668.361l7.323 3.659-.112.026c9.44-2.193 21.957-5.089 27.24-6.263 1.809-.402 3.457-.683 4.935-.875l12.136-2.482s-1.286-4.286-8.143-1.5-25.929 9-33.643 7.714c-6.242-1.04-20.059-14.426-25.786-21.995 1.927 6.052 4.734 11.796 8.367 17.029z"/><path d="m195.586 204.165c-12.964 6.685-34.213 9.806-34.397 9.833.216-.031 3.835-.517 16.596.002 13.179.536 19.756 9.084 19.756 9.084l-1.77-16.591c-.072-.807-.132-1.572-.185-2.328z"/></g><path d="m138.095 129.746c-9.842-8.201-19.449 5.164-25.058 11.957-7.071 8.564-12.873 18.183-16.439 28.734 0 0-5.598 16.563-5.598 16.563l-10 29-4 21-29.7 6.706c-.76.172-1.3.847-1.3 1.626 0 .921.746 1.667 1.667 1.667h27.607l9.231-9.731 20.495-44.268s13.522-16.032 21.547-25.556c5.846-6.938 13.697-17.25 15.277-26.338.72-4.143-.425-8.607-3.729-11.36z" fill="#f5d3a6"/><path d="m163.935 226.125c-1.478.192-3.126.473-4.935.875-5.284 1.174-17.8 4.07-27.24 6.263l.112-.026-7.323-3.659c-2.21-.982-4.769-.764-6.781.577l-8.768 5.845-9.748-1.083c-5.387-.598-10.831.373-15.679 2.796l-6.597 3.299c-1.238.619-2.093 1.805-2.289 3.175-.363 2.54 1.608 4.813 4.174 4.813h1.139 84.75l.485-1.298c2.636-7.053 2.164-14.892-1.3-21.577z" fill="#f5d3a6"/><path d="m84 247h-1.138c-2.566 0-4.537-2.273-4.174-4.813.196-1.37 1.051-2.556 2.289-3.175l2.598-1.299-6.597 3.299c-1.238.619-2.093 1.805-2.289 3.175-.363 2.54 1.608 4.813 4.174 4.813h1.137 84.75l.485-1.298c.087-.232.161-.468.242-.702z" fill="#f0c792"/></svg>