<svg id="Layer_1_1_" enable-background="new 0 0 256 256" height="512" viewBox="0 0 256 256" width="512" xmlns="http://www.w3.org/2000/svg"><path d="m96.25 122.742 8.795 10.925c2.7-.499 4.816-2.758 5.767-5.541 1.404-4.104-.785-8.57-4.89-9.973-3.921-1.342-8.076.835-9.672 4.589z" fill="#704c0f"/><path d="m107.685 127.067c-.003.009-.006.018-.009.027-.385 1.114-1.903 1.26-2.561.283-1.753-2.607-4.108-4.775-6.7-5.9-.384-.167-.778-.311-1.177-.444-.388.523-.726 1.093-.988 1.71l8.795 10.925c.289-.053.568-.135.842-.228.111-.037.22-.08.329-.123.143-.058.282-.122.42-.19.33-.16.648-.343.951-.555.002-.001.004-.002.006-.004 1.462-1.025 2.594-2.613 3.218-4.438.933-2.724.181-5.77-1.772-7.886-1.481-1.605-3.117-2.272-4.731-2.442 3.102 1.865 4.596 5.7 3.377 9.265z" fill="#5e400d"/><path d="m73.981 133.366c-.161 3.827 1.117 7.922 1.117 7.922l-1.941 5.627 3.743 1.801s.81 4.588 2.237 6.47c1.628 2.146 5.673 3.497 8.145 4.097 2.007.487 3.938.216 5.772-.47 2.374-.888 4.584-2.472 6.586-4.01 2.133-1.638 3.234-4.568 4.088-7.017.278-.798.533-1.624.764-2.465-4.006-4.486-30.51-11.954-30.511-11.955z" fill="#f0c792"/><path d="m80.308 123.384c-2.948 1.502-5.601 5.096-6.162 8.371-.09.523-.142 1.064-.165 1.611 0 0 26.505 7.469 30.511 11.955.625-2.278 1.055-4.672 1.169-6.959.302-6.09-4.202-13.368-9.798-15.798-4.845-2.102-10.948-1.527-15.555.82z" fill="#704c0f"/><g fill="#5e400d"><path d="m86.343 125.98c-3.473 2.142-5.555 5.891-6.77 9.048.291.089.587.18.893.276 1.172-3.015 3.151-6.566 6.358-8.545 3.002-1.853 6.979-2.91 10.353-3.512-.431-.252-.867-.487-1.313-.681-.008-.004-.016-.006-.024-.01-3.171.644-6.702 1.698-9.497 3.424z"/><path d="m96.762 134.253c-1.319 1.925-3.185 3.531-5.046 4.811.355.129.706.26 1.056.391 1.751-1.269 3.473-2.827 4.745-4.684 1.605-2.342 3.101-5.009 4.304-7.325-.204-.264-.413-.522-.629-.774-1.217 2.365-2.767 5.154-4.43 7.581z"/><path d="m102.831 128.878c-.259 2.515-.722 5.422-1.552 7.762-.668 1.883-1.911 3.557-3.223 4.931.306.134.6.267.892.4 1.297-1.404 2.511-3.099 3.194-5.025.73-2.059 1.184-4.499 1.466-6.751-.239-.45-.503-.887-.777-1.317z"/></g><path d="m249.864 164.767-12.251-4.497-3.167-7.573c-.509-1.218-1.533-2.146-2.795-2.534-1.542-.474-3.219-.076-4.384 1.04l-6.4 6.133-16.758-3.591c-4.915-1.053-9.955-1.406-14.969-1.048l-4.578.326-2.307 15.407 8.342-.317c1.305-.05 2.608-.151 3.905-.305l24.292-2.877 11.911 2.244 18.232 1.685c1.24.115 2.311-.861 2.311-2.107.002-.887-.551-1.68-1.384-1.986z" fill="#f5d3a6"/><path d="m167.714 125.734-24.923-15.844s-3.115 3.495-6.998 7.521l19.516 20.048 2.923-2.485z" fill="#f5d3a6"/><path d="m124.37 127.989c-3.191 2.26-10.39 6.167-16.452 9.32-4.309 2.241-6.883 6.814-6.577 11.661l.047.743c.309 4.888 3.462 9.214 8.102 10.781.491.166.926.279 1.276.319l8.217.95c5.058.585 10.118-1.088 13.83-4.573l6.834-6.416 15.661-13.318-19.516-20.048c-3.804 3.947-8.346 8.403-11.422 10.581z" fill="#7f8b4b"/><path d="m177.007 153.56c4.248-14.39 10.186-43.463 4.848-59.405-1.673-4.997-7.941-6.56-15.191-6.56-1.813 0-3.625.388-5.324.971-5.085 1.743-9.28 5.421-11.986 10.065l-6.562 11.259 16.968 13.266c-.345 3.798-2.062 19.84-2.062 23.293 0 2.349.588 10.769 1.412 16.015.41 2.611 2.123 4.831 4.543 5.894 1.074.472 2.241.694 3.413.649l15.193-.577 2.307-15.407z" fill="#514654"/><path d="m162.357 165.25c-2.98-3.669-.643-55.768-.643-55.768l-1.956 13.674c-.345 3.798-2.062 19.84-2.062 23.293 0 2.349.588 10.769 1.412 16.015.41 2.611 2.123 4.831 4.543 5.894 1.074.472 2.241.694 3.413.649l5.411-.206c-4.307-1.111-7.177.069-10.118-3.551z" fill="#403742"/><path d="m178.75 140.178c-2.732 11.411-4.982 18.322-4.982 18.322l3.239-4.94c2.375-8.046 5.277-20.681 6.443-33.045-1.42 5.947-3.261 13.652-4.7 19.663z" fill="#403742"/><path d="m137.934 150.135-7.469 5.663c-4.058 3.076-9.264 4.21-14.234 3.097l-8.072-1.807c-.343-.077-.765-.235-1.235-.451-2.205-1.013-3.973-2.662-5.174-4.663.988 3.921 3.833 7.2 7.741 8.52.491.166.926.279 1.276.319l8.217.95c5.058.585 10.118-1.088 13.83-4.573l6.834-6.416 10.867-9.241z" fill="#727d43"/><path d="m100.723 144.604-26.068 11.869-16.831 1.295-37.805 4.92-13.182 1.591c-1.049.125-1.837 1.015-1.837 2.07 0 1.152.934 2.086 2.086 2.086h15.004 41.43l29.316-5.863c3.922-.784 7.753-1.974 11.429-3.55l7.106-3.045c2.231-.956 3.678-3.15 3.678-5.577 0-2.17-1.159-4.176-3.04-5.259-3.456-1.989-7.658-2.189-11.286-.537z" fill="#f5d3a6"/></svg>