<svg id="Layer_1_1_" enable-background="new 0 0 256 256" height="512" viewBox="0 0 256 256" width="512" xmlns="http://www.w3.org/2000/svg"><path d="m191.073 123.848s4.994 8.803 4.344 13.825l-.32 2.472-13.696 61.506-2.425-.717c-1.979-.706-3.211-2.681-2.976-4.768l.866-7.686 4.112-20.253-4.673-36.531z" fill="#f0c792"/><path d="m195.519 154.22.826-8.225c.34-3.38-1.097-6.695-3.796-8.759-2.114-1.616-4.794-2.303-7.425-1.902l-8.966 1.366-28.55-.457-24.375 23.681 21.161 2.085c3.36-.056 6.703-.484 9.969-1.275l27.556-8.55-.761 6.877c5.047.043 11.788-3.41 14.361-4.841z" fill="#514654"/><path d="m211.946 202.253-16.179-5.673-3.825-6.75 3.577-35.61c-2.573 1.431-9.314 4.884-14.36 4.842l-.467 4.219 1.54 26.57c.171 2.952-.29 5.907-1.352 8.667-.582 1.511-.426 3.206.421 4.586.945 1.539 2.621 2.477 4.427 2.477h25.651c.945 0 1.711-.766 1.711-1.711.001-.729-.458-1.376-1.144-1.617z" fill="#f5d3a6"/><path d="m192.549 137.236c-2.114-1.616-4.794-2.303-7.425-1.902l-8.966 1.366-28.55-.457-24.375 23.681 8.637.851c5.654-4.453 16.012-11.768 25.022-13.525 13.179-2.572 23.021-6.107 28.867-6.107 3.494 0 7.081 3.376 10.499 5.702l.085-.851c.342-3.38-1.095-6.694-3.794-8.758z" fill="#403742"/><path d="m187.136 116.974-3.627-9.214 1.143-9.266-16.758-4.875-32.714 25.869 13.997 25.122c1.511-1.064 2.864-1.99 3.762-2.546 1.937-1.2 4.234-1.669 6.487-1.325l4.714.719c3.276.5 6.617-.302 9.31-2.233.648-.465 1.252-.991 1.801-1.569l15.822-13.807z" fill="#7f8b4b"/><path d="m172.649 103.209c4.443 2.378 18.863-9.979 18.863-9.979l22.898-17.838c1.132-.882 2.301-1.716 3.504-2.5l17.031-11.098 7.57-1.965c1.087-.282 2.075-.858 2.857-1.664.896-.924.733-2.435-.341-3.146l-1.175-.778 7.676-4.591c.839-.502 1.189-1.539.825-2.447-.398-.994-1.511-1.494-2.519-1.132l-12.193 4.381-6.591 4.958-38.389 23.731c-2.447 1.513-5 2.848-7.639 3.995-1.007.438-2.007.881-2.989 1.372-2.709 1.355-8.586 4.993-12.24 7.292-2.453 1.543-3.68 4.572-2.72 7.306.102.29.224.555.371.781.658 1.014 1.564 1.843 2.632 2.41z" fill="#f5d3a6"/><path d="m191.724 104.632-12.883 4.323c-2.837.952-4.449 3.941-3.686 6.834.844 3.201 4.234 5.005 7.361 3.917l14.041-4.887z" fill="#f0c792"/><path d="m113.451 132.225c-6.45 3.3-39.599 35.399-39.599 35.399l-8.763 2.411c.66 2.273 2.587 8.147 5.606 11.073l1.507-.584s31.049-9.6 41.849-15.45 25.199-13.24 25.199-13.24 1.809-1.349 4.162-3.07l-16.482-23.938c-4.161 2.361-9.797 5.515-13.479 7.399z" fill="#514654"/><path d="m48.364 174.637c-1.905.524-3.749 1.233-5.514 2.122-6.774 3.41-24.419 12.305-27.798 14.115-2.763 1.48-7.084 6.595-9.717 9.922-1.35 1.705-1.295 4.125.124 5.773l.885 1.027c.862 1.001 2.118 1.577 3.439 1.577 1.752 0 3.348-1.009 4.1-2.591l4.469-9.408 24.256-5.513c1.427-.324 2.828-.753 4.192-1.282l23.894-9.27c-3.02-2.926-4.947-8.8-5.606-11.073z" fill="#f5d3a6"/><path d="m132.35 121.726s-2.294 1.327-5.421 3.101l16.482 23.938c1.793-1.312 3.898-2.838 5.765-4.154l-13.997-25.122z" fill="#f5d3a6"/><path d="m221.988 113.436-10.348 8.195c.449 2.545 2.56 4.553 5.172 5.469 3.852 1.352 8.071-.675 9.423-4.527 1.291-3.68-.727-7.607-4.247-9.137z" fill="#704c0f"/><path d="m217.832 124.165c-.009-.003-.017-.006-.026-.009-1.045-.37-1.172-1.801-.247-2.412 2.467-1.63 4.524-3.83 5.603-6.261.16-.36.298-.73.427-1.104-.49-.37-1.023-.691-1.602-.943l-10.348 8.195c.048.272.123.535.209.794.034.105.074.208.113.311.054.135.113.266.176.397.148.312.318.613.515.899.001.002.002.004.003.005.954 1.384 2.44 2.461 4.153 3.062 2.556.898 5.429.213 7.435-1.608 1.521-1.382 2.161-2.917 2.334-4.434-1.779 2.905-5.399 4.282-8.745 3.108z" fill="#5e400d"/><path d="m212.156 92.4c-3.601-.18-7.464.992-7.464.992l-5.281-1.869-1.723 3.509s-4.324.728-6.105 2.057c-2.032 1.516-3.334 5.313-3.917 7.634-.473 1.885-.233 3.704.399 5.435.818 2.24 2.292 4.333 3.724 6.228 1.526 2.019 4.274 3.078 6.573 3.9.749.268 1.524.514 2.314.737 4.252-3.736 11.48-28.623 11.48-28.623z" fill="#f5d3a6"/><path d="m221.503 98.429c-1.391-2.785-4.753-5.309-7.832-5.862-.492-.088-1.001-.142-1.515-.167 0 0-7.228 24.887-11.48 28.624 2.139.605 4.389 1.028 6.54 1.152 5.729.33 12.612-3.855 14.941-9.103 2.016-4.543 1.521-10.291-.654-14.644z" fill="#704c0f"/><g fill="#5e400d"><path d="m219.015 104.088c-1.99-3.284-5.503-5.272-8.464-6.439-.086.273-.174.551-.266.838 2.829 1.126 6.155 3.015 7.993 6.047 1.721 2.839 2.686 6.59 3.227 9.769.241-.403.465-.812.651-1.231.003-.008.006-.015.009-.023-.581-2.986-1.547-6.317-3.15-8.961z"/><path d="m211.151 113.832c-1.802-1.256-3.299-3.024-4.49-4.785-.124.333-.25.662-.376.991 1.181 1.657 2.634 3.289 4.372 4.5 2.192 1.528 4.691 2.956 6.862 4.105.25-.19.495-.385.733-.586-2.216-1.162-4.829-2.642-7.101-4.225z"/><path d="m216.164 119.584c-2.365-.263-5.098-.72-7.293-1.519-1.767-.643-3.333-1.826-4.616-3.07-.128.287-.255.563-.383.837 1.312 1.231 2.898 2.386 4.705 3.044 1.932.703 4.225 1.148 6.342 1.431.425-.224.838-.468 1.245-.723z"/></g></svg>