<svg id="Layer_1_1_" enable-background="new 0 0 256 256" height="512" viewBox="0 0 256 256" width="512" xmlns="http://www.w3.org/2000/svg"><path d="m192.865 124.391-26.304-13.234h-75.571l-26.304 13.234-13.104 10.957 10.764 13.03c.707-.729 1.407-1.465 2.08-2.229l2.371-2.573 9.606-.939 19.642-2.789 13.04-1.106c5.353-.454 10.656-1.376 15.849-2.756l3.355-.892s9.512 2.233 17.561 3.514 15.654 1.239 15.654 1.239l19.642 2.789 9.585.937 2.392 2.574c.444.503.913.981 1.371 1.469l11.477-12.528z" fill="#514654"/><path d="m184.857 139.536c-8.036.482-44.036-4.5-53.357-7.071-9.321-2.572-12.375 1.446-40.339 5.303s-28.607 4.339-28.607 4.339l4.245 1.47 9.606-.939 19.642-2.789 13.04-1.106c5.353-.454 10.656-1.376 15.849-2.756l3.355-.892s9.512 2.233 17.561 3.514 15.654 1.239 15.654 1.239l19.642 2.789 9.585.937 4.429-2.272c0 .001-2.269-2.249-10.305-1.766z" fill="#403742"/><path d="m145.082 90.427h-32.613s-2.399 1.008-5.119 2.279l.817 29.499 10.976 6.16h19.94l10.215-6.392.956-29.243c-2.721-1.27-5.172-2.303-5.172-2.303z" fill="#7f8b4b"/><path d="m119.228 101.691v7.574c0 4.389 3.019 8.201 7.292 9.206 1.425.335 2.908.335 4.332 0 4.272-1.005 7.291-4.817 7.291-9.206v-7.574z" fill="#f0c792"/><path d="m128.685 49.862c-6.074 0-10.999 4.924-10.999 10.999 0 .877.293 1.568.487 2.385l21.073.043c.168-.76.437-1.617.437-2.428.001-6.075-4.923-10.999-10.998-10.999z" fill="#704c0f"/><g fill="#f5d3a6"><path d="m127.558 80.437c-4.26-.152-13.787 1.342-16.877 1.849.755 11.397 8.524 24.926 18.004 24.926 9.132 0 16.678-12.557 17.894-23.667-3.396-.695-14.692-2.953-19.021-3.108z"/><path d="m27.468 155.512c-2.639-5.837-6.438-14.348-6.319-14.707.108-.324.089-5.251.054-9.225-.023-2.664-2.401-4.688-5.035-4.289-.694.105-1.352.375-1.92.788l-5.802 4.22c-.889.647-1.503 1.604-1.718 2.683l-1.483 7.412c-.128.64-.111 1.3.049 1.933l3.598 14.222.759 11.081c.1 1.456.77 2.813 1.866 3.777 1.724 1.517 4.206 1.812 6.238.742l13.638-7.186 9.553-3.987c8.062-3.364 15.334-8.342 21.401-14.599l-10.764-13.03z"/><path d="m252.306 142.394-1.483-7.412c-.216-1.078-.829-2.036-1.718-2.683l-5.802-4.22c-.568-.413-1.226-.683-1.92-.788-2.634-.399-5.012 1.625-5.035 4.289-.034 3.974-.054 8.901.054 9.225.116.348-3.452 8.359-6.075 14.167l-24.355-19.881-11.477 12.528c6.206 6.611 13.727 11.86 22.109 15.358l9.553 3.987 13.638 7.186c2.032 1.07 4.513.775 6.238-.742 1.095-.964 1.766-2.322 1.866-3.777l.759-11.081 3.598-14.222c.162-.634.178-1.294.05-1.934z"/></g><path d="m117.811 61.851c.103.463.248.908.363 1.395l21.073.043c.1-.452.23-.939.323-1.429-3.129-2.404-6.867-3.806-10.885-3.806-4.014-.001-7.747 1.399-10.874 3.797z" fill="#5e400d"/><path d="m127.558 80.437c4.329.155 15.624 2.412 19.021 3.108.113-1.031.176-2.05.176-3.044 0-11.715-8.09-21.212-18.069-21.212s-18.069 9.497-18.069 21.212c0 .587.026 1.184.066 1.785 3.088-.507 12.616-2.001 16.875-1.849z" fill="#704c0f"/><path d="m125.239 59.686c-.532.121-1.052.275-1.566.449-1.938 2.708-6.551 9.547-6.814 13.637-.143 2.222.195 5.031.622 7.499.329-.044.663-.087.998-.13-.422-2.427-.759-5.179-.622-7.305.292-4.546 6.703-13.241 7.382-14.15z" fill="#5e400d"/><path d="m137.917 81.878c.359-3.491.418-7.489-.301-11.38-.944-5.117-2.459-8.339-3.792-10.325-.527-.184-1.063-.345-1.609-.472 1.376 1.674 3.306 4.955 4.418 10.979.695 3.763.642 7.633.298 11.024.331.058.658.116.986.174z" fill="#5e400d"/><path d="m142.454 72.827c-.611-3.666-1.524-6.585-2.455-8.852-.559-.528-1.15-1.007-1.76-1.455 1.163 2.365 2.451 5.804 3.229 10.471.673 4.032 1.065 7.3 1.297 9.793.356.069.694.135 1.022.2-.231-2.553-.63-5.944-1.333-10.157z" fill="#5e400d"/><path d="m150.254 92.731-2.881 18.119c-.204 3.367.297 6.74 1.472 9.903 1.866 5.024 4.604 9.679 8.088 13.751l6.729 7.865c1.997 2.334 3.372 5.136 3.996 8.144l3.243 15.624 8.101 28.842c.038.731-.489 1.371-1.214 1.474l-7.598 1.085c-.687.098-1.17.764-1.001 1.482.121.513.606.861 1.13.919l5.103.567c.048.005.074.06.047.1l-.765 1.148c-.913 1.369-.045 3.219 1.592 3.391l11.531.99c.294.031.591.002.873-.085l4.916-1.513c1.661-.511 2.093-2.661.758-3.774l-4.83-4.025c-.355-.296-.552-.74-.531-1.202l-5.559-43.501c-.851-6.661-3.261-13.028-7.034-18.583l-7.265-10.697-1.073-5.654c-1.247-7.015-4.292-13.587-8.838-19.073-1.219-1.472-5.414-3.626-8.99-5.297z" fill="#f5d3a6"/><path d="m107.351 92.706 2.828 18.144c.204 3.367-.297 6.74-1.472 9.903-1.866 5.024-4.604 9.679-8.088 13.751l-6.729 7.865c-1.997 2.334-3.372 5.136-3.996 8.144l-3.243 15.624-8.101 28.842c-.038.731.489 1.371 1.214 1.474l7.598 1.085c.687.098 1.17.764 1.001 1.482-.121.513-.606.861-1.13.919l-5.103.567c-.048.005-.074.06-.047.1l.765 1.148c.913 1.369.045 3.219-1.592 3.391l-11.531.99c-.294.031-.591.002-.873-.085l-4.916-1.513c-1.661-.511-2.093-2.661-.758-3.774l4.83-4.025c.355-.296.552-.74.531-1.202l5.559-43.501c.851-6.661 3.261-13.028 7.034-18.583l7.265-10.697 1.073-5.654c1.247-7.015 4.292-13.587 8.838-19.073 1.219-1.472 5.466-3.651 9.043-5.322z" fill="#f5d3a6"/><path d="m34.652 149.504-7.184 6.008 2.461 4.274z" fill="#f0c792"/><path d="m229.214 158.071 1.114-3.099-6.158-5.027z" fill="#f0c792"/></svg>