<svg id="Layer_1_1_" enable-background="new 0 0 256 256" height="512" viewBox="0 0 256 256" width="512" xmlns="http://www.w3.org/2000/svg"><path d="m155.375 238.821-.779-2.244c-1.747-5.034-4.12-9.83-7.063-14.272l-16-24.155c-.691-1.043-1.662-1.868-2.803-2.381l-1.482-.666c-3.092-1.391-6.736-.22-8.439 2.713-1.058 1.822-1.185 4.04-.342 5.971 1.315 3.013 3.008 5.848 5.037 8.435l17.883 22.802-18.922.762c-.403.016-.778-.201-.964-.559l-2.507-4.816c-.188-.361-.568-.579-.974-.558l-3.805.191c-.553.028-.988.485-.988 1.039v6.015c0 .336.162.651.435.846l4.834 3.453c.125.089.268.15.42.177l27.29 4.926c.712.128 1.442.109 2.146-.057l3.26-.771c1.964-.464 3.49-2.011 3.928-3.981.213-.954.155-1.948-.165-2.87z" fill="#f0c792"/><path d="m133.9 77.266c-.806-3.104-1.12-6.312-.92-9.513l-.063-29.089 5.981-28.531c.746-1.56.318-3.428-1.032-4.508-1.683-1.346-4.154-.985-5.38.787l-2.931 8.852c-.861 2.599-2.034 5.084-3.493 7.401l-3.349 5.315c-1.043 1.656-1.215 3.716-.459 5.522l2.357 5.63c.306.688.365 1.453.165 2.179-1.294 4.677-6.191 22.933-6.191 31.396 0 3.384.261 5.981.602 7.935l15.299-1.076c-.206-.818-.404-1.6-.586-2.3z" fill="#f5d3a6"/><path d="m134.486 79.566-15.299 1.076c.199 1.143.426 2.068.643 2.796.504 1.685-8.686 45.132-10.679 50.086-1.702 4.228-3.188 9.861-1.402 14.03 3.251 7.585 5.931 12.323 5.931 12.323l24.408.25s-1.084-16.908-1.084-19.075 2.167-21.754 2.167-33.673c.001-7.773-2.762-20.14-4.685-27.813z" fill="#514654"/><path d="m138.089 160.127-24.408-.25s1.4 4.851 1.924 9.54h22.657z" fill="#f5d3a6"/><path d="m140.942 195.023-1.954-10.222c-.325-1.698-.504-3.42-.536-5.148l-.19-10.236h-22.657c.251 2.25.301 4.462-.104 6.083-.469 1.875-1.5 4.559-2.606 7.181-2.514 5.961-3.687 12.403-3.338 18.864l.004.076c.283 5.24 2.464 10.198 6.134 13.948.277.284.57.545.87.797l16.378-.632c1.218-1.138 2.227-2.499 2.948-4.032l4.027-8.557c1.19-2.532 1.549-5.375 1.024-8.122z" fill="#7f8b4b"/><path d="m107.42 240.354-1.016-12.758c-2.292-1.012-5.049-.395-7.197 1.214-3.168 2.373-3.812 6.866-1.439 10.034 2.267 3.026 6.519 3.52 9.652 1.51z" fill="#704c0f"/><path d="m101.02 231.216c.007-.005.014-.01.021-.016.863-.642 2.083.028 2.076 1.103-.018 2.867.643 5.711 2.019 7.893.204.323.427.634.659.94.562-.195 1.109-.451 1.624-.781l-1.016-12.758c-.245-.108-.498-.19-.752-.26-.103-.029-.207-.053-.311-.076-.137-.03-.276-.053-.415-.072-.331-.049-.665-.075-1.003-.07-.002 0-.004 0-.006 0-1.629.022-3.299.637-4.708 1.692-2.103 1.575-3.102 4.258-2.717 6.857.292 1.971 1.183 3.315 2.312 4.273-1.379-3.004-.535-6.664 2.217-8.725z" fill="#5e400d"/><path d="m129.672 243.788c2.088-2.803 3.229-6.548 3.229-6.548l4.355-3.245-1.897-3.281s1.747-3.876 1.638-6.028c-.124-2.455-2.48-5.553-4.036-7.276-1.263-1.399-2.858-2.187-4.593-2.612-2.246-.55-4.727-.492-7.027-.361-2.45.139-4.786 1.782-6.689 3.19-.62.459-1.237.951-1.843 1.466.716 5.441 16.862 24.695 16.863 24.695z" fill="#f0c792"/><path d="m119.77 248.063c2.995.383 6.842-.964 8.949-3.145.336-.348.654-.73.952-1.13 0 0-16.147-19.254-16.862-24.696-1.642 1.397-3.197 2.981-4.458 4.646-3.358 4.437-3.702 12.24-.731 16.948 2.573 4.076 7.47 6.779 12.15 7.377z" fill="#704c0f"/><g fill="#5e400d"><path d="m116.554 243.005c3.72.169 7.217-1.587 9.755-3.343-.173-.217-.35-.438-.532-.667-2.434 1.671-5.75 3.332-9.185 3.175-3.216-.146-6.758-1.393-9.611-2.673.195.412.403.813.64 1.189.004.007.009.013.013.02 2.721 1.143 5.926 2.163 8.92 2.299z"/><path d="m112.949 231.411c1.984-.774 4.217-1.025 6.277-1.034-.201-.28-.398-.559-.596-.838-1.972.057-4.071.347-5.985 1.093-2.413.941-4.913 2.183-7.01 3.312.018.304.043.606.077.907 2.134-1.158 4.736-2.465 7.237-3.44z"/><path d="m105.611 232.345c1.488-1.763 3.331-3.718 5.159-5.055 1.471-1.077 3.27-1.7 4.965-2.062-.162-.258-.316-.51-.467-.76-1.699.392-3.486 1.046-4.991 2.147-1.609 1.177-3.205 2.784-4.576 4.337-.05.463-.076.928-.09 1.393z"/></g><path d="m122.375 197.933-1.757-.79c-3.668-1.65-7.989-.261-10.009 3.217-.456.786-.763 1.635-.925 2.506.537 4.775 2.633 9.252 6.01 12.702.277.284.57.545.87.797l16.378-.632c.562-.525 1.074-1.102 1.539-1.717l-8.782-13.259c-.819-1.236-1.971-2.215-3.324-2.824z" fill="#727d43"/><path d="m149.279 244.894-.749-2.157c-1.68-4.841-3.962-9.452-6.792-13.724l-15.385-23.227c-.664-1.003-1.598-1.796-2.695-2.29l-1.425-.641c-2.974-1.338-6.477-.211-8.115 2.608-1.018 1.752-1.14 3.885-.329 5.742 1.265 2.898 2.892 5.623 4.844 8.111l17.196 21.926-18.195.733c-.387.016-.748-.194-.927-.537l-2.411-4.631c-.181-.347-.547-.557-.937-.537l-3.659.183c-.532.027-.95.466-.95.999v5.784c0 .323.156.626.419.814l4.649 3.32c.12.086.258.144.404.17l26.241 4.737c.684.124 1.387.105 2.064-.055l3.135-.741c1.889-.447 3.356-1.934 3.777-3.828.203-.918.148-1.873-.16-2.759z" fill="#f5d3a6"/></svg>