<svg id="Layer_1_1_" enable-background="new 0 0 256 256" height="512" viewBox="0 0 256 256" width="512" xmlns="http://www.w3.org/2000/svg"><path d="m63.781 63.547-2 30.229 22.109-2.806 3.21-15.619z" fill="#f0c792"/><path d="m66.528 14.007-13.572 20.834c-4.852-.4-8.984-4.01-11.158-8.75-3.205-6.99-.137-15.256 6.853-18.461 6.678-3.061 14.394.04 17.877 6.377z" fill="#704c0f"/><path d="m47.126 23.668c.007.015.014.031.021.046.876 1.896 3.581 1.885 4.567.043 2.629-4.91 6.397-9.152 10.769-11.598.648-.362 1.318-.686 1.997-.993.778.854 1.475 1.799 2.047 2.841l-13.571 20.834c-.519-.043-1.026-.137-1.526-.253-.203-.046-.402-.102-.602-.159-.262-.077-.519-.166-.775-.261-.611-.223-1.204-.49-1.777-.81-.003-.002-.007-.003-.011-.005-2.761-1.549-5.039-4.148-6.466-7.256-2.129-4.639-1.344-10.146 1.724-14.225 2.327-3.094 5.095-4.561 7.911-5.148-5.139 3.843-7.093 10.873-4.308 16.944z" fill="#5e400d"/><path d="m107.694 28.791c.964 6.723-.563 14.173-.563 14.173l4.423 9.58-6.282 3.841s-.614 8.237-2.797 11.809c-2.49 4.075-9.385 7.177-13.638 8.675-3.453 1.216-6.907 1.081-10.264.197-4.345-1.144-8.526-3.546-12.329-5.902-4.053-2.511-6.517-7.482-8.458-11.65-.632-1.358-1.229-2.77-1.786-4.213 6.27-8.626 51.694-26.51 51.694-26.51z" fill="#f5d3a6"/><path d="m94.761 12.307c5.466 2.125 10.785 7.993 12.356 13.671.251.907.44 1.852.577 2.813-.001 0-45.424 17.884-51.694 26.51-1.507-3.908-2.692-8.054-3.298-12.066-1.614-10.689 5.037-24.327 14.476-29.608 8.172-4.571 19.039-4.641 27.583-1.32z" fill="#704c0f"/><g fill="#5e400d"><path d="m84.577 17.958c6.506 3.162 10.846 9.404 13.549 14.756-.497.209-1.003.423-1.526.645-2.604-5.11-6.724-11.022-12.733-13.942-5.624-2.734-12.828-3.893-18.885-4.355.715-.522 1.442-1.014 2.196-1.435.013-.008.028-.014.041-.021 5.706.573 12.121 1.806 17.358 4.352z"/><path d="m67.668 34.403c2.668 3.161 6.246 5.662 9.755 7.589-.602.291-1.199.584-1.794.877-3.313-1.927-6.628-4.37-9.201-7.418-3.246-3.846-6.361-8.285-8.894-12.156.313-.503.636-.995.972-1.477 2.568 3.955 5.798 8.599 9.162 12.585z"/><path d="m56.009 25.999c.904 4.39 2.237 9.436 4.116 13.416 1.513 3.203 4.004 5.935 6.562 8.125-.515.29-1.012.577-1.503.863-2.537-2.246-4.98-5.021-6.527-8.295-1.654-3.502-2.887-7.726-3.786-11.648.343-.835.73-1.653 1.138-2.461z"/></g><path d="m110.116 172.032 9.584-46.14c-.446-5.029-2.983-9.639-6.992-12.707l-23.64-18.091c-6.614-3.842-13.458-7.397-21.391-6.668-10.891 1.001-14 14.395-13.913 23.479.1 10.499 3.792 20.595 6.534 30.605 2.954 10.784 3.969 21.982 3.025 33.081 6.25.804 26.456 2.647 46.793-3.559z" fill="#7f8b4b"/><path d="m208.27 231.427c-1.328-6.014-4.685-11.389-9.506-15.221-6.217-4.941-13.669-8.084-21.547-9.085l-43.624-5.546c-3.053-.382-6.139-.421-9.2-.115l-13.215 1.322-.877-14.514-3.868-.13c-14.657-.744-29.225 2.67-42.025 9.848l-4.655 1.839c-.839 6.049-1.42 11.454-1.42 14.84 0 12.333 5.052 25.857 6.026 27.429l119.772 8.405s10.226-.786 14.85-2.327c.05-.017.101-.034.151-.051 6.844-2.353 10.699-9.626 9.138-16.694z" fill="#514654"/><path d="m110.116 172.032c-20.337 6.206-40.544 4.362-46.795 3.559-.226 2.654-.561 5.303-1.011 7.938-.911 5.333-1.831 11.056-2.558 16.296l4.655-1.839c12.8-7.178 27.369-10.592 42.025-9.848l3.868.13-.8-13.268z" fill="#f5d3a6"/><path d="m109.004 210.314c25.327-3.93 54.148-4.367 60.699-1.31 5.063 2.363 28.105 21.232 38.311 29.682.673-2.301.802-4.79.257-7.259-1.328-6.014-4.685-11.388-9.506-15.221-6.217-4.941-13.669-8.084-21.547-9.085l-43.624-5.546c-3.053-.382-6.139-.421-9.2-.115l-13.215 1.322s-21.744 2.292-26.151 5.785-1.351 5.678 23.976 1.747z" fill="#403742"/><path d="m122 232s30-9 40-9h7.565l9.745-.458s-10.48-3.93-15.284-3.93c-4.803 0-36.681 10.044-40.175 8.734-1.821-.683-5.896-1.484-9.38-2.095z" fill="#403742"/><path d="m66.152 234.357c-4.438-3.945-6.678-12.584-7.811-20.088-.002.129-.008.274-.008.398 0 12.333 5.052 25.857 6.026 27.429l47.207 3.313c-15.29-1.986-39.579-5.865-45.414-11.052z" fill="#403742"/><path d="m184.131 250.5h-125.231c-1.878 0-3.4-1.522-3.4-3.4 0-1.535 1.028-2.879 2.509-3.281l32.491-8.819 8.288-10.47c.799-1.009 1.798-1.843 2.934-2.449 3.469-1.85 7.725-1.335 10.653 1.29l9.625 8.629s30-9 40-9h7.565s13.065 11.398 14.239 17.304c1.267 6.375.327 10.196.327 10.196z" fill="#f5d3a6"/><path d="m117.088 138.468-35.99-43.374c-1.686-2.032-3.843-3.622-6.283-4.632l-2.539-1.051c-1.21-.501-2.461-.842-3.725-1.037-.291.015-.58.025-.874.052-10.891 1.001-14 14.395-13.913 23.479.016 1.718.137 3.425.326 5.123.626.67 1.308 1.296 2.052 1.861l56.172 42.568z" fill="#727d43"/><path d="m125.5 139-36.432-43.906c-1.686-2.032-3.843-3.622-6.283-4.632l-2.539-1.051c-5.134-2.125-10.999-1.474-15.543 1.723-3.931 2.766-6.433 7.133-6.832 11.923l-.129 1.55c-.461 5.537 1.942 10.925 6.37 14.28l56.888 43.113 1.58 2.408c5.877 8.955 13.621 16.534 22.701 22.216l28.968 18.126 10.751 10.25 21.417 16.181c.703.531 1.56.819 2.441.819 2.908 0 4.868-2.973 3.723-5.645l-5.081-11.855-27-21.5-31-34z" fill="#f5d3a6"/></svg>