<svg id="Layer_1_1_" enable-background="new 0 0 256 256" height="512" viewBox="0 0 256 256" width="512" xmlns="http://www.w3.org/2000/svg"><path d="m72.361 220.963-5.89 16.414 14.585 4.558 2.184-18.252z" fill="#f0c792"/><path d="m27.621 200.807c6.093-1.593 13.118-.968 13.118-.968l8.363-5.081 4.198 5.385s7.654-.298 11.175 1.338c4.016 1.867 7.598 7.895 9.424 11.657 1.482 3.055 1.721 6.251 1.259 9.437-.599 4.123-2.373 8.228-4.145 11.98-1.889 3.998-6.211 6.79-9.848 9.016-1.185.725-2.423 1.423-3.694 2.087-8.605-4.872-29.849-44.85-29.85-44.851z" fill="#f5d3a6"/><path d="m13.79 214.454c1.385-5.26 6.233-10.776 11.301-12.82.809-.326 1.661-.599 2.531-.827 0 .001 21.245 39.979 29.85 44.851-3.443 1.798-7.139 3.325-10.772 4.304-9.68 2.609-22.944-2.089-28.8-10.232-5.07-7.049-6.274-17.055-4.11-25.276z" fill="#704c0f"/><g fill="#5e400d"><path d="m20.065 223.244c2.231-6.327 7.528-10.981 12.175-14.033.245.436.495.88.754 1.338-4.435 2.935-9.45 7.352-11.511 13.195-1.929 5.469-2.241 12.228-2.031 17.858-.556-.604-1.085-1.223-1.553-1.873-.008-.012-.016-.024-.024-.036-.069-5.316.393-11.356 2.19-16.449z"/><path d="m36.992 237.1c2.632-2.79 4.562-6.349 5.97-9.785.332.524.664 1.043.996 1.561-1.428 3.255-3.331 6.565-5.87 9.257-3.203 3.395-6.967 6.73-10.268 9.47-.496-.235-.983-.482-1.463-.741 3.375-2.781 7.315-6.244 10.635-9.762z"/><path d="m30.472 248.724c3.95-1.294 8.46-3.051 11.93-5.2 2.792-1.73 5.049-4.312 6.798-6.899.321.444.638.872.953 1.294-1.804 2.573-4.104 5.115-6.959 6.884-3.054 1.892-6.816 3.471-10.335 4.711-.806-.228-1.6-.499-2.387-.79z"/></g><path d="m147.321 202.585-21.394-7.273c-9.263-2.724-19.267-.973-27.053 4.737l-13.312 12.644c-2.072 1.968-3.419 4.578-3.824 7.407l-2.019 14.136c-.295 2.065-.076 4.171.636 6.132 1.824 5.015 6.59 8.354 11.927 8.354h69.432l-.408-39.722z" fill="#7f8b4b"/><path d="m91.865 242.272c-5.29-.709-9.57-4.651-10.712-9.865-.446-2.038-.383-4.154.184-6.162l3.662-12.971c-1.75 1.888-2.895 4.265-3.261 6.826l-2.019 14.136c-.295 2.065-.076 4.171.636 6.132 1.824 5.015 6.59 8.354 11.927 8.354h47.7z" fill="#727d43"/><path d="m152.477 248.722h.783l-.161-5.857z" fill="#727d43"/><path d="m176.508 209.863-15.202-.863.408 39.722h16.597z" fill="#f0c792"/><path d="m223 99c-.614-4.468-6.5-43-6.5-43l6.569-5.532c1.858-1.565 2.931-3.87 2.931-6.299 0-2.039-.757-4.006-2.124-5.52l-11.876-13.149v-12.422c0-.384-.057-.765-.17-1.131l-1.131-3.675c-.428-1.393-1.607-2.423-3.044-2.663-2.04-.34-3.984.995-4.4 3.021-2.153 10.497-2.434 21.292-.828 31.887l2.573 16.983-5 45.5-1.432 5.729 23.789 2.585c.523-5.888.849-10.818.643-12.314z" fill="#f5d3a6"/><path d="m222 182-2.5-43.5s1.819-15.491 2.857-27.185l-23.789-2.585-6.068 24.27s-5 33-6 44.5c-.604 6.948.799 21.738 2.005 32.363h-11.997l1.803 38.859 30.083-.731c5.26-.128 10.202-2.542 13.536-6.612 3.521-3.235 5.531-8.122 5.531-13.046z" fill="#514654"/><path d="m155.677 248.144-62.522 1.003c-3.928.255-7.719-1.488-10.082-4.635-3.402-4.529-3.058-10.848.815-14.982l1.607-1.715c2.346-2.504 5.676-3.848 9.103-3.674l74.402 10.359 36 1 35.063 12.175c.561.195.937.723.937 1.317 0 .77-.624 1.394-1.394 1.394h-28.606l-17.5-2.886z" fill="#f5d3a6"/><path d="m190.554 223.455c4.329.866 10.823-.344 5.628-13.592-2.626-6.696-6.466-15.091-9.625-21.761.372 6.94 1.198 15.155 1.948 21.761 0 0-2.28 12.726 2.049 13.592z" fill="#403742"/><path d="m240.063 247.675-3.473-1.206h-24.292l-17.5-2.886-37.823.644-62.523 1.003c-3.927.255-7.719-1.488-10.082-4.635-1.917-2.552-2.644-5.673-2.221-8.651-2.134 3.931-1.87 8.851.922 12.568 2.364 3.147 6.155 4.89 10.082 4.635l62.523-1.003 37.824-.644 17.5 2.886h28.606c.77 0 1.394-.624 1.394-1.394 0-.594-.376-1.123-.937-1.317z" fill="#f0c792"/></svg>