<svg id="Layer_1_1_" enable-background="new 0 0 256 256" height="512" viewBox="0 0 256 256" width="512" xmlns="http://www.w3.org/2000/svg"><path d="m100.707 137.012c-10.867 1.553-18.438 2.587-23.643 3.272-6.854.902-13.818.03-20.24-2.527l-3.354-1.335c-3.195-1.272-5.83-3.643-7.431-6.686-.418-.794-.913-2.811-1.338-4.822-.949-4.502.374-10.179 2.227-14.287 2.693-5.967 9.236-7.481 15.339-5.773.002.001 20.537 5.749 20.537 5.749z" fill="#7f8b4b"/><path d="m82.803 110.603s-20.535-5.748-20.537-5.749c-.239-.067-.48-.12-.72-.177-.35.369-.681.758-.966 1.191-1.528 2.316-2.936 4.705-4.261 7.138l12.339 11.278c1.445-2.92 2.773-5.638 3.389-6.903 3.19 4.374 8.391 11.265 13.191 16.545 1.492 1.641 3.292 3.15 5.26 4.528 3.03-.423 6.415-.901 10.209-1.443z" fill="#727d43"/><path d="m170.119 153.385-29.055-10.738c-3.78-1.397-6.747-4.395-8.106-8.188l-1.401-3.913-26.38 12.388c14.309 14.878 39.237 21.392 47.908 23.283 1.889.412 3.811.628 5.744.658l13.574.212 4.57.026v-13.868z" fill="#514654"/><path d="m251.524 166.488-1.548-1.301c-2.246-1.887-5.085-2.921-8.019-2.921h-5.609l-2.346-3.52c-.779-1.168-1.947-2.021-3.297-2.406-2.008-.573-4.169-.046-5.687 1.387l-2.119 2.001-22.124-5.43c-3.843-.943-7.792-1.38-11.749-1.299l-12.054.246v13.868l40.852.228 32.78 1.501c.299.014.593-.073.837-.247.71-.506.751-1.546.083-2.107z" fill="#f5d3a6"/><path d="m130.585 146.933c3.003-1.798 5.927-4.036 6.921-6.265-2.057-1.577-3.656-3.715-4.549-6.209l-1.401-3.913-26.38 12.388c.47.489.953.967 1.445 1.438.079.076.162.148.242.224.426.402.857.799 1.298 1.188.049.043.1.085.149.128.482.423.973.839 1.471 1.247.009.007.017.014.026.021.535.438 1.079.866 1.631 1.286 14.438 11.002 34.137 16.113 41.647 17.75 1.889.412 3.811.628 5.744.658l8.011.126c-4.73-1.678-9.346-3.356-10.262-3.556-4.906-1.07-15.013-3.625-25.457-8.335-3.395-1.53-3.731-6.263-.536-8.176z" fill="#403742"/><path d="m54.068 120.905-13.617 33.241-13.928 6.237 20.467-2.001.82-1.444s16.494-21.315 19.031-26.137c1.093-2.077 2.724-5.335 4.227-8.373l-12.338-11.278c-1.724 3.166-3.293 6.415-4.662 9.755z" fill="#f0c792"/><path d="m128.862 123.303c-.224-.306-.462-.614-.712-.924-3.098-3.832-7.382-7.932-12.334-9.087-4.933-1.151-11.647-.594-15.765-.059-8.336-4.101-21.458-10.176-26.146-12.338-1.143-.527-2.384-.799-3.643-.799-2.927 0-5.659 1.47-7.271 3.914-1.528 2.316-2.936 4.705-4.261 7.138l12.339 11.278c1.445-2.92 2.773-5.638 3.389-6.903 3.19 4.374 8.391 11.265 13.191 16.545 7.613 8.374 23.091 13.449 29.435 13.956.85.068 1.715.025 2.585-.109 10.437-1.608 15.437-14.095 9.193-22.612z" fill="#514654"/><path d="m38.67 110.367-.67 9.323 6.67 3.311c1.753.87 3.857-.145 4.267-2.059l1.421-6.63z" fill="#f0c792"/><path d="m15.501 94.801 14.074.59c1.411-2.37 1.105-5.463-.367-8.025-2.171-3.778-6.993-5.08-10.77-2.909-3.608 2.074-4.715 6.654-2.937 10.344z" fill="#704c0f"/><path d="m26.338 89.027c.005.008.01.017.014.025.587 1.028-.308 2.272-1.482 2.121-3.13-.402-6.326-.059-8.892 1.154-.38.18-.75.382-1.115.595.138.64.345 1.272.637 1.879l14.074.59c.151-.254.274-.518.385-.787.045-.109.085-.219.125-.33.051-.146.094-.294.134-.443.098-.355.17-.717.211-1.086 0-.002.001-.004.001-.007.193-1.783-.257-3.689-1.221-5.369-1.44-2.508-4.239-3.956-7.129-3.882-2.193.056-3.78.851-4.977 1.957 3.465-1.108 7.35.302 9.235 3.583z" fill="#5e400d"/><path d="m8.783 118.654c2.785 2.655 6.723 4.401 6.723 4.401l2.965 5.191 3.838-1.635s4.002 2.425 6.368 2.593c2.699.191 6.397-1.969 8.487-3.439 1.696-1.193 2.77-2.831 3.466-4.67.901-2.381 1.168-5.099 1.332-7.629.174-2.696-1.309-5.467-2.593-7.733-.418-.738-.874-1.478-1.356-2.209-6.041.056-29.229 15.13-29.23 15.13z" fill="#f5d3a6"/><path d="m5.432 107.267c-.817 3.221.141 7.604 2.243 10.196.336.414.71.812 1.108 1.191 0 0 23.189-15.074 29.23-15.13-1.307-1.98-2.83-3.89-4.482-5.489-4.4-4.26-12.879-5.676-18.419-3.058-4.796 2.266-8.402 7.256-9.68 12.29z" fill="#704c0f"/><g fill="#5e400d"><path d="m11.388 104.427c-.681 4.041.772 8.096 2.352 11.103.26-.161.525-.324.799-.492-1.501-2.882-2.873-6.727-2.245-10.459.588-3.494 2.422-7.198 4.202-10.144-.476.158-.942.332-1.384.541-.008.004-.015.008-.023.012-1.612 2.821-3.153 6.186-3.701 9.439z"/><path d="m24.535 102.035c.581 2.27.558 4.744.293 6.996.332-.182.664-.361.994-.539.201-2.162.164-4.494-.396-6.684-.707-2.762-1.73-5.659-2.683-8.101-.335-.021-.668-.034-1.001-.037.981 2.485 2.061 5.502 2.793 8.365z"/><path d="m24.493 93.892c1.728 1.861 3.618 4.135 4.835 6.311.98 1.751 1.421 3.799 1.59 5.699.303-.142.599-.277.893-.409-.202-1.909-.679-3.948-1.681-5.739-1.072-1.915-2.615-3.873-4.128-5.577-.498-.116-1.003-.207-1.509-.285z"/></g><path d="m66.366 131.633-3.735-20.483c-.551-3.019-3.066-5.289-6.126-5.527-1.469-.114-2.966.094-4.291.739-3.599 1.751-5.281 5.7-4.301 9.35l3.281 12.21 4 19.327-.255 10.354-34.703 3.393-14.652 4.539c-.555.172-.959.652-1.034 1.229-.115.889.577 1.676 1.473 1.676h48.138l9.043-2.03c.001.001 4.125-16.267 3.162-34.777z" fill="#f5d3a6"/><path d="m107.587 112.632c-2.795.064-5.487.335-7.537.602l16.021 10.713z" fill="#403742"/><path d="m97.655 139.501c-1.185-1.334-2.789-2.78-4.887-4.144-6.429-4.179-16.393-24.99-16.393-24.99l-1.917 5.158c3.19 4.374 8.391 11.265 13.191 16.545 2.629 2.891 6.201 5.378 10.006 7.431z" fill="#403742"/></svg>