<svg id="Layer_1_1_" enable-background="new 0 0 256 256" height="512" viewBox="0 0 256 256" width="512" xmlns="http://www.w3.org/2000/svg"><path d="m111.25 59.5-20.381 3.536 11.324 20.029c1.532 2.072 4.388 2.64 6.597 1.312l8.074-4.855c2.674-1.608 3.238-5.246 1.177-7.588z" fill="#f0c792"/><path d="m129.288 158.66 9.033 30.471 4.968 20.14 6.57 22.856.154 2.266c.457 6.708-4.861 12.401-11.584 12.401h-42.724c-2.309 0-4.18-1.872-4.18-4.18 0-1.866 1.237-3.507 3.032-4.019l35.968-9.134-29.083-68.357-4.179-16.16 24.751-6.779z" fill="#e6be8c"/><path d="m103.096 161.2 9.033 30.471 4.968 20.14 6.57 22.856.155 2.266c.457 6.708-4.861 12.401-11.584 12.401h-42.724c-2.309 0-4.18-1.872-4.18-4.18 0-1.866 1.237-3.507 3.032-4.019l35.967-9.135-29.083-68.357-4.179-16.16 24.751-6.779z" fill="#f0c792"/><path d="m186.83 154.086-7.116-17.604-48.053 13.179 21.857 22.178 36.891-2.699z" fill="#f0c792"/><path d="m161.398 237.726-41.023-14.512-28.732-79.5 30.857 26.357z" fill="#403742"/><path d="m193.847 183.602-3.438-14.462-35.076.193-47.914-45.219c-3.557-3.357-7.893-5.777-12.618-7.043-7.054-1.889-14.575.28-19.539 5.636-2.979 3.214-4.8 7.329-5.177 11.695-.38 4.409-.04 8.825.985 13.08h.001l25.429 1.118s26.646 50.899 26.646 50.899l7.185 14.239s8.241 13.81 20.955 20.412l10.112 3.577c8.16 2.887 17.351 1.649 24.132-3.731.341-.271.676-.55 1.005-.838 5.023-4.395 8.255-10.483 9.083-17.105 1.355-10.837.755-21.827-1.771-32.451z" fill="#514654"/><path d="m107.42 124.115 27.898 26.328 46.647-10.104-13.148-35.021c-2.533-7.732-6.094-15.089-10.588-21.872l-10.896-16.446-15.99-2.423c-3.884-.589-7.852.198-11.218 2.225l-27.458 16.531-5.399 4.54 8.865 29.6c4.206 1.342 8.067 3.603 11.287 6.642z" fill="#7f8b4b"/><path d="m112.859 16.064c-.739-1.506-1.596-2.977-2.594-4.259-3.453-4.437-10.281-7.677-15.876-7.562-8.745.18-18.306 4.197-23.85 11.204-2.381 3.01-3.997 6.522-4.953 10.275l6.315 31.685c5.3 7.382 13.204 12.371 22.869 11.891 12.377-10.264 20.411-38.959 18.089-53.234z" fill="#704c0f"/><path d="m123.849 33.623-7.389-6.841s-1.074-5.571-3.601-10.719c2.322 14.275-5.712 42.97-18.09 53.233 2.834-.141 5.818-.747 8.933-1.907 5.638-2.099 10.474-4.788 14.115-9.411 4.676-5.937 4.123-11.864 1.887-18.68z" fill="#f5d3a6"/><g fill="#5e400d"><path d="m93.51 20.414c-10.362 1.481-21.397 7.994-26.695 11.474l.223 1.117c5.066-3.362 16.211-10.058 26.622-11.545 7.448-1.065 14.396 2.619 19.235 6.258.047-.432.089-.859.127-1.283-4.946-3.618-11.904-7.105-19.512-6.021z"/><path d="m113.037 17.372c-.049-.429-.105-.849-.171-1.256-3.563-1.727-8.429-3.155-14.544-2.951-13.618.453-28.462 13.517-29.086 14.073-.218.194-.238.528-.044.745.104.118.249.177.395.177.125 0 .25-.044.351-.134.151-.134 15.18-13.366 28.42-13.807 6.281-.205 11.206 1.371 14.679 3.153z"/><path d="m107.66 48.927c.148-.387.297-.774.44-1.165-8.391 1.8-22.685 3.048-33.431-5.495-.229-.182-.561-.143-.742.085s-.143.561.085.742c6.821 5.423 15.005 7.024 22.294 7.024 4.241 0 8.166-.544 11.354-1.191z"/></g><circle cx="71.141" cy="41.083" fill="#704c0f" r="16.342"/><path d="m86.456 35.381c-3.149-8.458-12.559-12.762-21.017-9.613s8.696 3.012 11.846 11.471c3.149 8.458-8.899 22.309-.441 19.16 8.457-3.15 12.761-12.56 9.612-21.018z" fill="#5e400d"/><path d="m147.333 67 10.895 16.446c4.494 6.783 8.055 14.14 10.588 21.872l1.617 5.091 12.178 9.314-8.111 17.277-6.167 25-9.333 4-17 15-1.667 7 3.981 7.494 15.781-7.574 7.199-2.132c3.809-1.128 6.88-3.957 8.316-7.661l4.056-10.461 16-30.333 6-25.333c.001 0-23.999-40.333-54.333-45z" fill="#f5d3a6"/><path d="m187.107 112.857-4.495 6.866-8.112 17.277-4.682 18.981c3.174-5.273 7.561-13.261 7.968-17.731.643-7.071 9.321-25.393 9.321-25.393z" fill="#f0c792"/><path d="m149.705 174.201-7.705 6.799-1.667 7 3.981 7.494 15.781-7.574 3.692-1.094z" fill="#f0c792"/><path d="m153.431 179.479c-.877-1.111-2.306-1.631-3.691-1.344-3.032.627-4.031 4.458-1.691 6.485 2.273 1.97 2.298 5.487.055 7.49l-3.79 3.384c-.85.759-1.935 1.204-3.073 1.261l-3.826.191c-.712.036-1.409.224-2.043.551l-5.997 3.102c-1.663.86-3.667.719-5.193-.365l-22.849-16.234-11.967-9.458c-5.745-4.54-10.551-10.155-14.151-16.532-1.873-3.319-3.263-6.863-4.145-10.527-1.024-4.255-1.365-8.671-.985-13.08.376-4.366 2.198-8.481 5.177-11.695 4.964-5.356 12.485-7.525 19.539-5.636.449.12.89.26 1.332.401 0 0 0 0-.001 0 0 0 7.832-7.08 6.76-15.116-1.5-11.247-15.625-14.484-15.625-14.484l-9.267 7.794c-8.131 12.526-13.529 26.625-15.844 41.378l-3.511 22.381c-.637 4.064-.021 8.225 1.767 11.93 1.265 2.621 3.081 4.938 5.324 6.793l23.596 19.518 33.451 17.041c1.203.613 2.604.713 3.882.278l26.321-8.967c1.286-.438 2.337-1.381 2.912-2.612l4.801-10.287c.797-1.708.563-3.72-.605-5.2z" fill="#f5d3a6"/><path d="m169.657 107.963.777 2.446 2.674 2.045c-1.105-5.312-3.821-17.866-5.823-22.954-2.297-5.839 1.53 14.136 2.372 18.463z" fill="#f0c792"/></svg>