<svg id="Layer_1_1_" enable-background="new 0 0 256 256" height="512" viewBox="0 0 256 256" width="512" xmlns="http://www.w3.org/2000/svg"><path d="m233.714 141.143-9.643 11.818 14.015 11.041 1.656-17.779z" fill="#f0c792"/><path d="m134.901 178.947h-10.621c-4.437 0-8.859.518-13.177 1.544l-40.581 9.641-.354-.354-22.383-7.019-10.296 9.193-29.021 5.617c-1.877.363-3.232 2.006-3.232 3.918 0 2.204 1.787 3.991 3.991 3.991h146.519c2.3 0 4.585-.371 6.767-1.098 1.507-.502 2.931-1.172 4.263-1.974-3.824-1.14-14.814-4.504-18.655-6.638-3.955-2.197-11.095-13.392-13.22-16.821z" fill="#f5d3a6"/><path d="m176.745 174.124-4.367-12.441-7.655-21.333c-3.168-7.985-6.88-15.745-11.125-23.22l-9.956-17.531-.229-.402 7.355.653c-5.18-14.378-4.176-40.338-3.764-47.709-8.408.867-16.682 2.822-24.575 5.942-6.236 2.466-12.221 5.637-15.751 9.539-9.884 10.924-13.526 27.051-9.884 37.975 3.641 10.924 26.54 47.363 26.54 47.363l10.751 17.863 6.927 8.123h-6.109c2.125 3.428 9.265 14.624 13.219 16.82 3.842 2.134 14.831 5.498 18.655 6.638 4.614-2.777 8.072-7.223 9.565-12.517l.809-2.869c1.193-4.236 1.052-8.74-.406-12.894z" fill="#514654"/><path d="m170.784 52.267c-3.238-.255-6.344-.435-9.196-.558-4.875-.209-9.752-.067-14.586.432-.412 7.37-1.416 33.331 3.764 47.709l9.549.848c-1.945-17.028 8.297-43.139 10.469-48.431z" fill="#f5d3a6"/><path d="m249.178 110.548c-4.929-17.788-15.768-33.454-30.939-43.97-6.181-4.285-12.961-8.019-19.659-9.88-8.658-2.405-18.756-3.719-27.797-4.431-2.172 5.292-12.414 31.403-10.468 48.431l3.948.351c1.605.143 3.217.185 4.828.126l8.071-.295c2.408-.088 4.769.683 6.66 2.177 2.323 1.834 3.73 4.591 3.852 7.548l.238 5.772c.171 4.14 1.726 8.102 4.416 11.254l4.185 4.902 43.63 13.755c4.333-5.414 9.24-14.807 10.076-21.5.596-4.771.242-9.61-1.041-14.24z" fill="#7f8b4b"/><path d="m236.285 177.884-14.032 22.927c2.644 4.55 8.088 6.907 13.725 6.827 8.313-.118 14.956-6.954 14.837-15.267-.113-7.941-6.726-14.032-14.53-14.487z" fill="#704c0f"/><path d="m235.869 201.312c-.018 0-.037 0-.055.001-2.258.025-3.504-2.62-2.164-4.438 3.572-4.848 5.962-10.497 6.318-15.902.053-.801.058-1.605.041-2.41-1.195-.363-2.441-.604-3.724-.679l-14.032 22.927c.283.487.61.938.956 1.372.139.177.286.345.435.514.197.22.403.43.615.635.502.493 1.038.948 1.616 1.358.004.003.007.006.01.008 2.795 1.976 6.391 2.992 10.088 2.94 5.517-.077 10.528-3.402 13.085-8.292 1.939-3.709 2.085-7.092 1.35-10.115-1.364 6.805-7.319 11.978-14.539 12.081z" fill="#5e400d"/><path d="m185.263 166.484c4.6-4.568 11.176-7.643 11.176-7.643l4.818-8.845 6.521 2.623s6.658-4.222 10.638-4.585c4.54-.414 10.844 3.099 14.413 5.504 2.898 1.952 4.763 4.674 5.998 7.749 1.599 3.979 2.141 8.55 2.503 12.805.386 4.535-2.018 9.253-4.105 13.115-.68 1.258-1.421 2.52-2.209 3.767-10.178.112-49.752-24.489-49.753-24.49z" fill="#f5d3a6"/><path d="m180.006 185.781c-1.486-5.397-.022-12.813 3.432-17.252.552-.709 1.168-1.392 1.825-2.044.001 0 39.575 24.602 49.753 24.49-2.135 3.38-4.635 6.65-7.363 9.4-7.267 7.326-21.502 10.001-30.923 5.78-8.156-3.656-14.4-11.939-16.724-20.374z" fill="#704c0f"/><g fill="#5e400d"><path d="m190.135 190.361c-1.285-6.784 1.024-13.665 3.583-18.783.444.262.895.527 1.363.801-2.43 4.905-4.611 11.429-3.425 17.694 1.11 5.865 4.326 12.043 7.423 16.945-.807-.25-1.598-.527-2.35-.864-.014-.006-.026-.013-.04-.019-2.81-4.697-5.521-10.313-6.554-15.774z"/><path d="m212.363 193.943c.901-3.844.778-8.009.255-11.795.566.295 1.13.585 1.694.874.412 3.635.429 7.565-.44 11.273-1.096 4.677-2.722 9.591-4.244 13.737-.563.047-1.124.08-1.685.097 1.567-4.22 3.284-9.339 4.42-14.186z"/><path d="m212.569 207.66c2.847-3.193 5.953-7.089 7.93-10.795 1.591-2.983 2.265-6.448 2.485-9.654.516.229 1.018.446 1.517.659-.275 3.223-1.008 6.674-2.635 9.725-1.74 3.262-4.272 6.613-6.764 9.535-.835.212-1.682.382-2.533.53z"/></g><path d="m70.168 189.778-22.383-7.019-8.532 7.618c4.063 2.73 10.939 5.729 21.716 5.964 17.875.389 58.223-13.238 67.819-17.393h-4.509c-4.437 0-8.859.518-13.177 1.544l-40.581 9.641z" fill="#f0c792"/><path d="m134.332 82.803 9.081 16.393 2.185.194c-5.82-7.677-11.266-16.587-11.266-16.587z" fill="#403742"/><path d="m173.472 164.802-1.095-3.119-7.655-21.333c-3.168-7.985-6.88-15.745-11.125-23.22l-1.708-3.007c1.157 6.941.34 18.414-11.925 30.877-6.135 6.234-10.368 10.536-13.293 13.508l7.412 12.316 6.927 8.123 13.418 1.196c-4.242-3.701-2.712-10.629 2.694-12.2l5.02-1.458z" fill="#403742"/><path d="m218.01 159.029c5.986-.512 11.918-1.481 17.749-2.887-.838-.967-1.805-1.845-2.931-2.604-3.57-2.404-9.873-5.918-14.413-5.504-3.98.363-10.638 4.585-10.638 4.585l-6.521-2.623-4.818 8.845s-1.885.885-4.338 2.402z" fill="#f0c792"/><path d="m212.569 124.429c-13.431 1.286-19.569 1.714-18.145-9s9.29-4.286 15.29-12-29.572-2.731-29.572-2.731l-.502.402c1.515.322 2.949.982 4.182 1.956 2.323 1.834 3.73 4.591 3.852 7.548l.238 5.772c.171 4.14 1.726 8.102 4.416 11.254l4.185 4.902 40.034 12.622c2.818-5.875 4.304-10.961 2.736-13.436-5.166-8.154-13.283-8.575-26.714-7.289z" fill="#727d43"/><path d="m235.196 129.007c6.441 2.421 9.051 10.133 5.404 15.968-2.166 3.466-5.472 6.068-9.349 7.361l-6.804 2.268c-7.047 2.349-14.348 3.856-21.749 4.488l-49.723 4.25-15.579 6.232c-5.209 2.084-10.598 3.686-16.099 4.786l-38.549 7.71-14.335 8.786c-1.163.713-2.526 1.025-3.883.889l-9.83-.983c-2.272-.227-4.238-1.676-5.128-3.779l-2.112-4.993c-1.235-2.919-.086-6.301 2.672-7.863l9.027-5.115c1.132-.642 2.437-.913 3.731-.777l17.778 1.871 58.264-23.409 76.637-18.85c6.508-1.605 13.351-1.199 19.627 1.16z" fill="#f5d3a6"/></svg>