<svg id="Layer_1_1_" enable-background="new 0 0 256 256" height="512" viewBox="0 0 256 256" width="512" xmlns="http://www.w3.org/2000/svg"><path d="m75.065 169.461c-2.913 1.106-5.978 1.747-9.091 1.892l-28.087 3.129-28.186-2.767c-1.585-.556-3.344.054-4.245 1.472-1.123 1.767-.513 4.116 1.328 5.114l8.859 1.897c2.601.557 5.125 1.428 7.516 2.593l5.487 2.674c1.709.833 3.717.781 5.381-.139l5.189-2.87c.632-.368 1.365-.506 2.087-.389 4.654.756 22.802 3.56 30.976 2.667 3.181-.347 5.613-.855 7.448-1.376l-2.35-14.76c-.827.304-1.612.597-2.312.863z" fill="#f5d3a6"/><path d="m131.672 159.888c-6.879.148-19.566.375-28.079 1.305-7.456.814-18.999 4.737-26.217 7.404l2.35 14.76c1.153-.327 2.074-.659 2.785-.959 1.164-.492 37.251 1.383 51.225 2.961z" fill="#514654"/><path d="m133.736 185.359-2.064-25.471c-1.672.036-3.691.077-5.906.131-.135.2-.274.413-.418.637-6.92 10.78-17.977 18.231-30.62 20.291-3.135.511-5.977.992-8.304 1.406 4.285.104 43.204 2.543 47.312 3.006z" fill="#403742"/><path d="m218.849 72.117-6.463-1.88c-.828-.241-1.717.076-2.206.786l-1.555 2.256-.922 6.388.297 11.833-5.5 33-7.505 41.843 12.84 12.489-.168-16.832 2.833-29.667 2.75-9.083 1.75-31.583 4-5 .532-5.333 1.068-3.744-.317-3.722c-.07-.825-.64-1.52-1.434-1.751z" fill="#f5d3a6"/><g fill="#f0c792"><path d="m194.995 166.343 12.069 11.74c-1.678-4.917-3.453-9.828-4.398-11.547-1.231-2.241-2.81-12.721-3.919-21.115z"/><path d="m214.546 172.054-11.879.446 2.72 11.122 14.124-2.008z"/><path d="m219.388 82.772.144-1.439.232-.812-.353-.61-11.401-2.367-.306 2.123.063 2.533 4.412-.2z"/></g><path d="m220.6 77.589-14.6-5.256-6.672-5.437c-1.441-1.174-3.398-1.495-5.139-.842-1.583.594-2.781 1.915-3.216 3.548l-1.973 7.398-13.015 18.418c-3.088 4.37-5.596 9.121-7.462 14.136l-1.016 2.731 13.016.922c2.864-4.937 7.144-11.873 7.144-11.873s8.333-16 12-20c3.022-3.296 15.55-.933 19.865 0 .87.188 1.755-.24 2.153-1.036.522-1.046.015-2.313-1.085-2.709z" fill="#f5d3a6"/><path d="m156.887 165.193-.925 1.912.642 15.183-1.74.149.745 3.617 9.78-.604-.117-19.871z" fill="#f0c792"/><path d="m208.468 180.26-8.92-13.815c-1.672-2.541-4.251-4.381-7.25-5.118-2.845-.699-5.76.386-7.891 2.396-1.767 1.667-4.136 2.546-6.564 2.434l-12.571-.579.117 19.871 29.606-1.828 12.867-2.01c.632-.098.953-.814.606-1.351z" fill="#7f8b4b"/><path d="m168.523 111.554c1.866-5.015 4.374-9.766 7.462-14.136l13.015-18.418 1.973-7.397c.436-1.633 1.634-2.955 3.216-3.548 1.741-.653 3.697-.332 5.139.842l6.672 5.436 14.6 5.256c.444.16.784.464 1.006.836.026-.043.055-.082.078-.128.523-1.045.015-2.313-1.084-2.708l-14.6-5.256-6.672-5.437c-1.441-1.174-3.398-1.495-5.139-.842-1.583.594-2.781 1.915-3.216 3.548l-1.973 7.398-13.015 18.418c-3.088 4.37-5.596 9.121-7.462 14.136l-1.016 2.731.725.051z" fill="#f0c792"/><path d="m166 116.333-26.767 33.01c-5.69 7.018-10.491 14.712-14.292 22.908-.831 1.792-1.153 3.778-.931 5.74l.002.019c.307 2.675 1.585 5.051 3.479 6.763l29.113-2.485-.642-15.182 15.371-31.772s6.667-16.333 6.667-17.333c0-.334 1.083-2.313 2.523-4.794l-13.016-.922z" fill="#514654"/><path d="m241.459 158.238c-3.947-.756-8.393-.06-8.393-.06l-5.54-2.88-2.445 3.607s-4.886.135-7.058 1.326c-2.478 1.359-4.503 5.349-5.506 7.821-.814 2.008-.831 4.053-.401 6.062.556 2.6 1.86 5.138 3.147 7.452 1.372 2.465 4.242 4.059 6.652 5.323.785.411 1.603.803 2.441 1.172 5.273-3.467 17.103-29.822 17.103-29.823z" fill="#f5d3a6"/><path d="m250.845 166.34c-1.105-3.29-4.426-6.596-7.739-7.683-.529-.173-1.083-.311-1.647-.419 0 0-11.83 26.355-17.103 29.822 2.268.999 4.686 1.814 7.041 2.284 6.274 1.25 14.52-2.303 17.902-7.737 2.93-4.703 3.272-11.124 1.546-16.267z" fill="#704c0f"/><path d="m247.222 172.203c-1.689-3.933-5.259-6.672-8.347-8.418-.137.288-.278.581-.423.884 2.948 1.681 6.329 4.28 7.888 7.913 1.46 3.4 1.946 7.69 2.051 11.284.328-.408.639-.825.909-1.258.005-.008.009-.016.014-.024-.181-3.388-.732-7.214-2.092-10.381z" fill="#5e400d"/><path d="m237.033 181.743c-1.794-1.665-3.174-3.849-4.216-5.977-.189.348-.378.692-.568 1.036 1.047 2.012 2.399 4.039 4.13 5.645 2.183 2.026 4.721 3.989 6.939 5.594.306-.171.606-.348.9-.534-2.267-1.627-4.922-3.665-7.185-5.764z" fill="#5e400d"/><path d="m241.677 188.867c-2.57-.656-5.516-1.584-7.816-2.805-1.851-.983-3.397-2.531-4.621-4.104-.186.297-.369.582-.552.864 1.258 1.562 2.83 3.083 4.723 4.088 2.024 1.075 4.487 1.921 6.78 2.561.503-.179.998-.385 1.486-.604z" fill="#5e400d"/><path d="m108.333 188.026c0 1.09.884 1.974 1.974 1.974h85.767c4.362 0 8.58-1.558 11.895-4.393 1.13-.967 1.781-2.379 1.781-3.867 0-2.381-1.651-4.444-3.975-4.965-3.262-.732-6.637-.809-9.93-.228l-31.012 5.12-42.667 3.667-11.978.722c-1.041.062-1.855.925-1.855 1.97z" fill="#f5d3a6"/></svg>