<svg id="Layer_1_1_" enable-background="new 0 0 256 256" height="512" viewBox="0 0 256 256" width="512" xmlns="http://www.w3.org/2000/svg"><path d="m190.018 128.466-62.691 6.19-2.267 14.3c-.283 1.284.729 2.486 2.042 2.428l68.442-3.051z" fill="#606060"/><path d="m127.327 134.656-1.842 11.618c3.176-1.833 10.571-4.98 24.124-5.131 10.403-.116 23.167 4.18 33.904 7.727l12.031-.536-5.526-19.867z" fill="#4a4a4a"/><path d="m8.657 137.142-3.77-4.458c-.465-.549-.72-1.246-.72-1.965 0-1.867 1.665-3.294 3.51-3.007l13.656 2.121s15.986.035 17.826 3.684l-1.159 5.912z" fill="#f0c792"/><path d="m60.371 98.198c-3.424 3.503-6.496 7.444-9.048 11.643l-7.49 12.326-10.828 8.635 9.791 7.04 14.64-11.722c1.486-1.19 2.909-2.457 4.262-3.795l4.262-4.215z" fill="#f5d3a6"/><path d="m41.836 123.759-8.831 7.043 9.791 7.04 8.987-7.196-3.772.23c-3.559.217-6.494-2.753-6.234-6.31z" fill="#f0c792"/><path d="m250.333 135.333-67.768-30.159-.435 15.217 59.418 18.999c1.28.409 2.046 1.716 1.778 3.033-.418 2.056.098 4.191 1.408 5.829l1.854 2.318c.638.797 1.619 1.297 2.636 1.208 1.419-.124 2.502-1.197 2.694-2.535l.749-5.242z" fill="#f5d3a6"/><path d="m204.192 129.805-19.197-3.425.633-3.549c.7-3.922 4.447-6.534 8.369-5.834l12.095 2.158z" fill="#f0c792"/><path d="m42.667 141 .121-.54c.753-3.348-1.422-6.652-4.794-7.285-1.191-.223-2.421-.084-3.532.399l-5.962 2.592-14.667-1.166-8.176 3.383c-.902.374-1.491 1.254-1.491 2.23 0 1.386 1.165 2.488 2.549 2.41l9.285-.523 13.667 5.333 6.551 6.551 9.946-10.048z" fill="#f5d3a6"/><path d="m118.358 106.044c-6.176.904-12.344 2.921-17.819 5.894l.013-.008-12.652-10.828c-2.144-1.835-4.548-3.344-7.132-4.478l-9-3.949c-2.107-.924-4.555-.585-6.331.877-1.793 1.476-3.448 2.991-5.066 4.647 0 0-1.306 9.968.161 12.968s5.428 6.943 5.428 6.943l4.872-4.663c2.226 7.046 6.092 13.469 11.334 18.696-2.474 3.129-5.812 6.495-9.499 7.858-7.667 2.833-17.833 3.833-22.5 6.667-.35.212-.675.422-.988.63l-3.015-2.96s-9.613 5.547-9.946 10.047l6.756 6.756c.781.781 1.762 1.331 2.835 1.59l3.629.876c6.076 1.467 12.404 1.553 18.518.253l45.101-9.59c2.178-.463 3.996-1.952 4.903-3.985 4.553-10.211 10.758-12.671 13.874-13.206z" fill="#514654"/><path d="m194.218 117.127c-.45-3.104-2.022-5.931-4.408-7.966l-12.543-10.698c-4.233-3.61-9.671-5.489-15.23-5.256-6.802.284-15.611.627-18.537.627-1.738 0-3.636.996-5.507 2.374 2.948 5.276 12.373 23.448 11.733 38.933 2.809-.12 5.625-.005 8.415.385l18.236 2.549 18.781-13.229c-.343-3.299-.666-5.824-.94-7.719z" fill="#7f8b4b"/><path d="m100.539 111.938.013-.008-8.44-7.224 1.142 1.991c1.442 2.515-.725 8.605-2.907 13.701-1.645 3.843-6.005 5.95-9.927 4.503-.797-.294-1.567-.725-2.278-1.33-5.036-4.286-8.25-16.929-8.25-16.929l.939 6.803c2.225 7.042 6.088 13.461 11.325 18.687l18.394-20.201c-.003.003-.007.005-.011.007z" fill="#403742"/><path d="m54.378 146.714c5.55-1.607 16.157-2.572 18.729-5.25.587-.612 1.098-1.469 1.543-2.42-.649.37-1.308.706-1.983.956-7.034 2.599-16.159 3.659-21.224 6.004l-2.264 1.292-4.25 4.346c0 .001 3.899-3.321 9.449-4.928z" fill="#403742"/><path d="m226.107 99.925c-4.309-.228-8.937 1.161-8.937 1.161l-6.314-2.255-2.074 4.193s-5.178.856-7.315 2.44c-2.438 1.807-4.009 6.347-4.715 9.123-.573 2.254-.292 4.433.458 6.506.971 2.684 2.728 5.194 4.435 7.467 1.819 2.422 5.105 3.699 7.853 4.691.895.323 1.823.621 2.767.891 5.103-4.456 13.842-34.217 13.842-34.217z" fill="#f5d3a6"/><path d="m237.273 107.174c-1.655-3.339-5.67-6.371-9.353-7.043-.588-.107-1.197-.173-1.813-.206 0 0-8.739 29.761-13.842 34.218 2.558.732 5.25 1.246 7.823 1.402 6.856.415 15.109-4.569 17.915-10.842 2.43-5.43 1.857-12.311-.73-17.529z" fill="#704c0f"/><g fill="#5e400d"><path d="m234.275 113.939c-2.37-3.938-6.567-6.33-10.107-7.737-.104.327-.21.658-.321 1.002 3.382 1.358 7.357 3.63 9.546 7.266 2.05 3.404 3.192 7.897 3.828 11.704.29-.482.56-.97.783-1.471.004-.009.007-.018.011-.027-.687-3.578-1.831-7.567-3.74-10.737z"/><path d="m224.828 125.573c-2.152-1.509-3.938-3.631-5.356-5.743-.15.398-.302.792-.453 1.185 1.407 1.987 3.141 3.946 5.217 5.402 2.618 1.836 5.604 3.555 8.198 4.938.3-.226.593-.459.88-.699-2.651-1.4-5.773-3.18-8.486-5.083z"/><path d="m230.808 132.474c-2.83-.323-6.099-.88-8.723-1.843-2.113-.775-3.983-2.197-5.514-3.691-.154.343-.308.673-.461 1 1.566 1.478 3.46 2.866 5.62 3.66 2.31.848 5.053 1.389 7.586 1.735.508-.266 1.004-.557 1.492-.861z"/></g><path d="m179.884 135.605c-6.544-.221-14.393-2.342-21.598-4.32-2.988-.82-5.92-1.101-8.677-1.092.135 1.666.185 3.321.117 4.946 2.809-.12 5.625-.005 8.415.385l18.236 2.549z" fill="#727d43"/><path d="m117.958 150.283c4.553-10.211 10.758-12.671 13.874-13.206l-1.59-3.662c-3.717 1.68-9.095 5.481-15.242 12.229-3.927 4.31-7.805 7.885-10.9 10.529l8.955-1.904c2.178-.464 3.996-1.953 4.903-3.986z" fill="#403742"/><path d="m137.993 96.207c-3.512 2.587-6.927 6.546-8.993 7.959-3.167 2.167-10.642 1.877-10.642 1.877s-1.356 17.84 13.474 31.033c1.339-.23 14.016-1.627 14.016-1.627 1.289-.164 2.583-.254 3.878-.309.64-15.485-8.784-33.657-11.733-38.933z" fill="#f5d3a6"/><path d="m128.837 134.11c.919 1.007 1.909 2 2.995 2.967 1.339-.23 14.016-1.627 14.016-1.627 1.289-.164 2.583-.254 3.878-.309.067-1.625.018-3.28-.117-4.946-7.326.024-13.366 2.163-15.567 2.163-1.164-.001-2.952.543-5.205 1.752z" fill="#f0c792"/><path d="m243.297 142.626-9.297 1.041-24.355-6.749c-2.148-.595-4.042-1.879-5.391-3.653-2.809-3.696-6.311-6.811-10.31-9.169-4.349-2.565-9.679-2.833-14.264-.717-3.446 1.591-5.612 5.082-5.507 8.876.098 3.532 2.151 6.716 5.327 8.264l18.956 9.235c1.242.605 2.576.998 3.948 1.163l38.63 4.635c.627.075 1.262-.049 1.814-.356l3.069-1.705c.828-.46 1.357-1.269 1.497-2.16z" fill="#f5d3a6"/></svg>