<svg id="Layer_1_1_" enable-background="new 0 0 256 256" height="512" viewBox="0 0 256 256" width="512" xmlns="http://www.w3.org/2000/svg"><path d="m227.533 134.403 8.585-3.481c.552-.224 1.167-.232 1.725-.023 1.792.672 2.092 3.079.52 4.171l-.877.609 12.402.855c1.227.085 2.055 1.29 1.693 2.465-.195.633-.703 1.119-1.344 1.286l-11.73 3.05-46.45-.51-37.618-.432c-4.49-.052-8.933-.914-13.116-2.547-2.625-1.024-4.666-3.151-5.582-5.816-.807-2.348.038-4.947 2.072-6.371 1.077-.754 2.387-1.103 3.697-.984l9.201.836 41.601 5.104 9.636-1.273c2.58-.341 5.195-.299 7.763.124z" fill="#f0c792"/><path d="m137.428 110.777c-2.179-3.042-5.901-4.574-9.59-3.948l-4.432.753c-2.036.346-4.107.44-6.166.282l-5.273-.406c-5.448-.419-10.927-.032-16.262 1.148l-.797.176c.456 4.095 2.468 20.193 6.858 30.271l6.878-.732c4.428-.471 8.905-.183 13.236.853l16.506 3.949 14.902-10.204z" fill="#7f8b4b"/><path d="m74.911 113.206s-24.246 1.276-32.923 2.807c-6.927 1.222-25.24 8.463-32.345 11.334-1.849.747-3.348 2.157-4.211 3.955-1.087 2.265-1.048 4.909.107 7.141 1.268 2.452 3.53 4.241 6.208 4.911l6.204 1.551c1.891.473 4.199.618 6.144.479l11.145-11.515s24.422 8.881 49.607 6.985c1.903-.143 7.592-.808 7.592-.808-7.82-11.941-8.938-24.547-9.085-28.707z" fill="#514654"/><path d="m83.352 111.339c.147 4.16 1.265 16.766 9.085 28.707l9.329-.993c-4.39-10.078-6.401-26.176-6.858-30.271z" fill="#f5d3a6"/><path d="m178.389 110.737c-3.947-.756-8.393-.06-8.393-.06l-5.54-2.88-2.445 3.607s-4.886.135-7.058 1.326c-2.478 1.359-4.503 5.349-5.506 7.821-.814 2.008-.831 4.053-.401 6.062.556 2.6 1.86 5.138 3.147 7.452 1.372 2.465 4.242 4.059 6.652 5.323.785.411 1.603.803 2.441 1.172 5.273-3.468 17.103-29.823 17.103-29.823z" fill="#f5d3a6"/><path d="m187.775 118.838c-1.105-3.29-4.426-6.596-7.739-7.683-.529-.173-1.083-.311-1.647-.419 0 0-11.83 26.355-17.103 29.822 2.268.999 4.686 1.814 7.041 2.284 6.274 1.25 14.52-2.303 17.902-7.737 2.93-4.703 3.272-11.124 1.546-16.267z" fill="#704c0f"/><g fill="#5e400d"><path d="m184.152 124.701c-1.689-3.933-5.259-6.672-8.347-8.418-.137.288-.278.581-.423.884 2.948 1.681 6.329 4.28 7.888 7.913 1.46 3.4 1.946 7.69 2.051 11.284.328-.408.639-.825.909-1.258.005-.008.009-.016.014-.024-.181-3.388-.732-7.214-2.092-10.381z"/><path d="m173.963 134.241c-1.794-1.665-3.174-3.849-4.216-5.977-.189.348-.378.692-.568 1.036 1.047 2.012 2.399 4.039 4.13 5.645 2.183 2.026 4.721 3.989 6.939 5.594.306-.171.606-.348.9-.534-2.267-1.627-4.922-3.665-7.185-5.764z"/><path d="m178.607 141.365c-2.57-.656-5.516-1.584-7.816-2.805-1.851-.983-3.397-2.531-4.621-4.104-.186.297-.369.582-.552.864 1.258 1.562 2.83 3.083 4.723 4.088 2.024 1.075 4.487 1.921 6.78 2.561.503-.179.998-.385 1.486-.604z"/></g><path d="m84.845 140.854c1.759-.132 6.743-.709 7.489-.796-4.431-1.798-12.476-4.301-15.798-7.112-4.179-3.536-14.811-.99-17.036-.964-2.225.025-19.446-3.536-27-4.982-7.554-1.447-15.268 2.25-13.339 1.768s9.172 1.139 9.172 1.139l.78 10.291 6.125-6.329s24.423 8.881 49.607 6.985z" fill="#403742"/><path d="m28.333 129.907c-2.345 4.785-4.416 10.152-4.239 15.478l32.442-2.317 10.337 3.23c1.268.396 2.589.598 3.918.598h19.95c1.163 0 2.144-.866 2.289-2.02.147-1.172-.617-2.266-1.768-2.533l-9.742-2.259c-3.721-.863-6.906-3.256-8.769-6.591-1.194-2.136-3.418-3.491-5.863-3.573-2.323-.077-4.533 1.006-5.894 2.891l-1.141 1.579-16.559-3.163c-4.096-.782-8.252-1.21-12.422-1.279z" fill="#f5d3a6"/><path d="m137.428 110.777c-1.19-1.661-2.847-2.851-4.7-3.507l5.514 7.698c4.024 5.618 2.645 13.446-3.057 17.35-2.874 1.968-6.446 2.628-9.833 1.818l-11.184-2.676c-1.647-.394-4.241-.581-6.823-.662-4.28-.134-7.313 4.251-5.61 8.181l.032.074 6.878-.732c4.428-.471 8.904-.183 13.235.853l16.506 3.949 14.902-10.204z" fill="#727d43"/><path d="m227.533 139.494 8.585-3.481c.552-.224 1.167-.232 1.725-.023 1.792.672 2.092 3.079.52 4.171l-.877.609 12.402.855c1.227.085 2.055 1.29 1.693 2.465-.195.633-.703 1.119-1.344 1.286l-11.73 3.05-46.45-.51-37.618-.432c-4.49-.052-8.933-.914-13.116-2.547-2.625-1.024-4.666-3.151-5.582-5.816-.807-2.348.038-4.947 2.072-6.371 1.077-.754 2.387-1.103 3.697-.984l9.201.836 41.601 5.104 9.636-1.273c2.58-.341 5.195-.299 7.763.124z" fill="#f5d3a6"/></svg>