<svg id="Layer_1_1_" enable-background="new 0 0 256 256" height="512" viewBox="0 0 256 256" width="512" xmlns="http://www.w3.org/2000/svg"><path d="m159.12 238.089-9.846-2.292c-2.214-.515-4.239-1.64-5.846-3.247l-.59-.59c-2.348-2.348-3.635-5.555-3.561-8.875l.719-32.344h-13.344c-.058.886-.1 1.395-.1 1.395l-.182 2.363c-.436 5.67.08 11.373 1.527 16.873l.34 1.291c1.114 4.232 1.677 8.589 1.677 12.965v10.961c0 1.142.454 2.237 1.261 3.044s1.902 1.261 3.044 1.261h24.532c.788 0 1.426-.639 1.426-1.426.002-.647-.432-1.213-1.057-1.379z" fill="#f5d3a6"/><path d="m140.003 190.454v-31.104c0-5.916 1.023-12.788 3.025-18.355l-22.76 1.711c1.259 7.327 2.931 16.666 4.603 20.847 2.83 7.075 2.087 22.483 1.781 27.188h13.344z" fill="#514654"/><path d="m122.125 152.886c5.637-4.668 13.815-5.458 19.112-5.398.467-2.264 1.063-4.467 1.792-6.494l-22.76 1.711c.55 3.21 1.181 6.804 1.856 10.181z" fill="#403742"/><path d="m207.355 108.377-3.155-12.47-5.115-30.577c-.253-1.512-.442-3.034-.567-4.563l-1.767-21.64 2.442-9.891-.55-1.749c-.412-1.312-1.915-1.926-3.128-1.279l-1.328.708-.411-9.545c-.045-1.043-.841-1.899-1.879-2.019-1.136-.131-2.171.66-2.344 1.79l-2.083 13.681 1.307 8.712 2.775 48.125c.209 3.619.11 7.248-.294 10.85l-1.309 11.655c-.073.653-.093 1.306-.06 1.953l17.356 4.926c.203-.539.352-1.103.441-1.686.359-2.325.246-4.699-.331-6.981z" fill="#f5d3a6"/><path d="m200.371 225.983 1.652-48.177c.124-3.622.555-7.228 1.289-10.777l2.373-11.486c.532-2.575.203-5.223-.89-7.556l-16.764 3.629c-.108 1.368-.055 2.748.159 4.111l1.997 12.707 2.288 30.918c.113 1.529.162 3.062.146 4.595l-.227 21.711-.405 7.131-1.603 5.32c-.464 1.541.401 3.168 1.939 3.645l1.973.611c.41.127.843.162 1.268.104l3.993-.551c1.412-.195 2.479-1.377 2.528-2.802l.159-4.617 2.949-1.388c.596-.281.749-1.059.304-1.545z" fill="#f5d3a6"/><path d="m49.612 119.718-32.725 1.709-6.96-.795c-1.032-.118-2.074.093-2.979.602-1.554.874-2.515 2.518-2.515 4.301v24.727c0 1.07.867 1.937 1.937 1.937.755 0 1.441-.439 1.758-1.124l4.731-10.232 3.286-8.724c.152-.403.549-.659.978-.63l25.408 1.662 23.689 4.152s.082.025.212.065l3.2-14.086z" fill="#f5d3a6"/><path d="m137.394 111.047c-3.618-.402-7.279-.075-10.768.963-2.487.739-4.855 1.83-7.034 3.24l-3.814 2.468c-3.524 2.28-7.526 3.715-11.696 4.192l-25.653 2.937-8.798-1.566-3.2 14.086c2.342.715 24.852 7.493 36.42 7.261 12.211-.244 46.401-3.146 46.401-3.146l.244-29.09z" fill="#514654"/><path d="m156.718 114.082-7.222-1.69-.244 29.09 11.968 3.87v-30.682c-1.514-.052-3.022-.242-4.502-.588z" fill="#f5d3a6"/><path d="m207.227 117.038-17.318-4.92c-2.87-.385-5.786-.377-8.667.038l-15.941 2.298c-1.354.195-2.72.26-4.081.214v30.682l14.957 4.836c3.845 1.243 7.876 1.71 11.874 1.431l16.731-3.625c1.122-.375 1.922-1.386 1.999-2.582l1.665-25.804c.066-1.03-.415-1.992-1.219-2.568z" fill="#7f8b4b"/><path d="m208.29 137.306 10.085.317 1.366-13.043-10.961-.471c-3.588-.154-6.642 2.588-6.873 6.172-.24 3.724 2.652 6.908 6.383 7.025z" fill="#f0c792"/><path d="m242.77 119.29c-3.651-1.202-7.97-1.078-7.97-1.078l-4.894-3.388-2.745 3.118c-4.22-.417-7.712.022-10.539 3.481-2.202 2.694-3.135 5.829-3.624 9.352-.317 2.284-.211 4.361.22 6.24 5.129-7.886 20.702-16.373 29.552-17.725z" fill="#f5d3a6"/><path d="m250.635 128.064c-.65-3.244-3.394-6.769-6.397-8.194-.467-.222-.962-.413-1.468-.58-8.849 1.352-24.423 9.839-29.553 17.726 1.19 5.187 4.926 8.829 9.615 10.835l19.095-.413c2.043-1.032 3.864-2.414 5.296-4.174 3.334-4.097 4.428-10.13 3.412-15.2z" fill="#704c0f"/><g fill="#5e400d"><path d="m221.982 138.795c2.634 2.991 6.937 6.704 9.539 8.868l1.529-.033c-2.364-1.938-7.399-6.183-10.318-9.496-1.898-2.155-2.858-5.112-3.344-7.538-.299.239-.592.48-.878.721.541 2.442 1.554 5.3 3.472 7.478z"/><path d="m236.321 131.071c0 5.265-3.141 13.135-4.638 16.588l1.106-.024c1.588-3.696 4.532-11.263 4.532-16.564 0-4.416-1.289-7.632-2.315-9.495-.312.125-.625.253-.941.386.969 1.742 2.256 4.856 2.256 9.109z"/><path d="m237.425 147.535 1.196-.026c2.011-3.419 4.281-8.027 5.226-12.696 1.359-6.715-2.115-12.238-4.193-14.832-.345.096-.695.199-1.05.31 1.901 2.311 5.585 7.792 4.263 14.325-.959 4.738-3.392 9.508-5.442 12.919z"/><path d="m242.947 146.862c.349-5.498-3.589-10.419-9.134-11.19-5.814-.808-11.182 3.25-11.989 9.064-.124.894-.121 1.775-.026 2.633.34.169.684.331 1.035.481l19.095-.413c.349-.176.683-.377 1.019-.575z"/></g><circle cx="232.35" cy="146.199" fill="#704c0f" r="9.661"/><path d="m231.683 149.286c5.285.734 10.97-7.042 10.236-1.757s-5.614 8.974-10.899 8.239c-5.285-.734-8.974-5.614-8.239-10.899.734-5.284 3.618 3.682 8.902 4.417z" fill="#5e400d"/></svg>