<svg id="Layer_1_1_" enable-background="new 0 0 256 256" height="512" viewBox="0 0 256 256" width="512" xmlns="http://www.w3.org/2000/svg"><path d="m247.348 154.34c-7.829-6.33-17.06-10.691-26.922-12.718l-11.626-2.39-15.316-20.41-45.547 18.801c-3.98.675-39.963 7.274-61.91 11.278l4.244 18.837 58.114-2.613 27.472-4.91 49.443 16.134c6.282-.079 12.637-1.617 18.269-4.529l2.113-1.092c2.967-1.534 4.952-4.468 5.273-7.793.317-3.289-1.038-6.518-3.607-8.595z" fill="#514654"/><path d="m229.643 155.071c-6-2.786-34.071-1.714-39.643-3s-14.044-4.5-21.486-2.143c-7.443 2.357-8.3 4.286-29.3 9.429-10.766 2.637-22.032 5.44-30.462 7.549l39.633-1.782.01-.002c-.964-1.887-.342-4.265 1.555-5.389l2.427-1.439c2.559-1.517 5.526-2.203 8.492-1.963l8.061.654 6.572-3.792c1.462-.844 3.211-1.034 4.821-.526 2.381.752 4.05 2.895 4.197 5.387l.098 1.659s24.555-4.093 30.012-3.41c1.364.171 2.774.631 4.373 1.335 0-.001 16.64.219 10.64-2.567z" fill="#403742"/><path d="m208.801 139.231-2.715-3.618c-6.115.71-13.451 1.908-16.086 3.742-4.821 3.355 18.801-.124 18.801-.124z" fill="#403742"/><path d="m147.649 140.253-2.921-2.062c-5.025.904-14.813 2.689-25.725 4.683l-7.244 7.008c9.185-.344 20.699-1.196 27.455-3.275 12.536-3.857 31.179-3.214 31.179-3.214z" fill="#403742"/><path d="m175.459 135.898c10.436-3.795 18.026-17.077 18.026-17.077l-9.62-11.063c-1.386-1.594-2.851-3.11-4.37-4.565-3.137 10.277-7.925 22.978-14.481 32.377-.846 1.213-1.318 2.256-1.476 3.154 4.142-.645 8.422-1.553 11.921-2.826z" fill="#f5d3a6"/><path d="m161.673 90.804-2.442-1.179c-8.078-3.9-16.837-6.196-25.789-6.762l-3.296-.208s-16.966.952-21.788 10.916c-4.821 9.964-6.429 25.071-1.607 31.179l10.766 8.816 14.459 7.435c2.96 1.522 6.326 2.065 9.615 1.551 2.193-.343 4.263-1.155 6.098-2.341l-.039.042s7.676-.249 15.888-1.529c.158-.898.63-1.941 1.476-3.154 6.556-9.399 11.344-22.099 14.481-32.377l.004-.006c-5.248-5.027-11.258-9.212-17.826-12.383z" fill="#7f8b4b"/><path d="m69.481 151.896-18.019 3.107c-7.689 1.34-13.844 2.439-16.952 3.049-2.994.587-6.018-.83-7.488-3.504l-7.686-13.975-.616-9.003c-.421-1.27-1.618-2.205-3.053-2.205-1.492 0-2.788 1.026-3.13 2.479l-2.36 10.029c-.728 3.096-.047 6.356 1.862 8.9 1.975 2.633 2.633 6.027 1.785 9.207l-.999 5.372c-.465 2.502.108 5.085 1.587 7.155 1.758 2.461 4.596 3.922 7.621 3.922h1.782c2.324 0 4.553-.923 6.196-2.566 2.298-2.298 5.372-3.655 8.619-3.804l51.642-2.322-4.244-18.837c-8.568 1.563-14.997 2.73-16.547 2.996z" fill="#f0c792"/><path d="m130.855 82.983-5.007-2.311c-1.066-.492-2.226-.747-3.4-.747-8.197 0-16.293 1.814-23.707 5.311l-39.023 18.407-34.153 18.304-7.216 2.022-9.006 2.562c-1.716.488-3.07 1.81-3.599 3.514l-.817 2.633c-.799 2.575.47 5.339 2.944 6.411l2.688 1.165 23.316-12.038 29.637-9.394 42.564-18.622c1.909-.835 4.067-.904 6.026-.192l4.333 1.576c1.959.712 4.116.643 6.026-.192l8.247-3.608c2.474-1.083 4.248-3.325 4.731-5.983.661-3.64-1.224-7.268-4.584-8.818z" fill="#f5d3a6"/><path d="m225.3 176.349c-2.094.026-4.05-.11-6.142-.411l-34.541-4.97-23.191-4.434-9.011.819c-1.397.127-2.763-.468-3.621-1.579-1.508-1.952-.966-4.783 1.155-6.041l2.427-1.439c2.559-1.517 5.526-2.203 8.492-1.963l8.061.654 6.572-3.792c1.462-.844 3.212-1.035 4.821-.526 2.381.752 4.05 2.895 4.197 5.387l.098 1.659s24.555-4.093 30.012-3.41c1.364.171 2.774.631 4.373 1.335.001-.001 6.638 11.133 6.298 18.711z" fill="#f5d3a6"/><path d="m94.845 139.739-16.921 18.269-31.09-22.509-10.022-5.943c-2.47-1.465-5.306-2.197-8.177-2.111-4.463.133-8.64 2.229-11.415 5.727l-.865 1.091c-1.525 1.923-.915 4.759 1.266 5.884.594.306 1.257.455 1.925.432l9.213-.325 10.231 1.043 28.564 31.389c1.591 1.748 3.774 2.844 6.126 3.075 2.124.209 4.257-.3 6.058-1.445l7.374-4.69c8.224-5.231 15.898-11.28 22.903-18.057l12.852-12.432c.597-.578 1.093-1.23 1.482-1.932l-3.175-16.031z" fill="#f5d3a6"/><path d="m94.845 139.739-9.154 9.884c6.528.947 16.959.911 30.632-4.156l6.544-6.33c.597-.578 1.093-1.23 1.482-1.932l-3.175-16.031z" fill="#f0c792"/><path d="m77.621 123.199c1.215 10.893 12.566 18.568 25.354 17.141 1.638-.183 3.318-.519 5.001-.986-10.53-.846-19.018-7.919-20.064-17.304-1.046-9.382 5.081-18.172 15.16-21.32-1.537-.048-3.047-.001-4.497.161-12.787 1.428-22.169 11.415-20.954 22.308z" fill="#704c0f"/><path d="m83.219 134.182c-3.076-2.929-5.12-6.706-5.597-10.983-.48-4.302.698-8.459 3.08-12.007l-.001-.009c-.85-.091-1.819-.28-2.703-.181-6.631.74-11.406 6.714-10.667 13.345.74 6.631 6.714 11.406 13.345 10.667.957-.107 1.676-.511 2.544-.822z" fill="#704c0f"/><path d="m87.912 122.051c1.047 9.384 9.535 16.458 20.064 17.304 11.455-3.177 23.015-12.492 21.956-21.99-1.077-9.658-14.84-16.254-26.86-16.633-10.079 3.147-16.206 11.938-15.16 21.319z" fill="#f5d3a6"/><g fill="#5e400d"><path d="m80.316 130.702c.121.188.25.371.379.555 4.808 1.755 9.374 1.642 12.239 1.274-.111-.115-.221-.23-.328-.347-2.936.345-7.518.389-12.29-1.482z"/><path d="m79.433 129.166c.071.138.144.274.218.41 4.288.438 8.042-.247 10.409-.893-.065-.115-.126-.232-.188-.348-2.382.643-6.148 1.314-10.439.831z"/><path d="m78.673 115.094c3.394-2.699 8.329-5.949 13.256-6.828.095-.121.185-.246.283-.365-.042-.038-.095-.062-.155-.052-4.819.8-9.651 3.863-13.103 6.538-.1.233-.191.47-.281.707z"/><path d="m88.954 113.536c.059-.159.133-.312.196-.469-.057.018-.112.034-.169.052-4.074 1.292-8.764 4.854-11.429 7.075-.011.172-.013.346-.019.519 2.555-2.153 7.299-5.82 11.421-7.177z"/><path d="m80.702 111.192-.001-.009c-.517-.055-1.079-.14-1.638-.182-2.568 3.634-3.853 7.945-3.355 12.411.497 4.461 2.696 8.38 5.996 11.357.507-.171.986-.388 1.516-.578l-.001-.01c-3.076-2.929-5.12-6.706-5.597-10.983-.48-4.301.697-8.458 3.08-12.006z"/></g><path d="m161.393 126.518s.804-10.607-1.929-2.732c-2.732 7.875-11.815 16.468-11.815 16.468s6.337-.206 13.655-1.203c-2.208-4.905.089-12.533.089-12.533z" fill="#727d43"/></svg>