<svg id="Layer_1_1_" enable-background="new 0 0 256 256" height="512" viewBox="0 0 256 256" width="512" xmlns="http://www.w3.org/2000/svg"><path d="m249.178 191.633-.26-.195c-.389-.291-.805-.544-1.243-.755l-33.693-16.193c-4.991-2.398-10.328-3.997-15.815-4.736l-8.897-1.199-3.279 18.421 25.759 2.273 18.133 4.533c2.435.609 4.442 2.326 5.42 4.638.771 1.821.838 3.863.19 5.731l-3.243 9.348-8.546 1.221c-1.121.16-1.954 1.12-1.954 2.253 0 1.257 1.019 2.276 2.276 2.276h12.474l8.488-11.788c.34-.473.735-.904 1.176-1.285l3.414-2.948c.934-.807 1.653-1.832 2.092-2.985 1.182-3.104.166-6.616-2.492-8.61z" fill="#f5d3a6"/><path d="m182.667 167.667-38.549-32.784-22.903 16.813 26.049 18.981c.824.548 1.68 1.046 2.564 1.492l23.682 11.942c2.802 1.413 5.847 2.28 8.973 2.556l3.51.31 3.279-18.421z" fill="#514654"/><path d="m173.238 180.164c-2.536-4.681-7.794-8.835-13.321-12.626-7.112-4.878-9.485-14.142-5.861-21.967.134-.288.261-.574.382-.857.115-.268.202-.538.291-.807l-10.611-9.024-22.903 16.813 8.846 6.446 17.202 12.535c.824.548 1.68 1.046 2.564 1.492l23.682 11.942c.631.318 1.278.6 1.932.862-.637-1.64-1.365-3.262-2.203-4.809z" fill="#403742"/><path d="m141 127.5c-2.991-3.343-14.033-13.127-22.141-20.372l-29.885 18.681-3.222.449c-14.149 1.983-30.321 4.406-30.321 4.406l-8.739.543c-5.798.36-10.582 4.783-11.248 10.554-.22 1.907-.321 3.948-.193 5.99.085 1.366.185 3.848.292 7.012l18.457.225c0-1.834 0-3.622 0-5.251l21.75 1.263s37 3.75 50.5 3.75 18-6.5 20.25-11.75-1.25-10.75-5.5-15.5z" fill="#514654"/><path d="m94.799 75.094-11.941-5.103-13.279-7.556-2.295 1.366c-2.401 1.429-4.707 2.998-6.907 4.695l-8.711 7.993c-3.168 3.447-5.99 7.219-8.416 11.263l7.767 13.004 8.127 6.76 8.13 8.015s4.512 4.134 13.876 8.653l29.181-24.872c-5.455-5.903-15.532-24.218-15.532-24.218z" fill="#7f8b4b"/><path d="m74.131 114.138-8.13-8.015-5.743-4.777c-1.578-1.312-2.921-2.883-3.974-4.645-4.066-6.807-3.302-15.523 2.038-21.385.067-.074.134-.147.201-.22l8.711-7.993c1.522-1.174 3.112-2.263 4.732-3.311l-2.387-1.358-2.295 1.366c-2.401 1.429-4.707 2.998-6.907 4.695l-8.711 7.993c-3.168 3.447-5.99 7.219-8.416 11.263l7.767 13.004 8.127 6.76 8.13 8.015s4.512 4.134 13.876 8.653l3.585-3.056c-7.145-3.82-10.604-6.989-10.604-6.989z" fill="#727d43"/><path d="m61.068 77.095c2.167-1.981 2.31-5.345.32-7.503l-6.277-6.806-14.147 4.964 9.869 8.5c2.868 2.47 7 2.811 10.235.845z" fill="#f0c792"/><path d="m36.535 192.241c.145 6.285-.797 12.545-2.785 18.509l-24.143 7.735c-.957.307-1.607 1.197-1.607 2.202 0 1.278 1.035 2.313 2.313 2.313h31.294c.922 0 1.838-.156 2.709-.46 2.331-.816 4.17-2.639 5.007-4.963l.006-.016c.599-1.663.644-3.475.129-5.165l-.766-2.518c-.696-2.286-.806-4.707-.318-7.046 1.683-8.069 5.626-27.524 5.626-32.832 0-3.211 0-9.332 0-15.012l-18.458-.226c.339 10.007.749 26.904.993 37.479z" fill="#f5d3a6"/><path d="m14.86 48.979 5.65 15.94c-2.221 2.456-5.878 3.198-9.338 2.414-5.101-1.156-8.3-6.229-7.144-11.33 1.105-4.873 5.969-7.761 10.832-7.024z" fill="#704c0f"/><path d="m12.064 63.454c.011.003.023.005.034.008 1.387.31 2.498-1.156 1.91-2.45-1.567-3.449-2.302-7.238-1.818-10.611.072-.5.174-.995.289-1.489.783-.068 1.581-.054 2.381.067l5.65 15.94c-.238.263-.498.498-.767.72-.109.091-.221.175-.335.26-.15.11-.304.212-.461.311-.373.238-.762.448-1.172.625-.003.001-.005.003-.007.004-1.978.852-4.324 1.009-6.592.496-3.386-.766-6.037-3.466-6.974-6.809-.71-2.536-.359-4.637.487-6.402-.047 4.366 2.944 8.326 7.375 9.33z" fill="#5e400d"/><path d="m39.856 32.843c4.031 2.257 7.425 6.16 7.425 6.16l7.004 1.568-.52 4.981s4.197 3.735 5.225 6.39c1.173 3.029.001 8.036-.947 10.953-.77 2.368-2.269 4.179-4.134 5.627-2.413 1.875-5.438 3.142-8.283 4.223-3.031 1.153-6.735.43-9.79-.243-.995-.219-2.005-.48-3.014-.776-2.069-6.95 7.034-38.883 7.034-38.883z" fill="#f5d3a6"/><path d="m25.606 33.021c3.407-2.076 8.774-2.525 12.492-1.028.594.239 1.182.528 1.758.85 0 0-9.104 31.933-7.033 38.884-2.734-.8-5.464-1.873-7.882-3.203-6.443-3.544-11.064-12.773-10.017-20.054.906-6.304 5.358-12.204 10.682-15.449z" fill="#704c0f"/><g fill="#5e400d"><path d="m24.452 40.858c4.396-2.209 9.563-1.975 13.571-1.225-.092.355-.186.716-.282 1.091-3.837-.704-8.734-.92-12.794 1.12-3.801 1.909-7.403 5.323-10.155 8.405.013-.602.048-1.198.132-1.779.001-.01.004-.021.006-.031 2.666-2.846 5.982-5.803 9.522-7.581z"/><path d="m26.352 56.789c2.81-.136 5.64-1.036 8.131-2.136-.092.446-.18.889-.267 1.332-2.41.994-5.099 1.776-7.81 1.907-3.419.165-7.104.014-10.243-.217-.142-.377-.275-.755-.397-1.136 3.199.248 7.042.421 10.586.25z"/><path d="m16.994 59.617c2.746 1.325 6.023 2.69 8.95 3.319 2.356.506 4.861.289 7.101-.189-.056.398-.106.785-.154 1.169-2.262.443-4.77.616-7.179.099-2.576-.553-5.368-1.632-7.858-2.766-.31-.531-.592-1.078-.86-1.632z"/></g><path d="m107.179 119.179c-.332-1.032.101-3.051.807-5.253l-19.012 11.884c3.441-.748 9.689-2.206 14.776-1.488 9.107 1.286 17.464 4.5 17.464 4.5s-13.071-6.643-14.035-9.643z" fill="#403742"/><path d="m111 100c-.213-.203-.439-.439-.669-.688l-29.181 24.872c1.424.687 2.952 1.382 4.602 2.074l3.222-.449 29.885-18.681c-3.412-3.048-6.304-5.647-7.859-7.128z" fill="#f5d3a6"/><path d="m84.735 121.128-3.585 3.056c1.424.687 2.952 1.382 4.602 2.074l3.222-.449 3.347-2.092c-4.493-.551-7.586-2.589-7.586-2.589z" fill="#f0c792"/><path d="m58.34 130.23c-1.832.272-2.909.433-2.909.433l-8.739.543c-5.711.355-10.431 4.656-11.207 10.3.378.766.757 1.532 1.177 2.276.842 1.493 2.355 2.487 4.061 2.666 1.68.177 3.343-.458 4.478-1.708l12.481-13.747c.225-.248.435-.511.658-.763z" fill="#403742"/><path d="m102.469 49.601-2.158-.996c-.847-.391-1.805-.474-2.707-.233l-13.198 3.519c-5.159 1.376-9.806 4.225-13.373 8.199-.63.702-1.117 1.497-1.455 2.344l13.279 7.556-11.136 15.798-16.522-6.609c-.99-.396-2.122-.044-2.713.843-.578.867-.487 2.017.221 2.782l11.986 12.953-11.642 16.513-2.995 4.099-.432-5.821c-.247-3.326.228-6.666 1.393-9.792l-7.767-13.003c-.965.056-1.907.413-2.793.931-2.05 1.199-3.544 3.184-4.512 5.321-1.843 4.07-1.709 8.629-1.543 12.993.189 4.976.619 9.966 1.13 14.918.479 4.636 1.694 9.161 3.686 13.379.418.885.868 1.755 1.349 2.608.742 1.316 2.076 2.192 3.579 2.35 1.48.156 2.946-.403 3.946-1.505l10.999-12.115c3.098-3.412 5.84-7.132 8.183-11.1l8.726-14.783v-3.5l3-1.75 14.734-18.99c5.124-6.604 8.844-14.185 10.932-22.278.483-1.871-.442-3.821-2.197-4.631z" fill="#f5d3a6"/><path d="m70.625 60.637c-.423.563-.791 1.158-1.046 1.798l13.279 7.556 4.392-8.991s-4.071 3.857-7.714 3.643c-2.447-.144-6.505-2.483-8.911-4.006z" fill="#f0c792"/><path d="m50.056 116.369-.432-5.821c-.247-3.326.228-6.666 1.393-9.792l-7.767-13.003c-.965.056-1.907.413-2.793.931-.07.041-.135.09-.204.133 2.224 3.399 7.093 11.104 7.996 14.718 1.179 4.714-4.714 18.429-4.714 18.429z" fill="#f0c792"/></svg>