<svg id="Layer_1_1_" enable-background="new 0 0 256 256" height="512" viewBox="0 0 256 256" width="512" xmlns="http://www.w3.org/2000/svg"><path d="m159.734 163.303c-1.002-5.27-.672-10.707.957-15.817l2.11-6.615-2.049-62.643-18.661-8.581-27.346-.045-19.8 8.627-1.538 59.169 3.535 8.978c2.128 5.405 2.773 11.28 1.868 17.018h60.938z" fill="#7f8b4b"/><path d="m104.096 111.854 6.496-16.929c1.269-3.306 1.283-6.963.039-10.279-1.769-4.717-5.596-7.807-9.924-8.93l-5.762 2.51-1.538 59.169 3.078 7.818.86-7.58c1.294-8.814 3.558-17.46 6.751-25.779z" fill="#727d43"/><path d="m150.588 73.553c-2.912 1.592-5.329 4.194-6.635 7.674-1.255 3.346-1.241 7.035.04 10.371l6.555 17.082c3.221 8.394 5.506 17.118 6.812 26.014l2.105 18.284c.25-1.857.653-3.695 1.226-5.493l2.11-6.615-2.049-62.643z" fill="#727d43"/><path d="m204.519 243.082-5.587-6.451c-.411-.474-.638-1.187-.615-1.926l-1.513-23.215-14.062 4.471 3.996 17.849c.043 1.172-.566 2.197-1.404 2.363l-8.787 1.739c-.795.157-1.353 1.225-1.157 2.376.14.823.701 1.379 1.307 1.473l5.902.909c.056.009.085.096.054.161l-.885 1.839c-1.056 2.195-.052 5.159 1.841 5.435l13.338 1.587c.34.05.683.003 1.009-.136l5.686-2.424c1.922-.821 2.421-4.267.877-6.05z" fill="#f0c792"/><path d="m80.746 237.912-8.787-1.739c-.839-.166-1.448-1.191-1.404-2.363l4.331-21.753-14.998-8.567-.911 31.216c.023.74-.204 1.452-.615 1.926l-5.587 6.451c-1.544 1.783-1.045 5.229.876 6.048l5.686 2.424c.326.139.67.185 1.009.136l13.338-1.587c1.893-.276 2.897-3.24 1.841-5.435l-.885-1.839c-.031-.065-.002-.152.054-.161l5.902-.909c.606-.093 1.167-.65 1.307-1.473.197-1.151-.361-2.218-1.157-2.375z" fill="#f0c792"/><path d="m62.484 208.273s19.826 13.893 29.86 14.922 36.019-5.403 36.019-5.403 22.898 7.204 32.16 7.204 41.616-11.32 41.616-11.32z" fill="#403742"/><path d="m119.008 70.875v4.687c0 5.232 4.241 9.474 9.474 9.474 5.232 0 9.474-4.241 9.474-9.474v-4.686z" fill="#f0c792"/><path d="m128.481 28.761c-11.172 0-20.602 9.053-22.978 21.324 2.233 13.886 11.671 28.701 22.978 28.701 11.498 0 21.059-15.318 23.081-29.402-2.379-12.265-11.912-20.623-23.081-20.623z" fill="#f5d3a6"/><path d="m128.481 16.511c-12.968 0-23.481 12.341-23.481 27.564 0 1.95.175 3.97.503 6.01 2.376-12.271 12.594-15.172 23.765-15.172 11.168 0 19.914 2.206 22.293 14.47.258-1.801.4-3.583.4-5.309.001-15.222-10.512-27.563-23.48-27.563z" fill="#704c0f"/><path d="m114.833 21.652c3.847-3.233 8.556-5.141 13.648-5.141 5.121 0 9.855 1.93 13.714 5.197h.011c.218-.988.568-2.102.568-3.155 0-7.894-6.399-14.293-14.293-14.293s-14.293 6.399-14.293 14.293c0 1.139.381 2.037.633 3.1h.012z" fill="#704c0f"/><g fill="#5e400d"><path d="m119.306 18.696c-.237.118-.469.246-.702.373-2.694 5.423-3.16 10.807-3.104 14.224.15-.115.299-.229.451-.34-.021-3.498.529-8.893 3.355-14.257z"/><path d="m121.227 17.858c-.171.065-.341.133-.511.203-1.077 4.984-.764 9.488-.315 12.356.144-.061.289-.117.433-.175-.442-2.885-.737-7.401.393-12.384z"/><path d="m137.874 18.811c2.728 4.345 5.903 10.573 6.291 16.483.13.128.265.249.393.38.05-.045.085-.104.081-.176-.309-5.771-3.277-11.854-5.97-16.265-.262-.148-.529-.285-.795-.422z"/><path d="m138.357 31.104c.179.09.349.198.526.292-.014-.07-.025-.136-.039-.206-.985-4.96-4.558-10.942-6.82-14.367-.201-.036-.405-.061-.607-.091 2.196 3.288 5.885 9.346 6.94 14.372z"/><path d="m142.196 21.707h.011c.133-.601.307-1.25.428-1.903-3.936-3.496-8.837-5.572-14.153-5.572-5.31 0-10.207 2.072-14.141 5.561.134.619.327 1.21.481 1.859h.011c3.847-3.233 8.556-5.141 13.648-5.141 5.121 0 9.856 1.93 13.715 5.196z"/></g><path d="m105.619 86.218c-3.117-8.313-13.72-10.727-20.129-4.585-1.915 1.835-3.315 4.141-4.059 6.687l-1.081 3.697c-2.861 9.789-4.812 19.821-5.827 29.969l-.842 8.42c-.023.226-.051.451-.086.675l-7.091 46.199h22.576l5.202-45.852c1.105-7.522 3.037-14.899 5.76-21.996l5.542-14.444c1.084-2.821 1.096-5.941.035-8.77z" fill="#f5d3a6"/><path d="m166.783 178.057-5.369-46.629c-1.105-7.522-3.037-14.898-5.76-21.996l-5.542-14.444c-1.082-2.821-1.094-5.941-.033-8.77 3.117-8.312 13.72-10.727 20.129-4.585 1.915 1.835 3.315 4.141 4.059 6.687l1.081 3.697c2.861 9.789 4.812 19.821 5.827 29.969l.842 8.42c.023.226.051.451.086.675l7.673 46.975h-22.993z" fill="#f5d3a6"/><path d="m222.647 187.956c-1.207-1.419-2.721-2.545-4.428-3.293l-5.591-2.45c-9.321-4.085-19.343-6.335-29.516-6.628l-6.85-.197-95.2-.44c-11.333-3.26-23.499-1.865-33.799 3.876-3.079 1.716-5.295 4.647-6.107 8.077-1.109 4.681.553 9.583 4.279 12.625 6.989 5.705 15.506 9.222 24.485 10.11l.49.048c.839.083 1.856.17 2.695.234l117.795 4.968c7.94-.356 15.911-1.675 23.648-3.533 3.734-.897 6.842-3.474 8.413-6.979l1.538-3.429c1.94-4.325 1.219-9.379-1.852-12.989z" fill="#514654"/><path d="m190.901 214.885-.954-1.688c-3.438-7.431-3.228-16.038.567-23.294-10.401-2.891-21.279-3.747-32.035-2.503l-3.345.387-38.998 17.328 27.318 6.506c9.065 2.159 18.342 3.296 27.66 3.391l14.235.144c1.825.018 5.552-.271 5.552-.271z" fill="#f5d3a6"/><path d="m98.809 163.393-1.595 12.364h64.317l-1.784-12.364z" fill="#f0c792"/><path d="m76.351 173.866 9.613 5.45c7.22.023 16.155.552 24.726 1.23h.003c-2.188-3.324-5.641-5.607-9.556-6.319l-5.19-.944-.647-.97c-2.231-3.347-5.64-5.732-9.549-6.681l-1.7-.413c-1.368-.332-2.807-.214-4.103.336-3.017 1.282-4.62 4.599-3.749 7.76z" fill="#f5d3a6"/><path d="m76.803 168.381c-.816 1.458-1.077 3.218-.604 4.934l.152.552 9.613 5.45c7.22.023 16.155.552 24.726 1.23h.003c-.437-.664-.938-1.274-1.47-1.851-6.28-1.449-14.674-3.362-21.222-4.765-6.332-1.359-9.56-3.67-11.198-5.55z" fill="#f0c792"/><path d="m190.111 214.942c-7.354-2.358-19.294-5.565-28.537-5.959-15.022-.64-26.757-2.646-15.961-10.392 5.803-4.163 13.562-8.523 19.507-11.671-2.216.079-4.432.224-6.642.479l-3.345.387-38.998 17.328 27.318 6.506c9.065 2.159 18.342 3.296 27.66 3.391l14.235.144c1.304.014 3.57-.129 4.763-.213z" fill="#f0c792"/><path d="m73.106 209.917c-3.686-9.32-2.908-19.775 1.817-28.613l.787-1.474c15.725-2.281 65.517 3.744 65.517 3.744v-3.484c0-1.703.765-3.317 2.083-4.395 1.088-.89 2.468-1.345 3.873-1.277l11.883.58 13.714-12.468c.883-.803 2.049-1.222 3.242-1.165l4.191.2c.755.036 1.488.261 2.133.655 2.582 1.578 2.903 5.202.639 7.209l-8.998 7.975c-1.024.908-2.158 1.684-3.374 2.312l-20.123 10.376-8.076 4.795c-9.186 5.454-19.231 9.311-29.707 11.406l-8.626 1.725c-10.253 2.051-20.557 2.697-30.975 1.899z" fill="#f5d3a6"/></svg>