<svg id="Layer_1_1_" enable-background="new 0 0 256 256" height="512" viewBox="0 0 256 256" width="512" xmlns="http://www.w3.org/2000/svg"><path d="m70.857 200.714-21.241-16.6 10.917-22.708 13.1 26.638z" fill="#f0c792"/><path d="m109.71 162.86-21.266-1.55c-1.711-3.808-.715-8.406 1.942-12.003 3.918-5.304 11.395-6.428 16.699-2.51 5.067 3.743 5.938 10.821 2.625 16.063z" fill="#704c0f"/><path d="m94.414 152.301c-.009.012-.017.023-.026.035-1.06 1.444.07 3.47 1.861 3.446 4.776-.062 9.522 1.007 13.171 3.275.541.336 1.061.704 1.573 1.087-.318.938-.739 1.853-1.284 2.715l-21.266-1.55c-.183-.408-.322-.827-.442-1.25-.049-.172-.09-.344-.13-.518-.051-.228-.091-.459-.125-.69-.086-.551-.132-1.107-.128-1.67 0-.003 0-.007 0-.01.018-2.715 1.025-5.503 2.766-7.862 2.6-3.521 7.059-5.215 11.393-4.603 3.287.464 5.536 1.933 7.145 3.804-5.018-2.264-11.105-.816-14.508 3.791z" fill="#5e400d"/><path d="m115.68 199.891c-4.647 3.511-10.872 5.454-10.872 5.454l-5.357 7.292-5.488-3.123s-6.437 2.954-10.026 2.797c-13.447-.594-17.801-14.945-17.249-25.966.205-4.084 2.915-7.994 5.239-11.18.757-1.038 1.57-2.071 2.422-3.087 9.073 1.13 41.331 27.813 41.331 27.813z" fill="#f5d3a6"/><path d="m122.692 183.348c.671 4.984-1.528 11.409-5.139 14.944-.577.564-1.208 1.098-1.872 1.599-.001 0-32.258-26.683-41.332-27.813 2.309-2.751 4.93-5.36 7.691-7.478 7.354-5.643 20.35-6.305 28.227-1.409 6.818 4.238 11.375 12.367 12.425 20.157z" fill="#704c0f"/><g fill="#5e400d"><path d="m114.228 178.047c.324 6.195-2.563 12.041-5.459 16.289-.363-.287-.733-.577-1.117-.878 2.756-4.073 5.485-9.617 5.187-15.338-.279-5.356-2.396-11.243-4.561-15.982.688.32 1.359.663 1.988 1.053.011.007.022.015.033.022 1.934 4.521 3.669 9.847 3.929 14.834z"/><path d="m94.873 172.172c-1.266 3.314-1.661 7.036-1.652 10.469-.468-.331-.935-.658-1.402-.983.072-3.286.532-6.787 1.754-9.983 1.541-4.031 3.582-8.21 5.438-11.716.507.026 1.01.065 1.512.117-1.906 3.568-4.053 7.918-5.65 12.096z"/><path d="m96.347 159.936c-2.921 2.499-6.156 5.591-8.364 8.652-1.777 2.463-2.795 5.466-3.379 8.294-.431-.267-.853-.52-1.271-.77.635-2.836 1.704-5.82 3.521-8.339 1.943-2.694 4.602-5.371 7.174-7.671.769-.088 1.544-.137 2.319-.166z"/></g><path d="m135.792 227.413-15.516-2.241-9.629-3.611c-2.279-.855-4.695-1.288-7.129-1.278l-44.871-2.258-.469-15.964c.099-5.683 1.021-11.312 2.706-16.725-2.202.878-4.569 1.342-6.983 1.342h-13.502l-.341 4.718c-.19 2.626-.206 5.263-.048 7.892l2.026 33.769c.105 1.757 1.583 3.115 3.342 3.072l22.183-.537 34.735-4.904 24.519 4.291 8.844-.915c1.708-.177 3.007-1.616 3.007-3.334-.001-1.665-1.225-3.078-2.874-3.317z" fill="#f0c792"/><path d="m16.609 121.244c-4.44 11.504-1.332 30.714.257 38.637.442 2.201 1.09 4.35 1.935 6.43 2.992 7.364 8.585 13.975 15.627 17.766 8.902 4.792 24.897 4.6 32.458-2.585 15.049-14.302.928-36.942-6.013-51.32-1.672-3.464-2.334-7.329-1.909-11.152.103-.924.289-1.828.513-2.72l-37.472-9.41c-1.644 4.474-3.505 9.455-5.396 14.354z" fill="#7f8b4b"/><path d="m237.785 55.363-31.304-6.388-38.078-16.837-36.571-24.308c-.35-.232-.716-.427-1.082-.621v33.419l1.846 1.29c14.656 10.237 31.652 16.622 49.423 18.566l6.07.664 4.822 7.778c1.889 3.046 5.599 4.429 9.02 3.363l14.133-4.405 21.17-2.049c1.817-.176 3.415-1.274 4.231-2.906 1.561-3.12-.263-6.869-3.68-7.566z" fill="#f5d3a6"/><path d="m27.748 90.938s-2.43 6.943-5.742 15.953l37.472 9.41c.79-3.144 2.307-6.056 4.434-8.494l-33.68-23.155z" fill="#f5d3a6"/><path d="m119.505 7.007c-7.959 3.882-21.665 10.673-31.403 16.064-9.619 5.324-29.374 24.202-41.593 36.318-6.838 6.781-12.188 14.909-15.726 23.865l-.552 1.397 33.68 23.155c.681-.781 1.423-1.515 2.226-2.189l10.008-8.406c6.213-5.219 10.359-12.484 11.693-20.487.843-5.057 3.35-9.688 7.125-13.157l29.353-27.43 6.433 4.494v-33.422c-3.484-1.842-7.656-1.952-11.244-.202z" fill="#514654"/><path d="m102.003 56.987 22.313-20.852-5.673-5.564z" fill="#403742"/><path d="m40.245 172.078c-7.902 0-15.265-2.157-21.482-5.868.014.034.025.068.039.102 2.992 7.364 8.585 13.975 15.627 17.766 8.902 4.792 24.897 4.6 32.458-2.585 7.231-6.872 7.719-15.67 5.513-24.55-7.346 9.191-19.013 15.135-32.155 15.135z" fill="#727d43"/><path d="m134.281 242.687-15.516-2.241-9.629-3.611c-2.279-.855-4.695-1.288-7.129-1.278l-44.871-2.258-.469-15.964c.125-7.147 1.53-14.213 4.149-20.864l8.529-21.658c1.913-4.858 1.423-10.334-1.323-14.775-1.672-2.705-4.225-4.75-7.229-5.792l-2.828-.981c-4.724-1.638-9.964-.599-13.704 2.719-3.375 2.994-5.078 7.446-4.561 11.928l.865 7.498c.099.857.117 1.721.055 2.582l-2.073 28.68c-.19 2.626-.206 5.263-.048 7.892l2.026 33.769c.105 1.757 1.583 3.115 3.342 3.072l22.183-.537 34.735-4.904 24.519 4.291 8.844-.915c1.708-.177 3.007-1.616 3.007-3.334-.001-1.668-1.225-3.081-2.874-3.319z" fill="#f5d3a6"/></svg>