<svg id="Layer_1_1_" enable-background="new 0 0 256 256" height="512" viewBox="0 0 256 256" width="512" xmlns="http://www.w3.org/2000/svg"><path d="m177.66 100.152-20.749-6.149c-.871-4.147 1.114-8.49 4.529-11.48 5.035-4.41 12.692-3.902 17.102 1.133 4.212 4.81 3.54 12.018-.882 16.496z" fill="#704c0f"/><path d="m164.784 86.365c-.011.01-.022.02-.033.029-1.364 1.202-.683 3.456 1.098 3.821 4.749.974 9.223 3.064 12.349 6.104.463.45.9.929 1.324 1.419-.519.861-1.134 1.677-1.861 2.413l-20.749-6.149c-.093-.444-.14-.89-.167-1.336-.012-.181-.015-.361-.017-.542-.001-.238.009-.474.025-.711.034-.565.11-1.126.235-1.683.001-.003.001-.007.002-.01.607-2.688 2.21-5.234 4.448-7.195 3.341-2.928 8.13-3.64 12.295-2.093 3.159 1.173 5.07 3.118 6.259 5.321-4.486-3.333-10.835-3.218-15.208.612z" fill="#5e400d"/><path d="m175.548 138.165c-5.369 2.473-11.963 3.049-11.963 3.049l-6.894 6.068-4.764-4.287s-7.024 1.533-10.546.599c-4.018-1.066-8.318-6.047-10.623-9.223-1.872-2.579-2.617-5.494-2.713-8.513-.124-3.908.841-7.992 1.863-11.751 1.088-4.005 4.624-7.294 7.619-9.949.976-.865 2.006-1.713 3.071-2.535 8.753 3.088 34.95 36.541 34.95 36.542z" fill="#f0c792"/><path d="m186.088 123.282c-.416 5.088-3.99 10.981-8.337 13.702-.694.435-1.436.827-2.203 1.18 0 0-26.197-33.453-34.95-36.542 2.886-2.227 6.05-4.245 9.247-5.747 8.516-4.001 21.545-1.838 28.293 4.725 5.843 5.682 8.599 14.731 7.95 22.682z" fill="#704c0f"/><g fill="#5e400d"><path d="m178.846 116.19c-1.022 6.212-5.152 11.383-8.945 14.967-.298-.363-.601-.731-.917-1.113 3.616-3.441 7.525-8.346 8.469-14.083.885-5.371.063-11.668-1.056-16.835.613.467 1.204.952 1.742 1.475.01.009.018.02.028.029.938 4.902 1.503 10.559.679 15.56z"/><path d="m160.929 106.168c-1.974 3.011-3.173 6.616-3.909 10.022-.392-.43-.785-.855-1.177-1.279.784-3.242 2-6.614 3.904-9.518 2.402-3.663 5.332-7.363 7.933-10.437.497.136.988.284 1.474.444-2.664 3.124-5.736 6.972-8.225 10.768z"/><path d="m165.044 94.355c-3.438 1.844-7.317 4.209-10.169 6.765-2.296 2.057-3.957 4.814-5.149 7.491-.37-.358-.733-.701-1.093-1.039 1.244-2.674 2.952-5.401 5.3-7.504 2.511-2.25 5.728-4.327 8.777-6.051.781.079 1.559.198 2.334.338z"/></g><path d="m118.722 144.897-92.865-23.897-5.85-.994c-7.757 8.84-15.007 22.051-15.007 32.994 0 14.5 19.5 19 19.5 19h47.434c5.04 0 10.075-.3 15.079-.898l21.493-2.57c9.25-1.106 18.587-1.173 27.843-.238v-21.804z" fill="#514654"/><path d="m112.737 167.543-22.876 1.766c-5.326.411-10.671.505-16.008.281l-50.233-2.109s-14.313-3.948-18.609-14.233c.224 14.3 19.489 18.752 19.489 18.752h47.434c5.04 0 10.075-.3 15.079-.898l21.493-2.57c9.25-1.106 18.587-1.173 27.843-.238v-.468c-7.84-.78-15.74-.891-23.612-.283z" fill="#403742"/><path d="m27.5 113c-2.397 1.721-4.972 4.133-7.493 7.006l.001.001c5.508 13.507 28.492 15.437 28.492 15.437l15.253 1.853-21.461-33.095c-6.348 3.296-11.619 6.519-14.792 8.798z" fill="#f5d3a6"/><path d="m130.437 112.436c-6.418-10.024-16.55-17.123-28.184-19.64-5.724-1.238-11.295-2.174-15.392-2.276-13.505-.338-31.374 6.83-44.57 13.682l21.461 33.095 22.248 2.703 19.998 4.999c2.651.663 5.391.894 8.116.684 5.753-.443 11.184-2.829 15.401-6.766l.498-.465z" fill="#7f8b4b"/><path d="m243.121 123.215c-.077-1.088-.628-2.087-1.507-2.733-2.032-1.493-4.929-.571-5.725 1.822l-8.489 25.996-8.257 7.414-77.608-8.755-5.186-.469v21.804c2.03.205 4.057.442 6.076.745 8.693 1.304 17.497 1.702 26.272 1.188l9.552-.56 32.126-2.1 21.341 1.724c5.015.405 9.545-2.994 10.559-7.923l.768-3.735-.543-25.133z" fill="#f0c792"/><path d="m48.5 131.443s-20.022-1.685-27.167-12.894c-.443.473-.885.955-1.326 1.457l.001.001c5.508 13.507 28.492 15.437 28.492 15.437l15.253 1.853-2.816-4.342z" fill="#f0c792"/><path d="m130.373 112.341s-10.507 28.9-16.26 29.342c-2.724.21-5.465-.021-8.116-.684l-19.997-4.999-7.135-.867c-9.578-1.164-18.146-6.514-23.395-14.609l-11.228-17.315c-.657.331-1.314.662-1.95.993l21.461 33.095 22.247 2.703 19.998 4.999c2.651.663 5.391.894 8.116.684 5.753-.443 11.184-2.829 15.401-6.766l.498-.465.425-26.016c-.022-.032-.044-.063-.065-.095z" fill="#727d43"/><path d="m184 152-26-19-18.999-15.772c-4.848-4.025-10.95-6.228-17.251-6.228h-2.097c-2.37 0-4.674.778-6.559 2.214-4.339 3.306-5.539 9.325-2.8 14.043 2.69 4.633 7.131 7.989 12.323 9.312l9.883 2.518 14.671 12.784c6.185 5.389 13.141 9.823 20.637 13.155l16.996 7.554c2.064.918 4.386 1.078 6.557.454l36.639-10.534 17-5.5 4.485-1.121c.89-.223 1.515-1.023 1.515-1.94v-12.939l-8.5-8.5-1.5 9-20 10z" fill="#f5d3a6"/></svg>