<svg id="Layer_1_1_" enable-background="new 0 0 256 256" height="512" viewBox="0 0 256 256" width="512" xmlns="http://www.w3.org/2000/svg"><path d="m117.933 240.648-10.221.136h-3.426l1.714-10.419 13.908-.759z" fill="#f0c792"/><path d="m170.321 238.113c-2.125-4.625-26.375-37.875-26.375-37.875l-3.285-14.781c-.418-1.882-2.749-2.561-4.112-1.198-.538.538-.794 1.295-.694 2.049l1.466 11.054-1.909-1.601c-1.081-.907-2.695-.752-3.585.343-.895 1.101-.708 2.723.415 3.592l8.454 6.542 7.753 15.07c.742 1.442 1.229 3.002 1.44 4.611.439 3.351 2.069 6.432 4.592 8.68l-.478-.426-11.529-1.708c-3.214-.476-6.246-1.786-8.796-3.799l-5.579-4.405c-1.562-1.233-3.47-1.94-5.458-2.021-.494-.02-1.016-.041-1.539-.063-2.996-.123-5.871 1.185-7.746 3.526-.036.045-.072.09-.108.135-2.512 3.135-2.698 7.54-.46 10.876.06.089.119.177.178.265 1.698 2.531 4.344 4.268 7.342 4.818l1.315.242c4.789.88 9.648 1.332 14.517 1.348l29.181.1c0 .001 7.125-.749 5-5.374z" fill="#f0c792"/><path d="m179 243.375c-2.125-4.625-26.375-37.875-26.375-37.875l-3.285-14.781c-.418-1.882-2.749-2.561-4.112-1.198-.538.538-.794 1.295-.694 2.049l1.466 11.055-1.909-1.601c-1.081-.907-2.695-.752-3.585.343-.895 1.101-.708 2.723.415 3.592l8.454 6.542 7.753 15.07c.742 1.442 1.229 3.002 1.44 4.611.439 3.351 2.069 6.432 4.592 8.68l-.478-.426-11.529-1.708c-3.214-.476-6.246-1.786-8.796-3.799l-5.579-4.405c-1.562-1.233-3.47-1.94-5.458-2.021-.494-.02-1.016-.041-1.539-.063-2.996-.123-5.871 1.185-7.746 3.526-.036.045-.072.09-.108.135-2.512 3.135-2.698 7.54-.46 10.876.06.089.119.177.178.265 1.698 2.531 4.344 4.268 7.342 4.818l1.315.242c4.789.88 9.648 1.332 14.517 1.348l29.181.1s7.125-.75 5-5.375z" fill="#f5d3a6"/><path d="m139.786 77.743c0-8.997-5.206-28.406-6.581-33.379-.213-.771-.15-1.585.175-2.316l2.506-5.986c.803-1.919.621-4.11-.488-5.87l-3.561-5.651c-1.552-2.463-2.799-5.105-3.714-7.868l-3.116-9.411c-1.304-1.884-3.931-2.268-5.72-.837-1.435 1.148-1.89 3.135-1.097 4.793l6.359 30.333-.067 30.925c.213 3.403-.121 6.814-.978 10.114-.193.744-.404 1.576-.623 2.446l16.265 1.144c.362-2.078.64-4.84.64-8.437z" fill="#f5d3a6"/><path d="m149.815 148.399c-2.12-5.267-3.492-10.793-4.042-16.443-.401-4.12-.891-8.828-1.38-12.743-.862-6.893-4.301-18.941-5.98-24.576-.534-1.792-.488-3.693.048-5.485.232-.773.472-1.757.684-2.972l-16.265-1.144c-2.045 8.157-4.982 21.305-4.982 29.569 0 12.671 2.304 39.495 2.304 41.799s-1.152 20.279-1.152 20.279l25.95-.266s2.85-5.038 6.305-13.101c1.9-4.433.319-10.421-1.49-14.917z" fill="#514654"/><path d="m145.917 187h-26.867v8.167c0 3.229-.784 6.41-2.283 9.269l-2.427 4.627c-.559 1.066-1.021 2.181-1.379 3.331-.96 3.08-1.159 6.347-.58 9.52l2.428 13.307c.629 3.446 3.132 6.25 6.484 7.265.081.024 1.517.336 3.304.722 4.449.959 9.071-.585 12.045-4.03 4.486-3.36 7.398-8.413 8.057-13.979.822-6.938 1.84-15.542 1.871-15.869l-.482-20.346z" fill="#7f8b4b"/><path d="m145 176.417-25.949.266v10.317h26.866z" fill="#f5d3a6"/><path d="m143.27 222.551c-12.852-7.351-22.254-19.475-24.051-34.171l-.169-1.38v8.167c0 3.229-.783 6.409-2.283 9.269l-2.427 4.628c-.559 1.066-1.021 2.181-1.379 3.331-.96 3.08-1.159 6.347-.58 9.52l2.428 13.307c.629 3.446 3.132 6.25 6.484 7.265.081.024 1.517.336 3.304.722 4.449.959 9.071-.585 12.045-4.03 4.486-3.36 7.398-8.413 8.057-13.979.145-1.214-.412-2.068-1.429-2.649z" fill="#727d43"/><path d="m80.101 237.756 11.298 7.248c-.198 2.621-2.131 4.865-4.681 6.056-3.761 1.757-8.235.132-9.991-3.63-1.679-3.594-.034-7.771 3.374-9.674z" fill="#704c0f"/><path d="m85.389 248.193c.008-.004.017-.008.025-.012 1.02-.48 1.004-1.94.006-2.466-2.661-1.401-4.965-3.419-6.302-5.77-.198-.348-.375-.709-.543-1.074.458-.423.965-.803 1.526-1.116l11.298 7.248c-.021.281-.07.554-.131.825-.024.11-.053.218-.083.326-.041.142-.088.281-.138.419-.118.331-.26.652-.431.962-.001.002-.002.004-.003.006-.826 1.496-2.22 2.736-3.893 3.518-2.496 1.167-5.472.764-7.685-.877-1.679-1.245-2.481-2.733-2.809-4.251 2.094 2.759 5.896 3.787 9.163 2.262z" fill="#5e400d"/><path d="m87.926 215.477c3.625-.545 7.653.25 7.653.25l5.155-2.424 2.097 3.377s4.449.3 6.385 1.465c2.209 1.329 3.91 5.039 4.734 7.33.669 1.86.61 3.725.145 5.54-.601 2.35-1.882 4.616-3.14 6.678-1.34 2.197-4.014 3.546-6.257 4.61-.731.347-1.491.674-2.267.98-4.68-3.352-14.505-27.805-14.505-27.806z" fill="#f5d3a6"/><path d="m79.077 222.521c1.127-2.959 4.274-5.852 7.333-6.722.489-.139.998-.244 1.516-.322 0 0 9.825 24.453 14.505 27.805-2.104.828-4.338 1.483-6.501 1.826-5.764.912-13.151-2.628-16.037-7.703-2.499-4.393-2.577-10.259-.816-14.884z" fill="#704c0f"/><g fill="#5e400d"><path d="m82.165 227.997c1.682-3.524 5.036-5.89 7.914-7.37.115.268.232.54.354.821-2.749 1.425-5.924 3.672-7.478 6.926-1.455 3.046-2.053 6.939-2.28 10.211-.284-.384-.553-.775-.783-1.18-.004-.007-.008-.015-.012-.022.289-3.082.931-6.549 2.285-9.386z"/><path d="m91.106 237.063c1.696-1.452 3.033-3.393 4.06-5.295.159.324.32.645.48.965-1.028 1.796-2.334 3.594-3.97 4.995-2.064 1.767-4.448 3.465-6.529 4.847-.273-.167-.539-.34-.801-.519 2.127-1.401 4.622-3.162 6.76-4.993z"/><path d="m86.614 243.388c2.367-.505 5.086-1.243 7.226-2.273 1.723-.829 3.189-2.184 4.361-3.573.158.277.315.544.472.808-1.203 1.378-2.692 2.707-4.453 3.555-1.884.906-4.16 1.588-6.273 2.088-.452-.182-.896-.388-1.333-.605z"/></g><path d="m179 243.375c-2.125-4.625-26.375-37.875-26.375-37.875l-3.285-14.781c-.418-1.882-2.749-2.561-4.112-1.198-.538.538-.794 1.295-.694 2.049l1.466 11.055-1.909-1.601c-1.081-.907-2.695-.752-3.585.343-.895 1.101-.708 2.723.415 3.592l8.454 6.542 7.753 15.07c.742 1.442 1.229 3.002 1.44 4.611.439 3.351 2.069 6.432 4.592 8.68l-.478-.426-11.529-1.708c-3.214-.476-6.246-1.786-8.796-3.799l-5.579-4.405c-1.562-1.233-3.47-1.94-5.458-2.021-.494-.02-1.016-.041-1.539-.063-2.996-.123-5.871 1.185-7.746 3.526-.036.045-.072.09-.108.135-2.512 3.135-2.698 7.54-.46 10.876.06.089.119.177.178.265 1.698 2.531 4.344 4.268 7.342 4.818l1.315.242c4.789.88 9.648 1.332 14.517 1.348l29.181.1s7.125-.75 5-5.375z" fill="#f5d3a6"/></svg>