<svg id="Layer_1_1_" enable-background="new 0 0 256 256" height="512" viewBox="0 0 256 256" width="512" xmlns="http://www.w3.org/2000/svg"><path d="m250.452 114.462c-.126-.845-.505-1.636-1.091-2.278l-3.411-3.734-.002-.001c1.408-.649 2.575-1.785 3.197-3.279.892-2.14.471-4.579-1.091-6.329l-5.128-5.743c-3.505-3.926-8.467-6.384-13.83-6.852l-13.865-1.21-10.453-6.021c-.874-.503-1.874-.769-2.893-.769-2.783 0-5.147 1.955-5.56 4.597l-.292 1.87s-3.917.354-7.539.969l1.192 43.415c5.983-4.659 16.788-13.343 16.788-13.343l15.493 3.88 5.934 1.855c5.494 1.717 11.462 1.371 16.701-.968l3.247-1.45c1.831-.817 2.888-2.689 2.603-4.609z" fill="#f5d3a6"/><path d="m198.499 113.768-9.159 2.754.345 12.576c3.6-2.803 8.944-7.062 12.631-10.012l2.423-3.731c2.598-4 7.712-5.52 12.07-3.582 3.222 1.433 7.086 3.114 10.769 4.619 5.813 2.376 16.01 1.825 22.08 1.209.651-.893.961-2.005.792-3.139-.126-.845-.505-1.636-1.091-2.278l-3.411-3.734c-17.015-.228-38.613-8.552-38.613-8.552z" fill="#f0c792"/><path d="m198.499 113.768c-5.474-26.904-10.005-28.086-10.005-28.086-3.09.525-5.799 1.288-6.944 2.264-.672.572-2.582 1.97-3.161 2.392-15.347-12.764-48.338-39.01-64.875-43.134-2.5-.623-5.589-.756-8.956-.496l-2.413 61.741 48.456 25.436c4.817 1.392 12.323 4.086 15.794 4.503 5.389.647 16.167-3.88 20.882-7.437.643-.485 1.466-1.119 2.41-1.854l.441-8.852-.005-.033c3.439-1.12 6.482-3.472 8.376-6.444z" fill="#514654"/><path d="m106.499 48.498c-.719-.743-1.379-1.36-1.942-1.789-9.949.768-22.328 4.961-29.123 10.035-7.944 5.931-26.614 30.649-30.72 35.97l28.897 56.322 1.975-.448c9.568-2.172 18.559-6.37 26.368-12.31l4.879-3.711 7.978-28.374 1.817-28.597c.433-10.032-3.147-19.882-10.129-27.098z" fill="#7f8b4b"/><path d="m127.659 91.827 50.567 27.269c2.605 1.405 5.588 2.028 8.565 1.79 1.132-.091 2.248-.32 3.325-.671 0 0 .634 7.856-9.437 7.535s-53.02-35.923-53.02-35.923z" fill="#403742"/><path d="m104.556 46.709c-2.497.193-5.148.602-7.824 1.186 4.285 6.96 11.411 19.84 11.411 28.534 0 9.42-2.462 42.47-3.654 57.921l2.344-1.783 7.978-28.374 1.817-28.597c.433-10.032-3.146-19.882-10.129-27.098-.719-.743-1.38-1.36-1.943-1.789z" fill="#f5d3a6"/><path d="m93.982 48.561c-7.08 1.848-14.043 4.818-18.548 8.182-7.944 5.932-26.614 30.65-30.72 35.971l28.897 56.322 1.975-.448c3.743-.85 7.393-2.019 10.923-3.472-13.566-31.65-10.583-67.726 7.473-96.555z" fill="#727d43"/><path d="m19.054 121.122-1.443.638c-5.522 4.319-9.322 10.466-10.716 17.337-.991 4.885-.726 9.941.771 14.696l15.092 47.938c.031.706-.27 1.386-.813 1.838l-7.912 6.594c-2.072 1.727-1.402 5.064 1.176 5.857l8.067 2.482c.438.135.899.18 1.355.132l15.239-1.604c2.541-.267 3.888-3.138 2.471-5.264l-1.413-2.12 8.397-.933c.798-.089 1.517-.624 1.725-1.399.315-1.173-.465-2.274-1.585-2.434l-12.152-1.736c-1.16-.166-2.002-1.188-1.942-2.358l-8.605-53.144 8.58-8.506z" fill="#f5d3a6"/><path d="m26.765 147.642 3.256-3.229-1.109-5.962-11.198 7.406 13.679 30.367z" fill="#f0c792"/><path d="m33.457 98.905c-13.128 6.42-17.661 24.118-10.124 39.529.965 1.974 2.143 3.932 3.485 5.835-3.67-13.598 1.395-27.432 12.704-32.963 11.306-5.529 25.094-1.788 33.575 9.45-.63-1.951-1.369-3.825-2.223-5.572-7.537-15.41-24.289-22.699-37.417-16.279z" fill="#704c0f"/><path d="m22.186 110.867c2.294-5.177 6.116-9.441 11.271-11.962 5.184-2.535 10.932-2.925 16.456-1.529l.011-.005c-.268-1.108-.466-2.409-.987-3.475-3.908-7.991-13.554-11.301-21.545-7.393s-11.301 13.554-7.393 21.545c.564 1.153 1.395 1.874 2.176 2.824z" fill="#704c0f"/><path d="m39.522 111.307c-11.31 5.531-16.374 19.365-12.704 32.963 9.135 12.952 26.024 23.277 37.47 17.679 11.64-5.692 13.735-25.933 8.809-41.192-8.481-11.237-22.269-14.979-33.575-9.45z" fill="#f5d3a6"/><g fill="#5e400d"><path d="m25.25 105.66c-.181.237-.354.481-.526.725-.043 6.824 2.151 12.504 3.9 15.937.094-.19.19-.38.288-.568-1.753-3.531-3.867-9.264-3.662-16.094z"/><path d="m26.78 103.861c-.141.151-.279.304-.416.458 1.377 5.579 3.924 9.984 5.798 12.665.115-.133.234-.262.352-.392-1.877-2.702-4.412-7.128-5.734-12.731z"/><path d="m44.104 96.584c4.913 3.048 11.21 7.782 14.529 13.572.195.065.392.121.586.191.029-.07.035-.147-.005-.218-3.17-5.69-9.186-10.378-14.096-13.51-.339-.021-.677-.029-1.014-.035z"/><path d="m50.679 108.789c.226.002.451.027.677.036-.048-.064-.093-.125-.142-.189-3.453-4.533-10.031-8.82-14.017-11.167-.221.063-.44.139-.66.209 3.852 2.239 10.586 6.546 14.142 11.111z"/><path d="m49.913 97.376.011-.005c-.163-.674-.308-1.417-.508-2.138-5.715-1.591-11.705-1.266-17.087 1.366-5.376 2.629-9.308 7.151-11.562 12.63.442.56.931 1.063 1.408 1.644l.011-.006c2.294-5.177 6.116-9.441 11.271-11.962 5.184-2.535 10.932-2.925 16.456-1.529z"/></g><path d="m124.288 110.346c-3.541-2.485-6.387-12.941-8.395-23.199l-1.083 17.045-2.672 9.505 38.46 20.189c4.817 1.392 12.323 4.086 15.794 4.503 1.715.206 3.977-.115 6.414-.759-13.667-9.648-42.657-23.172-48.518-27.284z" fill="#403742"/><path d="m156.784 211.203-8.342-5.959 4.897-26.078c1.224-6.519 5.347-40.659 1.954-43.831-5.048-4.718-21.939-11.456-28.293-17.335-6.894-6.378-14.134-15.57-23.701-16.987-3.681-.545-7.436.383-10.352 2.558-4.371 3.26-6.103 8.733-4.337 13.7l.234.658c.912 2.565 2.689 4.783 5.062 6.319l10.846 7.019c3.079 1.992 6.313 3.766 9.674 5.306l21.352 9.781-.538 54.848-3.772 2.273-10.844 1.396c-1.659.214-2.896 1.543-2.896 3.113 0 1.804 1.616 3.238 3.537 3.138l6.161-.321-.202 5.491c-.038 1.041.768 1.938 1.869 2.073 3.931.483 12.529 1.53 13.151 1.53.573 0 9.125-3.297 14.062-5.219 1.537-.598 1.8-2.528.478-3.473z" fill="#f5d3a6"/><path d="m127 118c-.687-.635-1.378-1.303-2.073-1.984 4.274 5.572 10.815 13.459 16.392 17.442 3.993 2.852 9.889 6.366 15.275 9.425-.058-3.888-.432-6.736-1.301-7.548-5.048-4.718-21.939-11.456-28.293-17.335z" fill="#f0c792"/><path d="m135.779 146.354-.328 33.495c1.949-10.296 4.407-23.965 4.407-27.457-.001-5.785-4.079-6.038-4.079-6.038z" fill="#f0c792"/></svg>