<svg id="Layer_1_1_" enable-background="new 0 0 256 256" height="512" viewBox="0 0 256 256" width="512" xmlns="http://www.w3.org/2000/svg"><path d="m226.591 232.035-15.828-3.769c-1.314-.313-2.3-1.4-2.485-2.738l-3.603-26.121 4.49-35.637c.377-2.991.467-6.012.269-9.021l-.591-8.975-14.441 10.345-2.461 22.088c-.628 5.637-.474 11.333.459 16.928l3.372 20.233c.723 4.339 1.708 8.631 2.95 12.852l1.724 5.86c.77 2.619 3.173 4.417 5.903 4.417h19.485c1.808 0 3.274-1.466 3.274-3.274v-.004c-.002-1.515-1.043-2.833-2.517-3.184z" fill="#f5d3a6"/><path d="m201.277 151.194-6.875 4.925-2.461 22.088c-.403 3.618-.479 7.261-.239 10.886 1.692-8.328 3.834-19.453 4.342-24.79.394-4.147 2.765-9.022 5.233-13.109z" fill="#f0c792"/><path d="m71.597 201.207-57.097 31.436-.643-1.286 56.92-31.697-6.275-11.835-11.399 5.417c-4.759 2.262-9.14 5.246-12.987 8.848l-16.295 15.255c-.556.52-1.289.81-2.05.81h-2.046c-.751 0-1.474.281-2.027.789l-1.352 1.24c-.467.428-1.059.698-1.689.769l-7.119.809c-1.516.172-2.661 1.455-2.661 2.981v.852c0 .717.257 1.411.725 1.955l11.815 13.748c.57.663 1.401 1.045 2.275 1.045h.262c1.098 0 2.108-.6 2.634-1.563l2.692-4.935c.526-.964 1.536-1.563 2.634-1.563h2.91c.754 0 1.481-.284 2.035-.796l1.712-1.581c.394-.364.878-.615 1.402-.728l15.233-3.285c5.878-1.268 11.486-3.563 16.566-6.781l10.764-6.817z" fill="#f5d3a6"/><path d="m130.008 139.647c-4.066 1.405-8.019 3.124-11.817 5.155l-3.051 1.632c-6.536 3.496-12.565 7.868-17.918 12.995l-26.624 25.5-6.095 2.896 14.032 26.467 4.033-2.554 44.137-16.452c7.965-2.969 15.297-7.416 21.61-13.108l3.728-3.361c.072-.066-18.194-25.17-22.035-39.17z" fill="#514654"/><path d="m202.698 118.734c1.041-4.006 1.112-8.222.183-12.291l-6.314-27.654c-.84-3.678-1.008-7.477-.495-11.215l.307-2.238c.372-2.713.41-5.461.113-8.183l-2.098-19.217 6.906-10.61c.417-.641.477-1.452.158-2.147-.45-.979-1.536-1.497-2.58-1.23l-4.891 1.252-.689-6.315c-.322-2.951-2.975-5.082-5.926-4.76-2.951.322-5.082 2.975-4.76 5.926l1.113 10.2 3.003 9.503-2.011 35.609 1.161 32.526c.085 2.393.502 4.751 1.227 7.007" fill="#f5d3a6"/><path d="m135.173 138.045c-1.741.475-3.462 1.014-5.165 1.603 3.841 14 11.089 27.747 21.113 38.208l.922.962c1.011-.903 2.269-1.974 3.332-2.815l5.877-4.647c.726-.574 1.554-1.144 2.432-1.709l-18.252-35.164c-3.334 1.407-6.758 2.607-10.259 3.562z" fill="#f5d3a6"/><path d="m210.292 140.216-3.742-5.392-3.161-12.154-.691-3.936-11.162-3.275c-3.029-.889-6.269-.734-9.2.438l-12.698 5.081c-1.526.611-2.992 1.362-4.378 2.244l-7.793 4.959c-3.832 2.439-7.862 4.536-12.035 6.299l18.252 35.164c7.547-4.855 20.013-9.262 25.326-11.023 1.743-.578 3.413-1.338 4.996-2.27l9.888-5.824c3.149-1.855 5.491-4.796 6.602-8.248.222-.687.159-1.437-.204-2.063z" fill="#7f8b4b"/><path d="m207.878 121.651-10.97 2.491c-1.919.172-3.635 1.266-4.601 2.934-1.791 3.093-.458 7.055 2.837 8.437 2.613 1.096 5.544 1.166 8.207.196l9.827-2.72z" fill="#f0c792"/><path d="m247.14 126.5-11.1 11.11c.881 2.946 3.652 5.028 6.865 5.752 4.739 1.067 9.445-1.909 10.513-6.648 1.019-4.527-1.906-8.89-6.278-10.214z" fill="#704c0f"/><path d="m243.706 139.753c-.01-.002-.021-.005-.031-.007-1.286-.294-1.633-1.967-.624-2.817 2.691-2.266 4.82-5.149 5.76-8.171.139-.448.252-.904.352-1.364-.629-.369-1.304-.676-2.023-.894l-11.1 11.11c.094.315.219.616.356.91.055.119.116.235.177.351.082.152.17.299.263.445.218.349.46.68.733.992.002.002.003.004.005.006 1.318 1.504 3.222 2.572 5.329 3.047 3.145.709 6.445-.496 8.565-2.925 1.608-1.842 2.153-3.744 2.147-5.562-1.705 3.68-5.793 5.806-9.909 4.879z" fill="#5e400d"/><path d="m232.624 102.993c-4.28.283-8.685 2.2-8.685 2.2l-6.498-1.481-1.553 4.384s-5.01 1.456-6.932 3.272c-2.193 2.072-3.209 6.738-3.578 9.562-.3 2.293.234 4.41 1.22 6.368 1.275 2.535 3.305 4.805 5.259 6.848 2.082 2.177 5.475 3.049 8.305 3.704.922.213 1.872.398 2.837.553 4.51-5.002 9.625-35.409 9.625-35.41z" fill="#f5d3a6"/><path d="m244.501 108.831c-2.028-3.1-6.349-5.62-10.063-5.849-.593-.037-1.202-.03-1.813.011 0 0-5.115 30.408-9.626 35.409 2.612.42 5.329.611 7.888.461 6.816-.399 14.375-6.292 16.404-12.815 1.756-5.647.379-12.371-2.79-17.217z" fill="#704c0f"/><g fill="#5e400d"><path d="m242.34 115.863c-2.804-3.607-7.229-5.473-10.889-6.444-.064.335-.13.675-.199 1.027 3.498.941 7.69 2.715 10.28 6.046 2.425 3.118 4.082 7.418 5.159 11.101.229-.51.438-1.024.6-1.544.003-.009.005-.019.008-.028-1.101-3.452-2.701-7.255-4.959-10.158z"/><path d="m234.388 128.461c-2.302-1.236-4.315-3.12-5.965-5.036-.101.41-.204.817-.308 1.223 1.624 1.796 3.566 3.524 5.787 4.717 2.801 1.504 5.951 2.848 8.674 3.907.27-.259.532-.523.786-.794-2.78-1.07-6.072-2.459-8.974-4.017z"/><path d="m241.104 134.568c-2.831.015-6.124-.149-8.828-.79-2.177-.516-4.191-1.698-5.879-2.993-.112.356-.224.701-.337 1.042 1.72 1.274 3.753 2.421 5.979 2.949 2.38.564 5.152.775 7.693.818.472-.323.927-.669 1.372-1.026z"/></g><path d="m112 175.857c-6.971 3.58-34.641 19.91-41.223 23.803 0 0 1.122 2.117 1.142 2.153-.228-.43 36.582-22.361 40.843-23.944 1.638-.609 9.953-5.012 14.881-1.798 0 0-7.071-12.214-7.071-12.214s-.643 7.929-8.572 12z" fill="#403742"/></svg>