<svg id="Layer_1_1_" enable-background="new 0 0 256 256" height="512" viewBox="0 0 256 256" width="512" xmlns="http://www.w3.org/2000/svg"><path d="m103.613 90.704 3.52 5.576c6.371-2.234 14.166-4.978 16.414-5.822 3.987-1.495 26.912-7.974 26.912-7.974l9.949-4.606 5.36 14.467-10.824 4.592s-24.669 18.439-35.882 23.921-21.353 9.469-21.353 9.469l-3.067 51.255.993 5.062-15.463 1.356-.979-7.913-7.974-50.362-1.316-8.598-1.677-10.957-1.492-9.745z" fill="#514654"/><g fill="#403742"><path d="m107.133 96.28-10.494 4.146 2.962-3.056c1.508-1.556 1.814-3.918.752-5.807h.001l3.259-.859z"/><path d="m103.667 124.34 26.321-9.913c-4.109 2.657-7.982 4.992-10.926 6.432-11.213 5.482-21.353 9.469-21.353 9.469l.065-12.009 1.908 4.344c.671 1.529 2.422 2.265 3.985 1.677z"/><path d="m67.837 107.631c.373-.052.752-.087 1.139-.087 4.742 0 8.586 3.995 8.586 8.923 0 4.375-3.032 8.008-7.03 8.769l-.629-4.108-1.677-10.957z"/></g><path d="m97.669 43.356c4.073-.899 13.58-.99 14.167-.99.748 0 31.646-2.741 31.646-2.741l13.954-4.236 26.662-4.485 10.964-5.233 5.165 2.52-1.415 3.853-5.245 5.588-10.216 1.495-19.685 6.977-18.19 1.715-17.193 6.508-24.314 4.817-7.785-15.252c.47-.233.965-.421 1.485-.536z" fill="#f5d3a6"/><path d="m105.959 49.514c5.602 1.018 20.582 1.518 30.433 1.744l-8.111 3.07-24.314 4.817-7.329-14.357c1.583 1.701 4.456 3.841 9.321 4.726z" fill="#f0c792"/><path d="m98.107 199.243c.347 1.561.507 3.158.477 4.757l-.453 24.006 3.489 12.958 1.416 8.498c.302 1.813-1.096 3.463-2.933 3.463 0 0-5.586-.034-5.836-.101l-3.752-1.001c-1.76-.47-2.689-2.397-1.958-4.066l2.1-4.801 1.495-6.479-9.483-30.818c-.323-1.048-.559-2.121-.707-3.207l-1.788-14.452 15.463-1.356z" fill="#f5d3a6"/><path d="m102.878 89.013.735 1.691-36.879 9.722c-.392-3.539-.667-8.246-.858-12.66l35.115-6.701c.292 2.703.911 5.376 1.887 7.948z" fill="#f5d3a6"/><path d="m100.991 81.065c.291 2.703.91 5.375 1.887 7.948l.735 1.691-3.26.859c-.645-.808-1.201-1.724-1.577-2.765-.619-1.71-.938-4.206-.993-7.121z" fill="#f0c792"/><path d="m51.971 58.678c.863-1.773 2.067-3.358 3.543-4.666l2.616-2.317c2.507-2.221 7.099-3.945 10.442-4.151l-4.282 17.702-12.756 21.396c4.734 6.479 10.964 23.672 10.964 23.672l6.813-.17c1.92-.048 3.689 1.035 4.52 2.766l.59 1.23c.652 1.359.64 2.944-.035 4.293-.987 1.973-3.174 3.039-5.336 2.599l-11.038-2.245-18.439-34.637z" fill="#f5d3a6"/><path d="m65.498 60.255-1.208 4.991-12.756 21.396.998-10.302z" fill="#f0c792"/><path d="m65.169 73.35c-1.424-6.635-1.113-13.526.902-20.006l.954-3.066c.753-2.42 2.723-4.326 5.255-5.082l3.221-.963c.149-.045.302-.072.452-.112l11.462-1.344c1.142-.081 2.289-.043 3.422.125l3.684.548c2.845.423 5.23 2.273 6.237 4.838l2.088 5.315c1.309 3.333 1.494 6.97.528 10.408l-1.39 4.949c-1.112 3.959-1.429 8.067-.994 12.106l-35.115 6.701c-.207-4.785-.315-9.224-.36-11.444-.02-1.002-.136-1.993-.346-2.973z" fill="#7f8b4b"/><path d="m97.783 81.678c-.116-6.078.929-14.003 2.901-20.603 1.655-5.537.489-10.854-.831-14.423.364.504.675 1.049.906 1.636l2.088 5.315c1.309 3.333 1.494 6.97.528 10.408l-1.39 4.949c-1.112 3.959-1.429 8.067-.994 12.106z" fill="#727d43"/><path d="m198.147 27.177 2.08 1.015-1.415 3.853-5.245 5.588-10.216 1.495-1.478.524s9.503-4.841 12.197-6.861c1.249-.938 2.786-3.324 4.077-5.614z" fill="#f0c792"/><path d="m174.14 71.521c2.147-.994 4.172-2.231 6.036-3.687l13.142-10.267 7.725-9.967-1.092-12.793c.062-.59-.085-1.182-.413-1.675l-.724-1.087c-.717-1.076-.514-2.518.473-3.353.887-.751 2.17-.805 3.117-.132l3.244 2.305c2.895 2.057 4.615 5.389 4.615 8.941 0 2.857 1.384 5.537 3.715 7.191l.416.295c2.044 1.451 2.666 4.209 1.441 6.397l-.363.648c-.623 1.113-1.656 1.94-2.879 2.304l-4.231.486c-2.462.283-4.728 1.482-6.347 3.359l-14.599 16.926c-5.132 5.96-11.567 10.657-18.807 13.729l-2.838 1.204-5.36-14.467z" fill="#f5d3a6"/><path d="m76.872 39.312v7.064c0 3.109 2.521 5.63 5.63 5.63 3.109 0 5.63-2.521 5.63-5.63v-8.565z" fill="#f0c792"/><path d="m91.058 7.007 7.209 12.117c2.758-.115 5.183-2.065 6.524-4.7 1.977-3.887.43-8.64-3.457-10.618-3.713-1.889-8.156-.31-10.276 3.201z" fill="#704c0f"/><path d="m101.828 12.928c-.004.009-.009.017-.013.026-.54 1.054-2.073.985-2.589-.081-1.376-2.843-3.413-5.333-5.834-6.82-.359-.22-.731-.419-1.108-.608-.461.466-.877.985-1.226 1.562l7.209 12.117c.295-.012.584-.054.87-.108.116-.022.23-.048.345-.076.15-.038.298-.082.445-.13.351-.112.694-.25 1.025-.418.002-.001.004-.002.006-.003 1.6-.814 2.951-2.234 3.831-3.962 1.313-2.579.995-5.717-.649-8.099-1.247-1.807-2.781-2.702-4.364-3.099 2.825 2.295 3.77 6.323 2.052 9.699z" fill="#5e400d"/><path d="m67.393 14.433c-.701 3.787-.008 8.043-.008 8.043l-2.727 5.326 3.471 2.321s.158 4.681 1.312 6.756c1.317 2.367 5.152 4.283 7.527 5.23 1.929.768 3.889.772 5.811.349 2.488-.548 4.912-1.812 7.122-3.06 2.354-1.329 3.865-4.089 5.061-6.406.39-.755.76-1.541 1.109-2.346-3.354-5.032-28.678-16.213-28.678-16.213z" fill="#f5d3a6"/><path d="m75.101 5.392c-3.146 1.078-6.295 4.28-7.316 7.461-.163.508-.292 1.039-.392 1.58 0 0 25.324 11.181 28.678 16.213.944-2.179 1.711-4.501 2.147-6.761 1.161-6.019-2.293-13.9-7.519-17.109-4.525-2.779-10.681-3.069-15.598-1.384z" fill="#704c0f"/><path d="m80.74 8.828c-3.759 1.641-6.362 5.078-8.017 8.048.277.13.558.263.85.4 1.593-2.835 4.064-6.09 7.536-7.606 3.25-1.419 7.358-1.91 10.801-2.032-.393-.312-.794-.608-1.211-.864-.007-.005-.015-.008-.023-.013-3.246.195-6.91.746-9.936 2.067z" fill="#5e400d"/><path d="m89.942 18.536c-1.585 1.729-3.67 3.064-5.702 4.075.335.179.666.359.996.538 1.922-1.015 3.856-2.323 5.385-3.991 1.928-2.104 3.795-4.547 5.319-6.683-.166-.292-.337-.578-.517-.859-1.546 2.183-3.483 4.74-5.481 6.92z" fill="#5e400d"/><path d="m96.741 14.044c-.614 2.467-1.485 5.295-2.642 7.506-.931 1.78-2.405 3.27-3.905 4.452.285.176.56.35.832.524 1.489-1.214 2.937-2.73 3.889-4.55 1.018-1.946 1.814-4.311 2.414-6.512-.175-.481-.375-.953-.588-1.42z" fill="#5e400d"/></svg>