<svg id="Layer_1_1_" enable-background="new 0 0 256 256" height="512" viewBox="0 0 256 256" width="512" xmlns="http://www.w3.org/2000/svg"><path d="m160.239 238.793-1.776-8.435.602-12.554c.418-6.061.842-12.403.842-13.24 0-.645-.629-4.558-1.395-9.09l-8.094.909 2.286 2.193-3.383 4.467s-.055 4.038-1.319 7.416c0 0-.111-.075-.303-.204l2.462 25.242-8.44 2.96-7.978 1.425c-.977.14-1.792.82-2.104 1.756-.563 1.688.694 3.431 2.473 3.431h21.034c3.305.001 5.774-3.041 5.093-6.276z" fill="#f5d3a6"/><path d="m160.133 217.876-4.061-.271c-.922-.061-1.766.517-2.042 1.399l-.689 2.205c-.06.193-.091.394-.091.597v5.875c0 .921.63 1.724 1.525 1.943l2.883.706c.537.132 1.105.035 1.569-.268l1.867-1.219c.566-.369.907-.999.907-1.675v-7.296c-.001-1.054-.817-1.926-1.868-1.996z" fill="#f0c792"/><path d="m150 33.333-.611-25.667c-.031-1.298-1.092-2.333-2.39-2.333-1.297 0-2.358 1.035-2.39 2.332l-.276 11.335-6.046 6.87c-.716.814-.654 2.051.142 2.788l3.245 3.008-1.396 11.487c-.846 6.958-.507 14.01 1.003 20.854l.44 1.993h10.678z" fill="#f5d3a6"/><path d="m138.996 182.098c1.628.014 3.218.368 4.687 1.277 2.036 1.26 5.26 3.653 6.089 6.05.726 2.102.109 6.444.109 6.444l.536.514 8.094-.909c-1.2-7.094-2.738-15.709-2.738-15.709l-2.276-55.26c-1.17-7.828.836-21.172.836-21.172l1.672-20.615c.217-2.676-.081-5.369-.877-7.933l-2.729-8.785h-10.678l2.279 10.333-7.448 28.932c-.801 3.113-2.322 5.995-4.439 8.415l-3.797 4.34c-3.013 3.444-4.792 7.794-5.054 12.363-.175 3.042.329 6.085 1.475 8.909z" fill="#514654"/><path d="m124.966 213.449-4.672-12.35c-2.562-.344-5.116 1.059-6.783 3.271-2.457 3.262-1.805 7.898 1.457 10.356 3.116 2.347 7.471 1.615 9.998-1.277z" fill="#704c0f"/><path d="m115.999 206.233c.005-.007.011-.014.016-.022.67-.884 2.072-.571 2.374.497.806 2.846 2.278 5.475 4.268 7.241.295.262.605.506.923.742.501-.355.969-.765 1.385-1.241l-4.672-12.35c-.274-.037-.548-.046-.82-.042-.111.001-.22.007-.33.014-.145.01-.288.027-.432.047-.342.046-.681.117-1.014.218-.002.001-.004.001-.006.002-1.608.49-3.086 1.579-4.179 3.029-1.632 2.164-1.85 5.11-.722 7.575.856 1.87 2.125 2.945 3.519 3.57-2.23-2.579-2.444-6.447-.31-9.28z" fill="#5e400d"/><path d="m148.001 210.459c1.264-3.378 1.319-7.416 1.319-7.416l3.383-4.467-2.822-2.707s.618-4.343-.109-6.444c-.829-2.397-4.053-4.79-6.089-6.05-1.653-1.023-3.46-1.346-5.302-1.269-2.384.1-4.826.87-7.067 1.661-2.388.842-4.231 3.141-5.712 5.082-.482.632-.953 1.297-1.405 1.982 2.273 5.188 23.804 19.628 23.804 19.628z" fill="#f0c792"/><path d="m139.418 217.54c3.077-.481 6.503-2.92 7.964-5.688.233-.442.439-.911.619-1.393 0 0-21.531-14.44-23.803-19.627-1.226 1.856-2.312 3.872-3.082 5.885-2.052 5.361-.152 13.192 4.144 17.004 3.72 3.3 9.349 4.571 14.158 3.819z" fill="#704c0f"/><g fill="#5e400d"><path d="m134.778 213.451c3.734-.901 6.695-3.646 8.706-6.115-.234-.165-.472-.333-.718-.508-1.931 2.355-4.741 4.953-8.19 5.785-3.228.779-7.097.562-10.292.113.311.352.633.69.976.994.006.005.013.01.019.016 3.025.351 6.493.441 9.499-.285z"/><path d="m127.876 202.999c1.743-1.336 3.884-2.227 5.923-2.828-.279-.22-.555-.439-.831-.659-1.938.623-3.935 1.513-5.616 2.802-2.121 1.626-4.241 3.575-5.995 5.295.105.296.217.588.336.877 1.781-1.76 3.984-3.802 6.183-5.487z"/><path d="m120.872 206.033c.968-2.175 2.233-4.641 3.66-6.492 1.149-1.489 2.752-2.624 4.327-3.469-.234-.209-.459-.414-.681-.619-1.571.877-3.154 2.039-4.329 3.561-1.256 1.629-2.376 3.68-3.288 5.612.084.473.192.941.311 1.407z"/></g><path d="m120.362 172.9c-.003-1.644.024-3.307.068-4.907.178-6.424.954-12.813 2.28-19.1l2.026-9.601s14.513-4.541 20.013 5.209l-.432 17.939c-.045 1.852.307 3.693 1.03 5.399 1.813 4.274 1.236 9.2-1.567 12.9-1.875 2.475-6.333 5.155-9.982 7.289l-7.194-4.21c-3.876-2.268-6.233-6.427-6.242-10.918z" fill="#7f8b4b"/><path d="m111.667 213.333-2.37 28.601c-.128.929-.813 1.684-1.726 1.901l-10.992 2.617c-1.024.244-1.747 1.159-1.747 2.212v.003c0 1.256 1.018 2.273 2.273 2.273h13.532c1.896 0 3.565-1.249 4.099-3.067l1.197-4.07c.862-2.931 1.546-5.911 2.048-8.925l3.318-19.907 12.195-21.728c2.279-4.061 3.228-8.733 2.714-13.361-.324-2.918-2.475-5.303-5.344-5.927-1.83-.398-3.743-.028-5.292 1.024-4.32 2.931-6.907 7.813-6.907 13.033 0 2.421-.379 4.826-1.123 7.13z" fill="#f5d3a6"/><path d="m143.684 183.375c.013.008.027.018.04.026 1.635-1.156 3.285-2.585 4.278-4.169 2.519-4.018-1.555-13.179-2.037-15.589-.482-2.411.964-9.482 1.768-13.178.804-3.697-2.982-18.072-2.982-18.072v12.107l-.432 17.939c-.045 1.853.307 3.693 1.03 5.399 1.813 4.273 1.236 9.2-1.567 12.9-.459.606-1.078 1.224-1.797 1.843.579.197 1.148.454 1.699.794z" fill="#403742"/></svg>