<svg id="Layer_1_1_" enable-background="new 0 0 256 256" height="512" viewBox="0 0 256 256" width="512" xmlns="http://www.w3.org/2000/svg"><path d="m66.588 104.912c.422-4.588 9.578-14.412 9.578-14.412l6.167-18.833-.751-4.616c-.255-1.566.388-3.143 1.666-4.084l1.086-.8.554-2.549c.176-.808.722-1.487 1.474-1.832l.767-.351c1.175-.538 2.566-.143 3.283.932l.924 1.386c1.178 1.767 1.647 3.913 1.313 6.01l-.649 4.07-2.833 4.333-.333 17.5-3.513 7.728" fill="#f5d3a6"/><path d="m116.709 104.76c-7.395-.76-13.503-.84-16.65-.811-1.583.015-3.154-.282-4.627-.862l-6.935-2.732c-4.667-1.839-9.848-1.894-14.553-.155-2.763 1.021-5.272 2.629-7.355 4.712l-2.211 2.211c-5.684 5.684-8.878 13.394-8.878 21.433 0 5.284 3.868 9.772 9.094 10.552l13.447 2.007c1.697.253 2.196.519 3.818-.04l24.141-8.325 5.613 1.695c.025-2.185.123-7.689.512-13.32.407-5.904 3.463-13.68 4.584-16.365z" fill="#7f8b4b"/><path d="m147.857 109.501 18.286-20.947c.891-1.02 2.021-1.803 3.289-2.279l1.317-.494c2.175-.816 4.594-.668 6.654.407 2.933 1.53 5.589 3.541 7.856 5.95l4.073 4.326-.958.26c-5.739 1.445-10.563 5.32-13.212 10.613l9.3 9.807z" fill="#403742"/><path d="m247.505 136.109-4.138-2.558c-1.128-.697-2.348-1.231-3.626-1.586l-20.254-5.629-8.034-6.377-22.121-23.495-.958.26c-5.739 1.445-10.563 5.32-13.212 10.613l3.49 6.608 40.659 22.389 4.816 3.684c1.566 1.198 3.361 2.063 5.275 2.542l4.282 1.071c1.86.465 3.794.555 5.689.265l6.758-1.034c.983-.15 1.862-.693 2.438-1.503 1.226-1.73.739-4.136-1.064-5.25z" fill="#f0c792"/><path d="m45.591 116.664 2.175 13.892 9.897-2.975c2.099-.631 3.61-2.465 3.827-4.646.311-3.12-2.087-5.851-5.221-5.946z" fill="#f0c792"/><path d="m25.002 96.479c-4.992 0-9.039 4.047-9.039 9.039 0 .944.146 1.854.414 2.709l17.608-1.72c.035-.325.057-.655.057-.99-.001-4.991-4.048-9.038-9.04-9.038z" fill="#704c0f"/><path d="m25.002 96.479c-.512 0-1.011.053-1.5.135 1.012.169 1.968.507 2.837.982 2.825 1.546 1.877 5.825-1.331 6.109-3.177.281-6.256 1.161-8.98 2.665.06.638.163 1.265.349 1.858l17.608-1.72c.035-.325.057-.655.057-.99-.001-4.992-4.048-9.039-9.04-9.039z" fill="#5e400d"/><path d="m126.168 106.052c-3.293-.566-6.479-.986-9.459-1.292-1.121 2.684-4.177 10.461-4.584 16.365-.388 5.63-.487 11.134-.512 13.32l7.539 2.276c-1.062-12.63 5.25-26.952 7.016-30.669z" fill="#f5d3a6"/><path d="m219.156 140.708.452-12.916c.086-2.465-1.294-4.745-3.51-5.828-5.041-2.462-10.436-4.124-15.989-4.925l-67.859-9.79c-2.05-.462-4.083-.854-6.082-1.198-1.766 3.716-8.078 18.039-7.016 30.668l.097.029 4.896 2.825c6.717 3.875 18.559 7.046 26.314 7.046 3.469-.409 6.778-1.692 9.616-3.729 3.525-2.531 7.759-3.885 12.099-3.87l30.325.099-.336 2.725c-.132 1.071-.218 2.145-.273 3.221 7.402.237 14.656-3.035 17.266-4.357z" fill="#514654"/><path d="m227.224 210.882-9.224-37.132 1.156-33.042c-2.61 1.322-9.864 4.594-17.266 4.36-.195 3.846.099 7.705.893 11.482l4.717 22.45-5.648 7.867c-.343.478-.625 1.007-.779 1.575-.663 2.439.429 4.809 2.417 5.945l12.01 6.863 5.083 12.038c.959 2.272 3.881 2.878 5.665 1.211.861-.804 1.26-2.473.976-3.617z" fill="#f5d3a6"/><path d="m21.333 120c4.463-3.571 16.871-8.774 19.735-9.951-2.445-1.81-5.272-3.118-8.207-3.872-9.038-2.323-19.379.747-23.294 9.789-2.26 5.218-1.719 11.765.697 16.693.789 1.61 2.156 3.128 3.758 4.311.971-3.697 3.993-14.315 7.311-16.97z" fill="#704c0f"/><path d="m47.866 118.572c-.94-1.995-2.102-3.811-3.242-5.188-1.042-1.258-2.247-2.365-3.556-3.335-2.864 1.177-15.272 6.38-19.735 9.951-3.318 2.655-6.34 13.273-7.311 16.969 1.535 1.133 3.287 1.957 4.967 2.239 4.387.737 12.185.291 12.185.291l5.888 2.039 1.93-4.032s7.964-2.41 10.173-7.429c1.461-3.318.478-7.733-1.299-11.505z" fill="#f5d3a6"/><g fill="#5e400d"><path d="m17.251 116.398c-1.183-3.778-.001-7.271.839-9.068-.479.222-.945.465-1.402.726-.786 2.08-1.463 5.218-.391 8.64.691 2.205 1.76 4.365 2.828 6.21.196-.351.395-.68.597-.99-.948-1.685-1.868-3.594-2.471-5.518z"/><path d="m31.354 110.146c-1.906-1.906-4.084-3.658-5.428-4.689-.502.023-1.001.068-1.497.124.988.728 3.827 2.88 6.218 5.272.722.722 1.508 1.694 2.283 2.748.314-.145.621-.286.928-.426-.84-1.151-1.703-2.227-2.504-3.029z"/><path d="m10.296 114.498c.036 2.61.45 5.667 1.835 8.24 1.12 2.08 2.79 4.14 4.461 5.922.129-.355.261-.707.397-1.06-1.513-1.647-2.986-3.495-3.977-5.337-1.581-2.936-1.8-6.654-1.677-9.426-.375.523-.719 1.08-1.039 1.661z"/></g><path d="m63.341 129.776-3.997 4.065c-2.463 2.505-3.844 5.877-3.844 9.39v32.269l-19.25 37.75-12.641 9.598c-.541.411-.859 1.051-.859 1.73 0 1.2.972 2.172 2.172 2.172h1.578l-2.766 4.611c-1.275 2.124-.254 4.883 2.096 5.666.914.305 1.909.258 2.79-.132l7.873-3.479c.963-.426 1.711-1.225 2.073-2.214l5.184-14.202 22.5-29 3-9.75 3.284-26.08c.598-4.747 3.682-8.814 8.091-10.67 0 0 1.224-.422 1.235-.426.186-.064-3.123-9.351-4.838-11.166-3.7-3.91-9.906-3.97-13.681-.132z" fill="#f5d3a6"/><path d="" fill="#727d43"/><path d="m84.308 140.23 21.692-7.48 4.667 1.409c-3.199-6.652-2.999-11.399-4.453-16.052-1.607-5.143-2.357 6.214-5.464 12.107-2.342 4.442-11.883 8.357-16.442 10.016z" fill="#727d43"/><path d="m210.571 133.75s-10.607 3.223-17.357 3.219-18.964-2.254-29.571 1.281c-10.607 3.536-4.893 4.871-15.786 5.81-3.378.292-6.108.709-8.271 1.146 3.887.884 7.719 1.415 10.874 1.415 3.469-.409 6.778-1.692 9.616-3.729 3.525-2.531 7.759-3.885 12.099-3.87l30.325.099z" fill="#403742"/></svg>