<svg id="Layer_1_1_" enable-background="new 0 0 256 256" height="512" viewBox="0 0 256 256" width="512" xmlns="http://www.w3.org/2000/svg"><path d="m176.545 95.746-19.863-.398c-1.779-3.459-1.078-7.787 1.217-11.264 3.385-5.128 10.287-6.54 15.414-3.155 4.899 3.234 6.057 9.777 3.232 14.817z" fill="#704c0f"/><path d="m161.794 86.672c-.007.011-.015.023-.022.034-.915 1.396.235 3.225 1.901 3.115 4.441-.293 8.909.47 12.416 2.401.519.286 1.022.603 1.517.934-.25.889-.596 1.76-1.061 2.589l-19.863-.398c-.19-.37-.341-.753-.473-1.142-.054-.157-.101-.316-.147-.475-.058-.21-.107-.422-.15-.636-.107-.509-.177-1.024-.202-1.547 0-.003-.001-.006-.001-.01-.117-2.527.683-5.17 2.188-7.451 2.246-3.404 6.312-5.199 10.374-4.842 3.082.27 5.246 1.527 6.834 3.189-4.778-1.861-10.37-.215-13.311 4.239z" fill="#5e400d"/><path d="m183.918 129.908c-4.151 3.495-9.848 5.608-9.848 5.608l-4.627 7.048-5.259-2.636s-5.845 3.065-9.19 3.094c-3.816.034-8.833-3.331-11.646-5.582-2.284-1.828-3.653-4.227-4.471-6.876-1.06-3.43-1.199-7.28-1.208-10.855-.01-3.81 2.32-7.581 4.325-10.659.653-1.003 1.359-2.004 2.102-2.991 8.498.606 39.821 23.849 39.822 23.849z" fill="#f0c792"/><path d="m189.629 114.172c.869 4.605-.862 10.691-4.048 14.156-.509.553-1.07 1.081-1.663 1.58-.001 0-31.324-23.243-39.823-23.849 2.013-2.673 4.324-5.229 6.788-7.336 6.566-5.612 18.625-6.865 26.194-2.697 6.554 3.609 11.193 10.949 12.552 18.146z" fill="#704c0f"/><g fill="#5e400d"><path d="m181.494 109.654c.606 5.748-1.793 11.329-4.28 15.424-.352-.249-.71-.501-1.082-.762 2.365-3.925 4.632-9.218 4.073-14.526-.523-4.969-2.781-10.344-5.028-14.646.656.264 1.297.55 1.901.882.011.006.021.013.032.019 2.022 4.112 3.897 8.982 4.384 13.609z"/><path d="m163.197 105.139c-1.016 3.145-1.2 6.628-1.023 9.822-.452-.285-.903-.566-1.353-.846-.094-3.061.162-6.341 1.142-9.374 1.236-3.827 2.93-7.814 4.485-11.168.473 0 .943.011 1.413.035-1.6 3.412-3.384 7.565-4.664 11.531z"/><path d="m163.968 93.681c-2.595 2.468-5.454 5.505-7.357 8.461-1.532 2.379-2.333 5.223-2.736 7.883-.414-.227-.819-.442-1.221-.654.451-2.67 1.3-5.499 2.867-7.932 1.676-2.602 4.019-5.223 6.298-7.49.71-.119 1.429-.203 2.149-.268z"/></g><path d="m122.418 139.369.235 30.619 29.597 2.032 1.514-23.346z" fill="#403742"/><path d="m245.852 153.314c-.139-1.339-.891-2.538-2.037-3.245l-1.306-.807-9.544 5.929.393 7.075c.065 1.173.809 2.199 1.902 2.627l6.999 2.739c1.508.59 3.213-.123 3.851-1.612l.548-1.279c.201-.47.279-.983.227-1.492z" fill="#f0c792"/><path d="m233.826 148.062.341-9.895-2.169-8.676c-.292-1.17-1.344-1.99-2.549-1.99-1.157 0-2.178.757-2.514 1.864l-8.935 27.528-31.524 1.492-32.712-9.71-1.514 23.346 26.61 1.827c4.747.434 9.527.373 14.262-.181l26.002-3.044c.69-.081 1.389-.041 2.065.117l5.266 1.232c1.013.237 2.07.207 3.067-.088l2.807-.829c1.882-.556 3.373-1.998 3.993-3.86l.978-2.938z" fill="#f5d3a6"/><path d="m136.199 152.256-4.567-4.567c-1.817-1.817-4.05-3.163-6.506-3.921l-1.304-.402-42.745-7.119-14.989-2.496-15.892-24.898c-8.753 4.031-17.147 9.241-23.688 16.081-8.854 9.259-13.312 26.996-2.339 36.972l93.005 14.619h5.613c3.116 0 6.163-.922 8.755-2.651l2.693-1.795c3.18-2.12 5.254-5.543 5.661-9.344.417-3.873-.943-7.726-3.697-10.479z" fill="#514654"/><path d="m221.607 145.778-3.607 11.115-31.524 1.492-12.862-3.818 23.296 12.696c1.856 1.011 3.911 1.453 5.962 1.28l12.841-1.082c4.744-.4 9.389-1.75 13.722-3.99l6.928-3.58-2.538-11.829.015-.423z" fill="#f0c792"/><path d="m117.176 176.524h-27.869c-1.909 0-3.818-.093-5.718-.278l-32.646-3.185-18.77 2.04c-.762.083-1.527.124-2.293.124h-20.177c-1.61 0-2.915-1.305-2.915-2.915 0-1.128.65-2.154 1.67-2.636l13.914-6.571 8.816-5.877c1.894-1.263 4.031-2.117 6.274-2.507 4.203-.731 8.525.208 12.046 2.617l2.734 1.871 43.782-5.473c5.393-.674 10.866-.304 16.12 1.09l2.524.67.6 1.774c2.104 6.226 3.752 12.948 1.908 19.256z" fill="#f5d3a6"/><path d="m117.176 176.524h-27.869c-1.909 0-3.818-.093-5.718-.278l-32.646-3.185-18.77 2.04c-.762.083-1.527.124-2.293.124h-20.177c-1.61 0-2.915-1.305-2.915-2.915 0-1.128.65-2.154 1.67-2.636l13.914-6.571 8.816-5.877c1.894-1.263 4.031-2.117 6.274-2.507 4.203-.731 8.525.208 12.046 2.617l2.734 1.871 43.782-5.473c5.393-.674 10.866-.304 16.12 1.09l2.524.67.6 1.774c2.104 6.226 3.752 12.948 1.908 19.256z" fill="#f5d3a6"/><path d="m24.17 161.905 7.017-4.678c1.894-1.263 4.031-2.117 6.274-2.507 4.203-.731 8.525.208 12.046 2.617l2.734 1.871 43.782-5.473c5.393-.674 10.866-.304 16.12 1.089l2.524.67 7.765-1.606c-.814-.008-2.945-.251-8.505-1.388-9.429-1.929-29.786-.857-39.429.643s-18 4.5-22.071 2.786-10.071-5.143-19.714-3.643-15-2.143-12.643-7.5c1.127-2.561.632-6.198-.191-9.298-3.503 8.942-3.285 19.529 4.291 26.417z" fill="#403742"/><path d="m124.693 97.834c-2.443-1.394-4.995-2.405-7.516-2.696-10.276-1.186-32.099 1.6-51.304 7.695l15.205 33.413 42.745 7.119 3.668-1.965c5.766-3.088 9.735-8.717 10.708-15.184 1.706-11.329-3.554-22.705-13.506-28.382z" fill="#7f8b4b"/><path d="m60.467 104.662c-3.419 1.237-6.871 2.624-10.27 4.19l15.892 24.898 14.989 2.496-15.205-33.413c-1.829.581-3.636 1.189-5.406 1.829z" fill="#f5d3a6"/><path d="m66.089 133.75 14.989 2.496-2.854-6.271c-.578-.005-1.157-.013-1.74-.042l-13.261-.672z" fill="#f0c792"/><path d="m124.693 97.834c-1.69-.964-3.432-1.738-5.179-2.224-3.434 19.726-20.748 34.559-41.29 34.365l2.854 6.271 42.745 7.119 3.668-1.965c5.766-3.088 9.735-8.717 10.708-15.184 1.706-11.329-3.554-22.705-13.506-28.382z" fill="#727d43"/><path d="m210.175 162.348-10.727.792c-1.713.127-3.43-.196-4.98-.937l-27.635-13.203-29.005-12.002c-7.469-3.091-14.061-7.975-19.192-14.222l-.034-.042c-1.353-1.647-2.045-3.738-1.941-5.867l.001-.015c.176-3.611 2.592-6.726 6.046-7.794 5.246-1.623 10.944-.814 15.531 2.206l5.929 3.902 22 15.167 28.833 14.5 15.333 1 21.254 2.834c.797.106 1.604-.112 2.238-.606l2.203-1.713c.812-.632 1.892-.803 2.86-.454l4.727 1.705c1.572.567 1.797 2.698.377 3.58l-7.492 4.654-6.57.286c-.724.031-1.436.201-2.096.501l-6.195 2.806c-3.621 1.64-7.501 2.629-11.465 2.922z" fill="#f5d3a6"/><path d="m206.199 145.564-11.199-.731 5.929 3.863s.348-2.323 5.27-3.132z" fill="#f0c792"/></svg>