<svg id="Layer_1_1_" enable-background="new 0 0 256 256" height="512" viewBox="0 0 256 256" width="512" xmlns="http://www.w3.org/2000/svg"><path d="m232.45 220.045c-.643-.759-1.657-1.722-2.422-2.336l-23.923-10.957c-4.747-2.075-12.322-5.87-17.069-7.944l-114.429-4.63c-7.152 1.859-15.756 6.095-22.685 8.658-1.07.396-2.457.801-3.588 1.22l-21.419 11.312c-1.316 1.146-3.084 2.586-4.133 3.923-4.322 5.512-4.604 13.755-1.304 19.827 7.342 13.509 30.186 11.835 42.057 7.222l5.136-1.996 4.71-1.97 2.332-30.142 106.762 5.07 4.301 31.976c3.732.568 7.51.843 11.303.809.298-.003.58-.008.843-.015 3.53-.101 7.07-.204 10.594-.434 4.572-.299 9.284.263 13.764-.955 12.594-3.423 17.708-18.566 9.17-28.638z" fill="#514654"/><g fill="#403742"><path d="m193 218.5c1.5-1.286-3.857-6.214-17.143-7.072-13.286-.857-15-2.571-15-2.571l14.572-3.857 21.474-2.538c-2.854-1.359-5.665-2.692-7.867-3.654l-30.478-1.233-16.344 14.604 40.262 5.124s9.024 2.483 10.524 1.197z"/><path d="m106.429 207.063-7.303-11.892-24.519-.992c-2.926.76-6.097 1.925-9.295 3.204-.031.479-.046.957-.026 1.425.214 4.951 12.429 1.478 19.071 3.62 6.643 2.143-4.714 4.929-13.286 6.643-8.571 1.714-11.786 3.643-11.786 7.929s16.429-4.768 16.429-4.768l16.304.774z"/><path d="m163.833 177.758-.682-4.019h-69.968l-.683 4.019-3 9.725 10.891 14.213 22.955 7.826 35.306-9.416 8.181-8.948z"/></g><path d="m159.621 152.958.939-16.121h-64.787l.94 16.121-3.53 20.781h69.968z" fill="#f5d3a6"/><path d="m182.476 217.303c-6.056-2.113-41.012-5.124-41.012-5.124l-23.143 9.964 50.108 21.855c5.88 2.533 12.048 4.323 18.348 5.281z" fill="#f5d3a6"/><path d="m126.342 200.675c-1.032-2.879-3.174-5.224-5.948-6.512-2.302-1.069-4.895-1.341-7.369-.774l-9.704 2.224-8.38-6.236c-2.357-1.754-5.388-2.331-8.225-1.566l-11.482 3.098c-1.113.3-2.013 1.118-2.417 2.198-.898 2.395.934 4.931 3.49 4.83l8.986-.352 10.286 9.385 31.261.093z" fill="#f5d3a6"/><path d="m102.93 163.066c-.394 0-.792-.116-1.139-.357-.907-.63-1.132-1.877-.501-2.784 1.742-2.507 17.288-24.491 26.7-24.491 9.415 0 24.869 21.989 26.6 24.496.628.909.399 2.154-.509 2.782-.909.627-2.156.399-2.782-.509-6.08-8.804-17.785-22.77-23.309-22.77-5.531 0-17.297 13.969-23.415 22.774-.389.56-1.012.859-1.645.859z" fill="#f0c792"/><path d="m227.118 209.219-2.443-5.219-1.333-59-8.333-13.833-20.907-33.774c-4.785-7.73-11.153-14.359-18.685-19.45l-2.309-1.561c-2.785-1.882-6.05-2.928-9.41-3.013l-1.414-.036-6.738 1.458c-.397.086-.796.16-1.196.222l7.483 39.987 3.785-12.577 22.057 20.244 18 26.667 5.667 50-8 11.333-3.075 13.138c-.343 1.465.409 2.966 1.787 3.569 1.616.707 3.496-.065 4.148-1.703l.192-.481c1.234-3.097 3.779-5.486 6.948-6.523l-1.037 16.068c-.189 2.931.86 5.806 2.892 7.927 2.524 2.634 6.653 2.872 9.464.546l1.888-1.563c1.809-1.497 3.063-3.558 3.561-5.853 1.94-8.947.889-18.282-2.992-26.573z" fill="#f5d3a6"/><path d="m101.891 75.168-9.245-1.799c-3.36.085-6.625 1.131-9.41 3.013l-2.31 1.561c-7.532 5.091-13.9 11.72-18.685 19.45l-20.907 33.774-8.334 13.833-1.333 59-2.443 5.219c-3.881 8.29-4.932 17.626-2.992 26.572.498 2.295 1.752 4.356 3.561 5.853l1.888 1.563c2.81 2.326 6.94 2.087 9.464-.546 2.032-2.12 3.081-4.996 2.892-7.927l-1.037-16.067c3.168 1.037 5.713 3.426 6.948 6.523l.192.481c.653 1.638 2.533 2.41 4.148 1.703 1.378-.603 2.13-2.104 1.787-3.569l-3.075-13.138-8-11.333 5.667-50 18-26.667 21.844-20.724 3.989 13.057z" fill="#f5d3a6"/><path d="m161.833 115-7.485-39.987c-2.292.355-4.63.318-6.915-.111l-3.518-.661-31.66.901-3.334.469c-1.824.257-3.678.208-5.487-.144l-1.545-.301-.12-.023-7.269 39.857 1.273 21.837h64.787z" fill="#7f8b4b"/><path d="m128 172c-1.104 0-2-.896-2-2v-2.5c0-1.104.896-2 2-2s2 .896 2 2v2.5c0 1.104-.896 2-2 2z" fill="#f0c792"/><path d="m117.75 75.9v7.783c0 6.047 4.589 10.95 10.25 10.95s10.25-4.902 10.25-10.95v-8.111z" fill="#f0c792"/><path d="m128.059 4.858c-8.307 0-15.041 6.734-15.041 15.041 0 1.199.401 2.144.666 3.262l28.818.058c.229-1.039.597-2.212.597-3.32.001-8.307-6.733-15.041-15.04-15.041z" fill="#704c0f"/><path d="m126.518 46.67c-5.825-.208-18.854 1.835-23.079 2.529 1.033 15.585 11.657 34.087 24.621 34.087 12.489 0 22.807-17.172 24.47-32.365-4.645-.952-20.092-4.04-26.012-4.251z" fill="#f5d3a6"/><path d="m113.188 21.253c.141.633.339 1.242.496 1.907l28.818.058c.136-.618.314-1.284.442-1.955-4.279-3.287-9.39-5.205-14.886-5.205-5.488.002-10.594 1.915-14.87 5.195z" fill="#5e400d"/><path d="m127 56.929c5.92.212 20.885-6.959 25.529-6.008.154-1.409.24-2.803.24-4.163 0-16.02-11.063-29.008-24.71-29.008s-24.71 12.987-24.71 29.008c0 .803.035 1.619.09 2.441 4.225-.694 17.736 7.522 23.561 7.73z" fill="#704c0f"/><path d="m123.346 18.291c-.727.165-1.439.376-2.141.614-2.65 3.704-8.958 13.056-9.319 18.649-.196 3.039.266 6.88.851 10.256.45-.06.907-.119 1.364-.178-.578-3.318-1.038-7.082-.851-9.99.401-6.216 9.168-18.107 10.096-19.351z" fill="#5e400d"/><path d="m140.684 48.64c.49-4.775.571-10.241-.412-15.563-1.291-6.997-3.362-11.404-5.185-14.12-.721-.251-1.453-.472-2.201-.646 1.882 2.29 4.521 6.776 6.042 15.014.95 5.147.878 10.438.408 15.076.452.08.9.159 1.348.239z" fill="#5e400d"/><path d="m146.889 36.263c-.836-5.014-2.084-9.005-3.357-12.105-.764-.722-1.573-1.377-2.408-1.99 1.59 3.234 3.352 7.937 4.416 14.319.92 5.513 1.456 9.983 1.773 13.393.487.095.949.185 1.397.274-.314-3.492-.861-8.13-1.821-13.891z" fill="#5e400d"/><path d="m126.342 200.675c-.234-.653-.533-1.275-.876-1.867l-2.184 1.196s-19.019.936-32.007 3.04l4.303 3.926 31.261.093z" fill="#f0c792"/><path d="m186.302 245.749c-5.303-1.025-10.494-2.632-15.479-4.779l-19.031-8.3c-7.83-3.415-7.616-14.594.339-17.707l3.469-1.442c-7.768-.793-14.137-1.342-14.137-1.342l-18.444 7.941-4.699 2.023 50.108 21.855c5.88 2.533 12.048 4.323 18.348 5.281z" fill="#f0c792"/><path d="m73.382 242.375 50.502-21.128 25.916-10.141 25.071-10.423h15.751c1.185 0 2.231-.776 2.574-1.91.386-1.274-.219-2.639-1.422-3.21l-10.486-4.974c-1.613-.765-3.417-1.036-5.184-.779l-12.783 1.859-12.07-5.68c-1.502-.707-3.169-.987-4.82-.81-3.305.354-6.15 2.491-7.412 5.566l-1.243 3.03c-.787 1.918-2.209 3.509-4.028 4.505l-9.02 4.94s-34.367 1.69-42.254 5.634c-1.905.952-4.269 2.135-6.761 3.38z" fill="#f5d3a6"/></svg>