<svg id="Layer_1_1_" enable-background="new 0 0 256 256" height="512" viewBox="0 0 256 256" width="512" xmlns="http://www.w3.org/2000/svg"><path d="m66.875 177.057 5.125-.6c1.283-.15 2.25-1.237 2.25-2.529 0-1.198-.836-2.234-2.007-2.488l-14.024-3.04c-1.035-.224-1.716-1.217-1.552-2.264l3.583-22.886 1.095-30.689-8.703-8.069-6.464 69.687z" fill="#f0c792"/><path d="m34.865 80.306s12.079 2.848 16.357 3.459l-.293 10.606-20.786-3.512z" fill="#f0c792"/><path d="m249.813 173.704c-.35-1.78-1.88-3.084-3.693-3.147 0 0-25.354-5.215-25.754-5.393 0 0-33.965-17.962-36.452-20.209-.566-.511-1.2-1.078-1.866-1.67l-8.424 13.711c1.653 1.265 3.942 2.769 7.09 4.41 7.854 4.097 27.254 10.701 32.29 11.79.782.169 1.485.592 1.983 1.218l3.408 3.107c1.739 1.585 4.244 2.008 6.406 1.081l21.669-.275c2.244-.281 3.779-2.404 3.343-4.623z" fill="#f5d3a6"/><path d="m158.447 125.43c-11.088-5.783-29.398-15.98-31.414-17.032s-14.658-10.773-14.658-10.773l-12.468 20.988s1.403 7.143 6.882 13.847 14.252 4.828 19.336 4.915 43.887 16.379 45.21 17.666c.571.556 1.322 1.215 2.289 1.955l8.424-13.711c-6.205-5.512-16.369-14.083-23.601-17.855z" fill="#514654"/><path d="m88.006 91.071c-4.286-1.355-8.244-3.552-11.749-6.366-1.963-1.575-4.197-3.119-5.939-3.626-5.352-1.558-25.367 4.402-25.367 4.402l-1.735 14.716 11.866 8.473s6.753 5.496 13.753 6.163c6.723.64 16.967-.865 21.755.049l7.908-20.99z" fill="#7f8b4b"/><path d="m98.495 93.892-7.908 20.99c.197.038.401.072.579.118 4.5 1.167 8.741 3.613 8.741 3.613l12.468-20.988z" fill="#f5d3a6"/><path d="m19.47 109.499 12.84-4.83c2.027 1.763 2.685 4.718 2.103 7.535-.858 4.155-4.922 6.828-9.078 5.97-3.969-.82-6.387-4.719-5.865-8.675z" fill="#704c0f"/><path d="m31.253 111.542c.002-.009.004-.018.006-.028.23-1.129-.977-2.008-2.017-1.511-2.773 1.325-5.834 1.98-8.577 1.639-.406-.05-.81-.125-1.212-.211-.067-.634-.068-1.281.018-1.932l12.84-4.83c.217.189.411.396.596.611.075.087.146.177.216.267.091.12.177.243.259.369.199.299.376.611.525.941l.003.006c.722 1.591.886 3.491.505 5.339-.569 2.758-2.717 4.95-5.414 5.762-2.046.616-3.755.364-5.199-.295 3.54-.031 6.705-2.518 7.451-6.127z" fill="#5e400d"/><path d="m5.994 89.478c1.768-3.304 4.88-6.118 4.88-6.118l1.163-5.705 4.048.344s2.964-3.462 5.101-4.337c2.439-.999 6.518-.126 8.898.598 1.933.588 3.425 1.776 4.628 3.265 1.558 1.928 2.633 4.362 3.554 6.652.982 2.441.453 5.456-.045 7.943-.162.81-.358 1.633-.582 2.456-5.605 1.788-31.644-5.098-31.645-5.098z" fill="#f5d3a6"/><path d="m6.361 101.032c-1.736-2.731-2.184-7.077-1.028-10.115.185-.485.41-.967.662-1.439 0 0 26.04 6.887 31.646 5.099-.607 2.23-1.434 4.46-2.475 6.443-2.774 5.28-10.187 9.171-16.109 8.436-5.128-.637-9.982-4.156-12.696-8.424z" fill="#704c0f"/><g fill="#5e400d"><path d="m12.734 101.846c-1.86-3.531-1.751-7.725-1.204-10.987.29.069.584.14.889.212-.512 3.123-.61 7.097 1.107 10.359 1.608 3.053 4.432 5.922 6.975 8.105-.488-.001-.972-.021-1.445-.079-.008-.001-.017-.003-.025-.004-2.35-2.119-4.8-4.763-6.297-7.606z"/><path d="m25.625 100.058c-.154-2.277-.928-4.558-1.858-6.561.363.067.724.132 1.084.196.844 1.939 1.52 4.108 1.668 6.304.187 2.77.122 5.762-.017 8.311-.303.121-.608.235-.915.339.151-2.598.232-5.718.038-8.589z"/><path d="m28.064 107.603c1.032-2.247 2.088-4.927 2.552-7.31.374-1.918.159-3.947-.263-5.756.324.039.638.074.95.107.394 1.828.574 3.859.192 5.821-.409 2.098-1.24 4.379-2.121 6.416-.425.259-.865.496-1.31.722z"/></g><path d="m234.52 178.48c-.262-.177-.513-.374-.752-.592l-3.771-3.439c-.551-.693-1.33-1.161-2.195-1.348-5.574-1.206-27.046-8.515-35.739-13.049-3.484-1.817-6.018-3.481-7.848-4.882-1.07-.819-1.901-1.549-2.533-2.164-.261-.254-1.841-1.035-4.287-2.147l-3.771 6.137c1.653 1.265 3.942 2.769 7.09 4.41 7.854 4.097 27.254 10.701 32.29 11.79.782.169 1.485.592 1.983 1.218l3.408 3.107c1.739 1.585 4.244 2.008 6.406 1.081z" fill="#f0c792"/><path d="m131.643 133.453c-5.627-.096-15.337 1.98-21.401-5.44-4.807-5.882-6.774-12.055-7.385-14.367l-2.95 4.966s1.403 7.143 6.882 13.847 14.252 4.828 19.336 4.915 43.887 16.379 45.21 17.666c.571.556 1.322 1.215 2.289 1.955l3.771-6.137c-11.292-5.131-41.127-17.326-45.752-17.405z" fill="#403742"/><path d="m102.857 113.647c-.16-.605-.232-.96-.232-.96s-4.694-2.707-9.674-3.998c-.009-.002-.019-.004-.028-.006l-2.335 6.199c.197.038.401.072.579.118 4.5 1.167 8.741 3.613 8.741 3.613z" fill="#f0c792"/><path d="m90.588 114.882 2.335-6.199c-.191-.048-.404-.085-.613-.125-5.299-1.011-16.637.655-24.078-.054-7.748-.738-15.222-6.821-15.222-6.821l-9.196-6.567-.599 5.081 11.866 8.473s6.753 5.496 13.753 6.163c6.723.641 16.966-.864 21.754.049z" fill="#727d43"/><path d="m53.131 88.397c-.688-.917-1.593-1.648-2.635-2.126l-.871-.4c-2.287-1.051-4.964-.771-6.984.731-1.811 1.346-2.848 3.494-2.775 5.749l.735 22.92c.099 3.091.478 6.167 1.131 9.19l2.602 12.04-2.293 13.338c-.581 3.38-.888 6.802-.916 10.231l-.125 14.763s.667 3.833 3.417 4.5c2.182.529 15.125.638 20.374.661 1.221.005 2.21-.983 2.21-2.204 0-1.043-.731-1.943-1.752-2.157l-13.787-2.892c-.913-.191-1.571-.985-1.589-1.917-.066-3.424-.062-11.534 1.295-15.99 1.75-5.75 2.667-18.583 2.667-18.583l1.797-39.751c.129-2.91-.754-5.774-2.501-8.103z" fill="#f5d3a6"/></svg>