<svg id="Layer_1_1_" enable-background="new 0 0 256 256" height="512" viewBox="0 0 256 256" width="512" xmlns="http://www.w3.org/2000/svg"><path d="m26.893 152.122 5.217 66.37-24.413 7.099c-1.147.529-1.882 1.678-1.882 2.941 0 1.789 1.45 3.239 3.239 3.239h29.566l5.683-25.728z" fill="#f0c792"/><path d="m60.447 234.557-5.229-14.737-1.619-86.585-30.253-1.323 14.874 84.721-3.187 14.343-27.935 11.761c-1.421.598-2.344 1.989-2.344 3.531 0 2.116 1.715 3.831 3.831 3.831h42.744c5.138 0 9.357-4.06 9.554-9.194l.107-2.782c.047-1.213-.138-2.423-.543-3.566z" fill="#f5d3a6"/><path d="m213.253 56.068c-5.407-3.535-12.581-2.619-16.926 2.16l-.257.282c-1.838 2.022-3 4.566-3.326 7.279-.717 5.979.066 12.042 2.28 17.642l23.718 59.993v13.28l3.187 65.869-20.717 2.125-16.038 6.132c-1.218.466-2.023 1.635-2.023 2.939 0 1.738 1.409 3.146 3.146 3.146h35.571c3.099 0 6.072-1.231 8.264-3.423l.554-.554c1.895-1.895 3.081-4.382 3.359-7.047l3.763-35.961c.391-3.733.586-7.484.586-11.237v-29.957l-19.527-84.619c-.761-3.307-2.773-6.192-5.614-8.049z" fill="#f0c792"/><path d="m228.948 72.33 6.357 24.047-19.133-.663v-21.723c0-2.841 1.846-5.352 4.558-6.2 3.532-1.105 7.272.961 8.218 4.539z" fill="#f0c792"/><path d="m148.225 7.87h-10.671l5.843 38.247s5.191.436 10.88 2.957l7.428-40.135c-4.443-.7-8.948-1.069-13.48-1.069z" fill="#f5d3a6"/><path d="m224.821 40.225c-2.844-5.119-7.384-9.084-12.839-11.213l-13.34-5.206-5.229-3.202c-9.736-5.961-20.518-9.9-31.707-11.665l-7.428 40.135c3.227 1.43 6.614 3.528 9.305 6.604 4.74 5.417 17.779 18.808 26.614 27.81 5.367 5.469 13.238 7.661 20.661 5.758l.003-.001c9.027-2.314 15.532-10.185 16.105-19.487l.972-15.777c.294-4.788-.787-9.562-3.117-13.756z" fill="#7f8b4b"/><path d="m137.554 7.87s-15.936 3.187-39.84 14.343c-18.279 8.53-52.397 47.187-67.444 64.91-4.862 5.727-8.022 12.701-9.136 20.131-.646 4.307-.591 8.689.161 12.978l2.05 11.679s15.865 6.636 30.253 1.323l-.314-17.442c10.61-9.762 26.271-25.123 36.034-34.78 5.781-5.718 13.445-9.126 21.563-9.59l.316-.018c3.733-.213 7.403-1.052 10.857-2.481 6.615-2.737 12.175-7.529 15.858-13.668l5.484-9.139z" fill="#514654"/><path d="m195.173 144.464-4.583-23.735c-4.515-1.419-9.56.317-13.255 3.788-5.449 5.119-5.716 13.687-.597 19.136 4.891 5.205 12.976 5.241 18.435.811z" fill="#704c0f"/><path d="m181.244 128.653c.012-.011.024-.023.036-.034 1.484-1.386 3.916-.385 4.128 1.635.567 5.385 2.405 10.586 5.446 14.392.45.564.935 1.101 1.434 1.626 1.014-.484 1.987-1.079 2.885-1.807l-4.583-23.735c-.483-.152-.974-.253-1.467-.331-.2-.033-.4-.056-.6-.078-.264-.027-.528-.041-.794-.049-.632-.023-1.264 0-1.897.078-.004 0-.008 0-.012.001-3.054.382-6.059 1.888-8.482 4.164-3.617 3.397-4.929 8.643-3.662 13.441.961 3.639 2.916 5.975 5.236 7.536-3.219-5.347-2.401-12.393 2.332-16.839z" fill="#5e400d"/><path d="m237.661 146.244c3.332-5.7 4.689-12.968 4.689-12.968l7.495-7.005-4.248-5.762s2.467-7.642 1.811-11.659c-.748-4.583-5.82-9.903-9.101-12.811-2.664-2.361-5.823-3.506-9.17-3.94-4.332-.562-8.977.067-13.266.795-4.57.775-8.611 4.348-11.887 7.39-1.067.991-2.122 2.044-3.152 3.139 2.483 10.065 36.829 42.82 36.829 42.821z" fill="#f5d3a6"/><path d="m219.972 156.345c5.701.09 12.641-3.243 16.138-7.781.558-.725 1.075-1.507 1.551-2.321-.001-.001-34.346-32.756-36.83-42.821-2.789 2.966-5.376 6.265-7.393 9.656-5.372 9.033-4.382 23.752 2.181 31.967 5.683 7.112 15.443 11.159 24.353 11.3z" fill="#704c0f"/><g fill="#5e400d"><path d="m212.874 147.524c7.017-.462 13.214-4.492 17.61-8.32-.371-.371-.748-.748-1.138-1.14-4.218 3.647-10.095 7.459-16.576 7.886-6.067.4-12.978-1.197-18.601-3.002.452.732.927 1.441 1.451 2.097.009.012.02.023.029.034 5.348 1.576 11.576 2.818 17.225 2.445z"/><path d="m203.677 126.518c3.562-1.868 7.7-2.809 11.566-3.258-.436-.483-.865-.965-1.294-1.447-3.69.52-7.57 1.505-11.005 3.307-4.333 2.273-8.765 5.128-12.465 7.686.097.567.208 1.129.334 1.687 3.763-2.623 8.374-5.62 12.864-7.975z"/><path d="m190.098 129.81c2.424-3.622 5.473-7.677 8.625-10.571 2.536-2.329 5.781-3.877 8.887-4.911-.358-.45-.699-.89-1.037-1.328-3.108 1.093-6.325 2.695-8.918 5.077-2.773 2.547-5.432 5.898-7.679 9.1.002.878.051 1.756.122 2.633z"/></g><path d="m218.65 69.782c-5.407-3.535-12.58-2.619-16.926 2.16l-.257.282c-1.838 2.022-3 4.566-3.326 7.279-.717 5.979.066 12.042 2.28 17.642l23.718 59.993v13.28l3.187 65.869-20.717 2.125-16.038 6.132c-1.218.466-2.023 1.635-2.023 2.939 0 1.738 1.409 3.146 3.146 3.146h35.571c3.099 0 6.072-1.231 8.264-3.423l.554-.554c1.895-1.895 3.081-4.382 3.359-7.047l3.763-35.961c.391-3.733.586-7.484.586-11.237v-29.957l-19.527-84.619c-.761-3.307-2.773-6.191-5.614-8.049z" fill="#f5d3a6"/><path d="m53.285 115.793-7.676 5.033 7.9 7.406z" fill="#403742"/></svg>