<svg id="Layer_1_1_" enable-background="new 0 0 256 256" height="512" viewBox="0 0 256 256" width="512" xmlns="http://www.w3.org/2000/svg"><path d="m149.007 113.99h-.002c-4.477-5.505-12.175-12.975-21.005-12.975-9.288 0-17.998 8.262-22.804 13.812h-.002l-53.87 16.635 1.437 13.692 16.853-1.362 26.099-6.506 67.342 1.039 24.695 5.675 17.245 1.394.836-13.932z" fill="#514654"/><path d="m250.667 126.167-1.419-9.789c-.142-.982-.984-1.711-1.977-1.711-.937 0-1.748.651-1.951 1.566l-5.178 15.678-34.312-.45-.836 13.932 24.005 1.94 11.668 1.667 3.327.665c2.045.409 4.144-.379 5.416-2.031.81-1.053 1.21-2.365 1.125-3.691l-.468-7.276" fill="#f0c792"/><path d="m52.762 145.154-24.397 1.971-11.667 1.667-3.327.665c-2.045.409-4.144-.379-5.416-2.031-.81-1.053-1.21-2.365-1.125-3.691l.468-7.276-.6-10.5 1.419-9.789c.142-.982.984-1.711 1.977-1.711.937 0 1.748.651 1.951 1.566l5.24 16.585 35.477-1.201z" fill="#f0c792"/><path d="m148.748 123.442-40.084-.205c-2.203-.011-4.3.946-5.747 2.608-.022.025-.043.05-.065.074-1.561 1.792-2.176 4.22-1.672 6.543l.806 3.72c.491 2.263 1.993 4.176 4.075 5.189l5.094 2.478c.988.481 2.07.74 3.169.76l28.198.501c1.223.022 2.432-.254 3.525-.803l5.33-2.68c2.038-1.025 3.504-2.916 3.988-5.146l.819-3.778c.504-2.323-.111-4.751-1.672-6.543-.031-.036-.063-.073-.095-.109-1.427-1.642-3.492-2.598-5.669-2.609z" fill="#7f8b4b"/><path d="m128.63 106.119c-5.743 0-10.398 4.074-10.398 9.101 0 .726.277 1.297.461 1.974l19.922.035c.159-.629.413-1.338.413-2.009 0-5.027-4.655-9.101-10.398-9.101z" fill="#704c0f"/><path d="m127.565 131.417c-4.027-.126-13.034 1.11-15.955 1.53.714 9.43 8.059 20.624 17.021 20.624 8.634 0 15.767-10.39 16.916-19.582-3.211-.576-13.89-2.444-17.982-2.572z" fill="#f5d3a6"/><path d="m118.349 116.039c.098.383.234.751.343 1.154l19.922.035c.094-.374.217-.777.306-1.183-2.958-1.989-6.492-3.149-10.291-3.149-3.794 0-7.323 1.158-10.28 3.143z" fill="#5e400d"/><path d="m127.898 137.624c4.092.128 14.438-4.211 17.649-3.635.107-.853.166-1.696.166-2.519 0-9.693-7.648-17.551-17.083-17.551s-17.083 7.858-17.083 17.551c0 .486.024.98.062 1.477 2.921-.42 12.262 4.551 16.289 4.677z" fill="#704c0f"/><g fill="#5e400d"><path d="m125.372 114.247c-.503.1-.995.227-1.48.371-1.832 2.241-6.193 7.9-6.442 11.284-.136 1.839.184 4.163.588 6.205.311-.036.627-.072.943-.107-.399-2.008-.718-4.285-.588-6.044.276-3.762 6.337-10.957 6.979-11.709z"/><path d="m137.358 132.609c.339-2.889.395-6.196-.285-9.416-.893-4.234-2.324-6.9-3.585-8.543-.499-.152-1.005-.285-1.521-.391 1.301 1.385 3.126 4.1 4.177 9.084.657 3.114.607 6.315.282 9.122.312.048.622.096.932.144z"/><path d="m141.647 125.12c-.578-3.034-1.441-5.449-2.321-7.324-.528-.437-1.087-.833-1.664-1.204 1.099 1.957 2.317 4.802 3.053 8.664.636 3.336 1.007 6.04 1.226 8.103.337.057.656.112.966.166-.218-2.113-.596-4.919-1.26-8.405z"/></g><path d="m160.573 126.764 31.76-1.431 46.667 1.667 11.667-.833 2 3.5-1 6.333-8.631 1.627 1.525 3.801c.501 1.248-.418 2.608-1.764 2.608-.562 0-1.095-.249-1.456-.679l-7.008-8.357-39 2-37.221 5.537c-1.98.295-3.992-.27-5.53-1.551-3.052-2.543-3.389-7.11-.743-10.073 2.235-2.502 5.383-3.998 8.734-4.149z" fill="#f5d3a6"/><path d="m96.792 126.556-31.76-1.431-46.667 1.667-11.667-.833-2 3.5 1 6.333 7.194 1.494-.763 3.706c-.205.998.38 1.989 1.353 2.29.721.224 1.507.018 2.025-.531l7.524-7.959 39 2 37.221 5.537c1.98.295 3.992-.27 5.53-1.551 3.052-2.543 3.389-7.11.743-10.073-2.233-2.503-5.382-3.998-8.733-4.149z" fill="#f5d3a6"/></svg>